<svg xmlns="http://www.w3.org/2000/svg" viewBox="0 0 2904 24" width="2904" height="24"><g><defs><clipPath id="clip_frame0_road_path"><path d="M0 0h24v24H0V0zm11.267 0l-.133 2h1.732l-.133-2zM11 4l-.2 3h2.4L13 4zm-.333 5l-.267 4h3.2l-.267-4zm-.4 6l-.333 5h4.132l-.333-5z"/></clipPath></defs><path clip-path="url(#clip_frame0_road_path)" d="M18.1 4.8c-.1-.5-.5-.8-1-.8H6.8c-.5 0-.9.4-1 .8l-2.7 14c-.1.6.4 1.2 1 1.2h15.7c.6 0 1.1-.6 1-1.2l-2.7-14z" fill="#000000"/></g><g transform="translate(24)"><defs><clipPath id="clip_frame1_road_path"><path d="M0 0h24v24H0V0zm11.265.033l-.134 2.009h1.738L12.735.033zm-.268 4.009l-.2 3.008h2.406l-.2-3.008zm-.333 5.008l-.268 4.008h3.208l-.268-4.008zm-.401 6.008l-.333 5.009h4.14l-.333-5.009z"/></clipPath></defs><path clip-path="url(#clip_frame1_road_path)" d="M18.1 4.8c-.1-.5-.5-.8-1-.8H6.8c-.5 0-.9.4-1 .8l-2.7 14c-.1.6.4 1.2 1 1.2h15.7c.6 0 1.1-.6 1-1.2l-2.7-14z" fill="#000000"/></g><g transform="translate(48)"><defs><clipPath id="clip_frame2_road_path"><path d="M0 0h24v24H0V0zm11.263.067l-.135 2.016h1.744L12.737.067zm-.269 4.016L10.793 7.1h2.414l-.201-3.017zM10.66 9.1l-.268 4.017h3.216L13.34 9.1zm-.401 6.017l-.334 5.016h4.15l-.334-5.016z"/></clipPath></defs><path clip-path="url(#clip_frame2_road_path)" d="M18.1 4.8c-.1-.5-.5-.8-1-.8H6.8c-.5 0-.9.4-1 .8l-2.7 14c-.1.6.4 1.2 1 1.2h15.7c.6 0 1.1-.6 1-1.2l-2.7-14z" fill="#000000"/></g><g transform="translate(72)"><defs><clipPath id="clip_frame3_road_path"><path d="M0 0h24v24H0V0zm11.26.1l-.134 2.025h1.748L12.74.1zm-.268 4.025L10.79 7.15h2.42l-.202-3.025zm-.335 5.025l-.269 4.025h3.224l-.269-4.025zm-.402 6.025L9.921 20.2h4.158l-.334-5.025z"/></clipPath></defs><path clip-path="url(#clip_frame3_road_path)" d="M18.1 4.8c-.1-.5-.5-.8-1-.8H6.8c-.5 0-.9.4-1 .8l-2.7 14c-.1.6.4 1.2 1 1.2h15.7c.6 0 1.1-.6 1-1.2l-2.7-14z" fill="#000000"/></g><g transform="translate(96)"><defs><clipPath id="clip_frame4_road_path"><path d="M0 0h24v24H0V0zm11.258.133l-.135 2.034h1.754L12.742.133zm-.269 4.034L10.787 7.2h2.426l-.202-3.033zM10.654 9.2l-.27 4.033h3.232l-.27-4.033zm-.403 6.033l-.335 5.034h4.168l-.335-5.034z"/></clipPath></defs><path clip-path="url(#clip_frame4_road_path)" d="M18.1 4.8c-.1-.5-.5-.8-1-.8H6.8c-.5 0-.9.4-1 .8l-2.7 14c-.1.6.4 1.2 1 1.2h15.7c.6 0 1.1-.6 1-1.2l-2.7-14z" fill="#000000"/></g><g transform="translate(120)"><defs><clipPath id="clip_frame5_road_path"><path d="M0 0h24v24H0V0zm11.256.167l-.136 2.041h1.76L12.744.167zm-.27 4.041l-.203 3.042h2.434l-.203-3.042zM10.65 9.25l-.269 4.042h3.238L13.35 9.25zm-.402 6.042l-.336 5.041h4.176l-.336-5.041z"/></clipPath></defs><path clip-path="url(#clip_frame5_road_path)" d="M18.1 4.8c-.1-.5-.5-.8-1-.8H6.8c-.5 0-.9.4-1 .8l-2.7 14c-.1.6.4 1.2 1 1.2h15.7c.6 0 1.1-.6 1-1.2l-2.7-14z" fill="#000000"/></g><g transform="translate(144)"><defs><clipPath id="clip_frame6_road_path"><path d="M0 0h24v24H0V0zm11.254.2l-.137 2.05h1.766L12.746.2zm-.271 4.05L10.78 7.3h2.44l-.203-3.05zm-.336 5.05l-.27 4.05h3.246l-.27-4.05zm-.403 6.05l-.337 5.05h4.186l-.337-5.05z"/></clipPath></defs><path clip-path="url(#clip_frame6_road_path)" d="M18.1 4.8c-.1-.5-.5-.8-1-.8H6.8c-.5 0-.9.4-1 .8l-2.7 14c-.1.6.4 1.2 1 1.2h15.7c.6 0 1.1-.6 1-1.2l-2.7-14z" fill="#000000"/></g><g transform="translate(168)"><defs><clipPath id="clip_frame7_road_path"><path d="M0 0h24v24H0V0zm11.251.233l-.136 2.059h1.77L12.749.233zm-.27 4.059l-.204 3.058h2.446l-.204-3.058zm-.337 5.058l-.271 4.058h3.254l-.271-4.058zm-.404 6.058l-.337 5.059h4.194l-.337-5.059z"/></clipPath></defs><path clip-path="url(#clip_frame7_road_path)" d="M18.1 4.8c-.1-.5-.5-.8-1-.8H6.8c-.5 0-.9.4-1 .8l-2.7 14c-.1.6.4 1.2 1 1.2h15.7c.6 0 1.1-.6 1-1.2l-2.7-14z" fill="#000000"/></g><g transform="translate(192)"><defs><clipPath id="clip_frame8_road_path"><path d="M0 0h24v24H0V0zm11.249.267l-.137 2.066h1.776L12.751.267zm-.271 4.066L10.773 7.4h2.454l-.205-3.067zM10.64 9.4l-.271 4.067h3.262L13.36 9.4zm-.404 6.067l-.338 5.066h4.204l-.338-5.066z"/></clipPath></defs><path clip-path="url(#clip_frame8_road_path)" d="M18.1 4.8c-.1-.5-.5-.8-1-.8H6.8c-.5 0-.9.4-1 .8l-2.7 14c-.1.6.4 1.2 1 1.2h15.7c.6 0 1.1-.6 1-1.2l-2.7-14z" fill="#000000"/></g><g transform="translate(216)"><defs><clipPath id="clip_frame9_road_path"><path d="M0 0h24v24H0V0zm11.247.3l-.138 2.075h1.782L12.753.3zm-.272 4.075L10.77 7.45h2.46l-.205-3.075zm-.338 5.075l-.272 4.075h3.27l-.272-4.075zm-.405 6.075L9.894 20.6h4.212l-.338-5.075z"/></clipPath></defs><path clip-path="url(#clip_frame9_road_path)" d="M18.1 4.8c-.1-.5-.5-.8-1-.8H6.8c-.5 0-.9.4-1 .8l-2.7 14c-.1.6.4 1.2 1 1.2h15.7c.6 0 1.1-.6 1-1.2l-2.7-14z" fill="#000000"/></g><g transform="translate(240)"><defs><clipPath id="clip_frame10_road_path"><path d="M0 0h24v24H0V0zm11.245.333l-.139 2.084h1.788L12.755.333zm-.273 4.084L10.767 7.5h2.466l-.205-3.083zM10.634 9.5l-.273 4.083h3.278L13.366 9.5zm-.406 6.083l-.339 5.084h4.222l-.339-5.084z"/></clipPath></defs><path clip-path="url(#clip_frame10_road_path)" d="M18.1 4.8c-.1-.5-.5-.8-1-.8H6.8c-.5 0-.9.4-1 .8l-2.7 14c-.1.6.4 1.2 1 1.2h15.7c.6 0 1.1-.6 1-1.2l-2.7-14z" fill="#000000"/></g><g transform="translate(264)"><defs><clipPath id="clip_frame11_road_path"><path d="M0 0h24v24H0V0zm11.243.367l-.14 2.091h1.794l-.14-2.091zm-.274 4.091l-.206 3.092h2.474l-.206-3.092zM10.63 9.55l-.273 4.092h3.286L13.37 9.55zm-.406 6.092l-.339 5.091h4.23l-.339-5.091z"/></clipPath></defs><path clip-path="url(#clip_frame11_road_path)" d="M18.1 4.8c-.1-.5-.5-.8-1-.8H6.8c-.5 0-.9.4-1 .8l-2.7 14c-.1.6.4 1.2 1 1.2h15.7c.6 0 1.1-.6 1-1.2l-2.7-14z" fill="#000000"/></g><g transform="translate(288)"><defs><clipPath id="clip_frame12_road_path"><path d="M0 0h24v24H0V0zm11.24.4l-.139 2.1h1.798L12.76.4zm-.273 4.1l-.207 3.1h2.48l-.207-3.1zm-.34 5.1l-.274 4.1h3.294l-.274-4.1zm-.407 6.1l-.339 5.1h4.238l-.339-5.1z"/></clipPath></defs><path clip-path="url(#clip_frame12_road_path)" d="M18.1 4.8c-.1-.5-.5-.8-1-.8H6.8c-.5 0-.9.4-1 .8l-2.7 14c-.1.6.4 1.2 1 1.2h15.7c.6 0 1.1-.6 1-1.2l-2.7-14z" fill="#000000"/></g><g transform="translate(312)"><defs><clipPath id="clip_frame13_road_path"><path d="M0 0h24v24H0V0zm11.238.433l-.14 2.109h1.804l-.14-2.109zm-.274 4.109l-.207 3.108h2.486l-.207-3.108zm-.34 5.108l-.274 4.108h3.3l-.274-4.108zm-.408 6.108l-.34 5.109h4.248l-.34-5.109z"/></clipPath></defs><path clip-path="url(#clip_frame13_road_path)" d="M18.1 4.8c-.1-.5-.5-.8-1-.8H6.8c-.5 0-.9.4-1 .8l-2.7 14c-.1.6.4 1.2 1 1.2h15.7c.6 0 1.1-.6 1-1.2l-2.7-14z" fill="#000000"/></g><g transform="translate(336)"><defs><clipPath id="clip_frame14_road_path"><path d="M0 0h24v24H0V0zm11.236.467l-.141 2.116h1.81L12.764.467zm-.275 4.116L10.753 7.7h2.494l-.208-3.117zM10.62 9.7l-.274 4.117h3.308L13.38 9.7zm-.407 6.117l-.341 5.116h4.256l-.341-5.116z"/></clipPath></defs><path clip-path="url(#clip_frame14_road_path)" d="M18.1 4.8c-.1-.5-.5-.8-1-.8H6.8c-.5 0-.9.4-1 .8l-2.7 14c-.1.6.4 1.2 1 1.2h15.7c.6 0 1.1-.6 1-1.2l-2.7-14z" fill="#000000"/></g><g transform="translate(360)"><defs><clipPath id="clip_frame15_road_path"><path d="M0 0h24v24H0V0zm11.234.5l-.142 2.125h1.816L12.766.5zm-.276 4.125L10.75 7.75h2.5l-.208-3.125zm-.341 5.125l-.275 4.125h3.316l-.275-4.125zm-.408 6.125L9.867 21h4.266l-.342-5.125z"/></clipPath></defs><path clip-path="url(#clip_frame15_road_path)" d="M18.1 4.8c-.1-.5-.5-.8-1-.8H6.8c-.5 0-.9.4-1 .8l-2.7 14c-.1.6.4 1.2 1 1.2h15.7c.6 0 1.1-.6 1-1.2l-2.7-14z" fill="#000000"/></g><g transform="translate(384)"><defs><clipPath id="clip_frame16_road_path"><path d="M0 0h24v24H0V0zm11.231.533l-.142 2.134h1.822L12.769.533zm-.275 4.134L10.747 7.8h2.506l-.209-3.133zM10.614 9.8l-.276 4.133h3.324L13.386 9.8zm-.409 6.133l-.342 5.134h4.274l-.342-5.134z"/></clipPath></defs><path clip-path="url(#clip_frame16_road_path)" d="M18.1 4.8c-.1-.5-.5-.8-1-.8H6.8c-.5 0-.9.4-1 .8l-2.7 14c-.1.6.4 1.2 1 1.2h15.7c.6 0 1.1-.6 1-1.2l-2.7-14z" fill="#000000"/></g><g transform="translate(408)"><defs><clipPath id="clip_frame17_road_path"><path d="M0 0h24v24H0V0zm11.229.567l-.142 2.141h1.826L12.771.567zm-.276 4.141l-.21 3.142h2.514l-.21-3.142zM10.61 9.85l-.276 4.142h3.332L13.39 9.85zm-.409 6.142l-.343 5.141h4.284l-.343-5.141z"/></clipPath></defs><path clip-path="url(#clip_frame17_road_path)" d="M18.1 4.8c-.1-.5-.5-.8-1-.8H6.8c-.5 0-.9.4-1 .8l-2.7 14c-.1.6.4 1.2 1 1.2h15.7c.6 0 1.1-.6 1-1.2l-2.7-14z" fill="#000000"/></g><g transform="translate(432)"><defs><clipPath id="clip_frame18_road_path"><path d="M0 0h24v24H0V0zm11.227.6l-.143 2.15h1.832L12.773.6zm-.277 4.15l-.21 3.15h2.52l-.21-3.15zm-.343 5.15l-.277 4.15h3.34l-.277-4.15zm-.41 6.15l-.343 5.15h4.292l-.343-5.15z"/></clipPath></defs><path clip-path="url(#clip_frame18_road_path)" d="M18.1 4.8c-.1-.5-.5-.8-1-.8H6.8c-.5 0-.9.4-1 .8l-2.7 14c-.1.6.4 1.2 1 1.2h15.7c.6 0 1.1-.6 1-1.2l-2.7-14z" fill="#000000"/></g><g transform="translate(456)"><defs><clipPath id="clip_frame19_road_path"><path d="M0 0h24v24H0V0zm11.225.633l-.144 2.159h1.838L12.775.633zm-.278 4.159l-.21 3.158h2.526l-.21-3.158zm-.343 5.158l-.278 4.158h3.348l-.278-4.158zm-.411 6.158l-.344 5.159h4.302l-.344-5.159z"/></clipPath></defs><path clip-path="url(#clip_frame19_road_path)" d="M18.1 4.8c-.1-.5-.5-.8-1-.8H6.8c-.5 0-.9.4-1 .8l-2.7 14c-.1.6.4 1.2 1 1.2h15.7c.6 0 1.1-.6 1-1.2l-2.7-14z" fill="#000000"/></g><g transform="translate(480)"><defs><clipPath id="clip_frame20_road_path"><path d="M0 0h24v24H0V0zm11.223.667l-.145 2.166h1.844L12.777.667zm-.279 4.166L10.733 8h2.534l-.211-3.167zM10.6 10l-.278 4.167h3.356L13.4 10zm-.411 6.167l-.344 5.166h4.31l-.344-5.166z"/></clipPath></defs><path clip-path="url(#clip_frame20_road_path)" d="M18.1 4.8c-.1-.5-.5-.8-1-.8H6.8c-.5 0-.9.4-1 .8l-2.7 14c-.1.6.4 1.2 1 1.2h15.7c.6 0 1.1-.6 1-1.2l-2.7-14z" fill="#000000"/></g><g transform="translate(504)"><defs><clipPath id="clip_frame21_road_path"><path d="M0 0h24v24H0V0zm11.22.7l-.144 2.175h1.848L12.78.7zm-.278 4.175L10.73 8.05h2.54l-.212-3.175zm-.345 5.175l-.279 4.175h3.364l-.279-4.175zm-.412 6.175L9.841 21.4h4.318l-.344-5.175z"/></clipPath></defs><path clip-path="url(#clip_frame21_road_path)" d="M18.1 4.8c-.1-.5-.5-.8-1-.8H6.8c-.5 0-.9.4-1 .8l-2.7 14c-.1.6.4 1.2 1 1.2h15.7c.6 0 1.1-.6 1-1.2l-2.7-14z" fill="#000000"/></g><g transform="translate(528)"><defs><clipPath id="clip_frame22_road_path"><path d="M0 0h24v24H0V0zm11.218.733l-.145 2.184h1.854L12.782.733zm-.279 4.184L10.727 8.1h2.546l-.212-3.183zm-.345 5.183l-.279 4.183h3.37l-.279-4.183zm-.413 6.183l-.345 5.184h4.328l-.345-5.184z"/></clipPath></defs><path clip-path="url(#clip_frame22_road_path)" d="M18.1 4.8c-.1-.5-.5-.8-1-.8H6.8c-.5 0-.9.4-1 .8l-2.7 14c-.1.6.4 1.2 1 1.2h15.7c.6 0 1.1-.6 1-1.2l-2.7-14z" fill="#000000"/></g><g transform="translate(552)"><defs><clipPath id="clip_frame23_road_path"><path d="M0 0h24v24H0V0zm11.216.767l-.146 2.191h1.86L12.784.767zm-.28 4.191l-.213 3.192h2.554l-.213-3.192zm-.346 5.192l-.279 4.192h3.378l-.279-4.192zm-.413 6.192l-.345 5.191h4.336l-.345-5.191z"/></clipPath></defs><path clip-path="url(#clip_frame23_road_path)" d="M18.1 4.8c-.1-.5-.5-.8-1-.8H6.8c-.5 0-.9.4-1 .8l-2.7 14c-.1.6.4 1.2 1 1.2h15.7c.6 0 1.1-.6 1-1.2l-2.7-14z" fill="#000000"/></g><g transform="translate(576)"><defs><clipPath id="clip_frame24_road_path"><path d="M0 0h24v24H0V0zm11.214.8L11.067 3h1.866L12.786.8zM10.933 5l-.213 3.2h2.56L13.067 5zm-.346 5.2l-.28 4.2h3.386l-.28-4.2zm-.413 6.2l-.347 5.2h4.346l-.347-5.2z"/></clipPath></defs><path clip-path="url(#clip_frame24_road_path)" d="M18.1 4.8c-.1-.5-.5-.8-1-.8H6.8c-.5 0-.9.4-1 .8l-2.7 14c-.1.6.4 1.2 1 1.2h15.7c.6 0 1.1-.6 1-1.2l-2.7-14z" fill="#000000"/></g><g transform="translate(600)"><defs><clipPath id="clip_frame25_road_path"><path d="M0 0h24v24H0V0zm11.211.833l-.147 2.209h1.872L12.789.833zm-.28 4.209l-.214 3.208h2.566l-.214-3.208zm-.347 5.208l-.281 4.208h3.394l-.281-4.208zm-.414 6.208l-.347 5.209h4.354l-.347-5.209z"/></clipPath></defs><path clip-path="url(#clip_frame25_road_path)" d="M18.1 4.8c-.1-.5-.5-.8-1-.8H6.8c-.5 0-.9.4-1 .8l-2.7 14c-.1.6.4 1.2 1 1.2h15.7c.6 0 1.1-.6 1-1.2l-2.7-14z" fill="#000000"/></g><g transform="translate(624)"><defs><clipPath id="clip_frame26_road_path"><path d="M0 0h24v24H0V0zm11.209.867l-.147 2.216h1.876L12.791.867zm-.281 4.216L10.713 8.3h2.574l-.215-3.217zM10.58 10.3l-.281 4.217h3.402L13.42 10.3zm-.414 6.217l-.348 5.216h4.364l-.348-5.216z"/></clipPath></defs><path clip-path="url(#clip_frame26_road_path)" d="M18.1 4.8c-.1-.5-.5-.8-1-.8H6.8c-.5 0-.9.4-1 .8l-2.7 14c-.1.6.4 1.2 1 1.2h15.7c.6 0 1.1-.6 1-1.2l-2.7-14z" fill="#000000"/></g><g transform="translate(648)"><defs><clipPath id="clip_frame27_road_path"><path d="M0 0h24v24H0V0zm11.207.9l-.148 2.225h1.882L12.793.9zm-.282 4.225L10.71 8.35h2.58l-.215-3.225zm-.348 5.225l-.282 4.225h3.41l-.282-4.225zm-.415 6.225L9.814 21.8h4.372l-.348-5.225z"/></clipPath></defs><path clip-path="url(#clip_frame27_road_path)" d="M18.1 4.8c-.1-.5-.5-.8-1-.8H6.8c-.5 0-.9.4-1 .8l-2.7 14c-.1.6.4 1.2 1 1.2h15.7c.6 0 1.1-.6 1-1.2l-2.7-14z" fill="#000000"/></g><g transform="translate(672)"><defs><clipPath id="clip_frame28_road_path"><path d="M0 0h24v24H0V0zm11.205.933l-.149 2.234h1.888L12.795.933zm-.283 4.234L10.707 8.4h2.586l-.215-3.233zm-.348 5.233l-.283 4.233h3.418l-.283-4.233zm-.416 6.233l-.349 5.234h4.382l-.349-5.234z"/></clipPath></defs><path clip-path="url(#clip_frame28_road_path)" d="M18.1 4.8c-.1-.5-.5-.8-1-.8H6.8c-.5 0-.9.4-1 .8l-2.7 14c-.1.6.4 1.2 1 1.2h15.7c.6 0 1.1-.6 1-1.2l-2.7-14z" fill="#000000"/></g><g transform="translate(696)"><defs><clipPath id="clip_frame29_road_path"><path d="M0 0h24v24H0V0zm11.202.967l-.149 2.241h1.894L12.798.967zm-.282 4.241l-.217 3.242h2.594l-.217-3.242zm-.35 5.242l-.283 4.242h3.426l-.283-4.242zm-.416 6.242l-.349 5.241h4.39l-.349-5.241z"/></clipPath></defs><path clip-path="url(#clip_frame29_road_path)" d="M18.1 4.8c-.1-.5-.5-.8-1-.8H6.8c-.5 0-.9.4-1 .8l-2.7 14c-.1.6.4 1.2 1 1.2h15.7c.6 0 1.1-.6 1-1.2l-2.7-14z" fill="#000000"/></g><g transform="translate(720)"><defs><clipPath id="clip_frame30_road_path"><path d="M0 0h24v24H0V0zm11.2 1l-.15 2.25h1.9L12.8 1zm-.283 4.25L10.7 8.5h2.6l-.217-3.25zm-.35 5.25l-.283 4.25h3.432l-.283-4.25zm-.417 6.25L9.8 22h4.4l-.35-5.25z"/></clipPath></defs><path clip-path="url(#clip_frame30_road_path)" d="M18.1 4.8c-.1-.5-.5-.8-1-.8H6.8c-.5 0-.9.4-1 .8l-2.7 14c-.1.6.4 1.2 1 1.2h15.7c.6 0 1.1-.6 1-1.2l-2.7-14z" fill="#000000"/></g><g transform="translate(744)"><defs><clipPath id="clip_frame31_road_path"><path d="M0 0h24v24H0V0zm11.198 1.033l-.15 2.259h1.904l-.15-2.259zm-.284 4.259l-.217 3.258h2.606l-.217-3.258zm-.35 5.258l-.284 4.258h3.44l-.284-4.258zm-.418 6.258l-.35 5.259h4.408l-.35-5.259z"/></clipPath></defs><path clip-path="url(#clip_frame31_road_path)" d="M18.1 4.8c-.1-.5-.5-.8-1-.8H6.8c-.5 0-.9.4-1 .8l-2.7 14c-.1.6.4 1.2 1 1.2h15.7c.6 0 1.1-.6 1-1.2l-2.7-14z" fill="#000000"/></g><g transform="translate(768)"><defs><clipPath id="clip_frame32_road_path"><path d="M0 0h24v24H0V0zm11.196 1.067l-.151 2.266h1.91l-.151-2.266zm-.285 4.266L10.693 8.6h2.614l-.218-3.267zM10.56 10.6l-.284 4.267h3.448L13.44 10.6zm-.418 6.267l-.35 5.266h4.416l-.35-5.266z"/></clipPath></defs><path clip-path="url(#clip_frame32_road_path)" d="M18.1 4.8c-.1-.5-.5-.8-1-.8H6.8c-.5 0-.9.4-1 .8l-2.7 14c-.1.6.4 1.2 1 1.2h15.7c.6 0 1.1-.6 1-1.2l-2.7-14z" fill="#000000"/></g><g transform="translate(792)"><defs><clipPath id="clip_frame33_road_path"><path d="M0 0h24v24H0V0zm11.194 1.1l-.152 2.275h1.916L12.806 1.1zm-.286 4.275L10.69 8.65h2.62l-.218-3.275zm-.351 5.275l-.285 4.275h3.456l-.285-4.275zm-.418 6.275L9.787 22.2h4.426l-.352-5.275z"/></clipPath></defs><path clip-path="url(#clip_frame33_road_path)" d="M18.1 4.8c-.1-.5-.5-.8-1-.8H6.8c-.5 0-.9.4-1 .8l-2.7 14c-.1.6.4 1.2 1 1.2h15.7c.6 0 1.1-.6 1-1.2l-2.7-14z" fill="#000000"/></g><g transform="translate(816)"><defs><clipPath id="clip_frame34_road_path"><path d="M0 0h24v24H0V0zm11.191 1.133l-.152 2.284h1.922l-.152-2.284zm-.285 4.284L10.687 8.7h2.626l-.219-3.283zm-.352 5.283l-.286 4.283h3.464l-.286-4.283zm-.419 6.283l-.352 5.284h4.434l-.352-5.284z"/></clipPath></defs><path clip-path="url(#clip_frame34_road_path)" d="M18.1 4.8c-.1-.5-.5-.8-1-.8H6.8c-.5 0-.9.4-1 .8l-2.7 14c-.1.6.4 1.2 1 1.2h15.7c.6 0 1.1-.6 1-1.2l-2.7-14z" fill="#000000"/></g><g transform="translate(840)"><defs><clipPath id="clip_frame35_road_path"><path d="M0 0h24v24H0V0zm11.189 1.167l-.152 2.291h1.926l-.152-2.291zm-.286 4.291l-.22 3.292h2.634l-.22-3.292zm-.353 5.292l-.286 4.292h3.472l-.286-4.292zm-.419 6.292l-.353 5.291h4.444l-.353-5.291z"/></clipPath></defs><path clip-path="url(#clip_frame35_road_path)" d="M18.1 4.8c-.1-.5-.5-.8-1-.8H6.8c-.5 0-.9.4-1 .8l-2.7 14c-.1.6.4 1.2 1 1.2h15.7c.6 0 1.1-.6 1-1.2l-2.7-14z" fill="#000000"/></g><g transform="translate(864)"><defs><clipPath id="clip_frame36_road_path"><path d="M0 0h24v24H0V0zm11.187 1.2l-.153 2.3h1.932l-.153-2.3zM10.9 5.5l-.22 3.3h2.64l-.22-3.3zm-.353 5.3l-.287 4.3h3.48l-.287-4.3zm-.42 6.3l-.353 5.3h4.452l-.353-5.3z"/></clipPath></defs><path clip-path="url(#clip_frame36_road_path)" d="M18.1 4.8c-.1-.5-.5-.8-1-.8H6.8c-.5 0-.9.4-1 .8l-2.7 14c-.1.6.4 1.2 1 1.2h15.7c.6 0 1.1-.6 1-1.2l-2.7-14z" fill="#000000"/></g><g transform="translate(888)"><defs><clipPath id="clip_frame37_road_path"><path d="M0 0h24v24H0V0zm11.185 1.233l-.154 2.309h1.938l-.154-2.309zm-.288 4.309l-.22 3.308h2.646l-.22-3.308zm-.353 5.308l-.288 4.308h3.488l-.288-4.308zm-.421 6.308l-.354 5.309h4.462l-.354-5.309z"/></clipPath></defs><path clip-path="url(#clip_frame37_road_path)" d="M18.1 4.8c-.1-.5-.5-.8-1-.8H6.8c-.5 0-.9.4-1 .8l-2.7 14c-.1.6.4 1.2 1 1.2h15.7c.6 0 1.1-.6 1-1.2l-2.7-14z" fill="#000000"/></g><g transform="translate(912)"><defs><clipPath id="clip_frame38_road_path"><path d="M0 0h24v24H0V0zm11.182 1.267l-.154 2.316h1.944l-.154-2.316zm-.287 4.316L10.673 8.9h2.654l-.222-3.317zM10.54 10.9l-.288 4.317h3.496L13.46 10.9zm-.421 6.317l-.354 5.316h4.47l-.354-5.316z"/></clipPath></defs><path clip-path="url(#clip_frame38_road_path)" d="M18.1 4.8c-.1-.5-.5-.8-1-.8H6.8c-.5 0-.9.4-1 .8l-2.7 14c-.1.6.4 1.2 1 1.2h15.7c.6 0 1.1-.6 1-1.2l-2.7-14z" fill="#000000"/></g><g transform="translate(936)"><defs><clipPath id="clip_frame39_road_path"><path d="M0 0h24v24H0V0zm11.18 1.3l-.155 2.325h1.95L12.82 1.3zm-.288 4.325L10.67 8.95h2.66l-.222-3.325zm-.355 5.325l-.288 4.325h3.502l-.288-4.325zm-.422 6.325L9.76 22.6h4.48l-.355-5.325z"/></clipPath></defs><path clip-path="url(#clip_frame39_road_path)" d="M18.1 4.8c-.1-.5-.5-.8-1-.8H6.8c-.5 0-.9.4-1 .8l-2.7 14c-.1.6.4 1.2 1 1.2h15.7c.6 0 1.1-.6 1-1.2l-2.7-14z" fill="#000000"/></g><g transform="translate(960)"><defs><clipPath id="clip_frame40_road_path"><path d="M0 0h24v24H0V0zm11.178 1.333l-.155 2.334h1.954l-.155-2.334zm-.289 4.334L10.667 9h2.666l-.222-3.333zM10.534 11l-.289 4.333h3.51L13.466 11zm-.423 6.333l-.355 5.334h4.488l-.355-5.334z"/></clipPath></defs><path clip-path="url(#clip_frame40_road_path)" d="M18.1 4.8c-.1-.5-.5-.8-1-.8H6.8c-.5 0-.9.4-1 .8l-2.7 14c-.1.6.4 1.2 1 1.2h15.7c.6 0 1.1-.6 1-1.2l-2.7-14z" fill="#000000"/></g><g transform="translate(984)"><defs><clipPath id="clip_frame41_road_path"><path d="M0 0h24v24H0V0zm11.176 1.367l-.156 2.341h1.96l-.156-2.341zm-.29 4.341l-.223 3.342h2.674l-.223-3.342zm-.356 5.342l-.289 4.342h3.518l-.289-4.342zm-.423 6.342l-.355 5.341h4.496l-.355-5.341z"/></clipPath></defs><path clip-path="url(#clip_frame41_road_path)" d="M18.1 4.8c-.1-.5-.5-.8-1-.8H6.8c-.5 0-.9.4-1 .8l-2.7 14c-.1.6.4 1.2 1 1.2h15.7c.6 0 1.1-.6 1-1.2l-2.7-14z" fill="#000000"/></g><g transform="translate(1008)"><defs><clipPath id="clip_frame42_road_path"><path d="M0 0h24v24H0V0zm11.174 1.4l-.157 2.35h1.966l-.157-2.35zm-.291 4.35L10.66 9.1h2.68l-.223-3.35zm-.356 5.35l-.29 4.35h3.526l-.29-4.35zm-.423 6.35l-.357 5.35h4.506l-.357-5.35z"/></clipPath></defs><path clip-path="url(#clip_frame42_road_path)" d="M18.1 4.8c-.1-.5-.5-.8-1-.8H6.8c-.5 0-.9.4-1 .8l-2.7 14c-.1.6.4 1.2 1 1.2h15.7c.6 0 1.1-.6 1-1.2l-2.7-14z" fill="#000000"/></g><g transform="translate(1032)"><defs><clipPath id="clip_frame43_road_path"><path d="M0 0h24v24H0V0zm11.171 1.433l-.157 2.359h1.972l-.157-2.359zm-.29 4.359l-.224 3.358h2.686l-.224-3.358zm-.357 5.358l-.291 4.358h3.534l-.291-4.358zm-.424 6.358l-.357 5.359h4.514l-.357-5.359z"/></clipPath></defs><path clip-path="url(#clip_frame43_road_path)" d="M18.1 4.8c-.1-.5-.5-.8-1-.8H6.8c-.5 0-.9.4-1 .8l-2.7 14c-.1.6.4 1.2 1 1.2h15.7c.6 0 1.1-.6 1-1.2l-2.7-14z" fill="#000000"/></g><g transform="translate(1056)"><defs><clipPath id="clip_frame44_road_path"><path d="M0 0h24v24H0V0zm11.169 1.467l-.157 2.366h1.976l-.157-2.366zm-.291 4.366L10.653 9.2h2.694l-.225-3.367zM10.52 11.2l-.291 4.367h3.542L13.48 11.2zm-.424 6.367l-.358 5.366h4.524l-.358-5.366z"/></clipPath></defs><path clip-path="url(#clip_frame44_road_path)" d="M18.1 4.8c-.1-.5-.5-.8-1-.8H6.8c-.5 0-.9.4-1 .8l-2.7 14c-.1.6.4 1.2 1 1.2h15.7c.6 0 1.1-.6 1-1.2l-2.7-14z" fill="#000000"/></g><g transform="translate(1080)"><defs><clipPath id="clip_frame45_road_path"><path d="M0 0h24v24H0V0zm11.167 1.5l-.158 2.375h1.982L12.833 1.5zm-.292 4.375L10.65 9.25h2.7l-.225-3.375zm-.358 5.375l-.292 4.375h3.55l-.292-4.375zm-.425 6.375L9.734 23h4.532l-.358-5.375z"/></clipPath></defs><path clip-path="url(#clip_frame45_road_path)" d="M18.1 4.8c-.1-.5-.5-.8-1-.8H6.8c-.5 0-.9.4-1 .8l-2.7 14c-.1.6.4 1.2 1 1.2h15.7c.6 0 1.1-.6 1-1.2l-2.7-14z" fill="#000000"/></g><g transform="translate(1104)"><defs><clipPath id="clip_frame46_road_path"><path d="M0 0h24v24H0V0zm11.165 1.533l-.159 2.384h1.988l-.159-2.384zm-.293 4.384L10.647 9.3h2.706l-.225-3.383zm-.358 5.383l-.293 4.383h3.558l-.293-4.383zm-.426 6.383l-.359 5.384h4.542l-.359-5.384z"/></clipPath></defs><path clip-path="url(#clip_frame46_road_path)" d="M18.1 4.8c-.1-.5-.5-.8-1-.8H6.8c-.5 0-.9.4-1 .8l-2.7 14c-.1.6.4 1.2 1 1.2h15.7c.6 0 1.1-.6 1-1.2l-2.7-14z" fill="#000000"/></g><g transform="translate(1128)"><defs><clipPath id="clip_frame47_road_path"><path d="M0 0h24v24H0V0zm11.162 1.567l-.159 2.391h1.994l-.159-2.391zm-.292 4.391l-.227 3.392h2.714l-.227-3.392zm-.36 5.392l-.293 4.392h3.566l-.293-4.392zm-.426 6.392l-.359 5.391h4.55l-.359-5.391z"/></clipPath></defs><path clip-path="url(#clip_frame47_road_path)" d="M18.1 4.8c-.1-.5-.5-.8-1-.8H6.8c-.5 0-.9.4-1 .8l-2.7 14c-.1.6.4 1.2 1 1.2h15.7c.6 0 1.1-.6 1-1.2l-2.7-14z" fill="#000000"/></g><g transform="translate(1152)"><defs><clipPath id="clip_frame48_road_path"><path d="M0 0h24v24H0V0zm11.16 1.6L11 4h2l-.16-2.4zM10.867 6l-.227 3.4h2.72L13.133 6zm-.36 5.4l-.293 4.4h3.572l-.293-4.4zm-.427 6.4l-.36 5.4h4.56l-.36-5.4z"/></clipPath></defs><path clip-path="url(#clip_frame48_road_path)" d="M18.1 4.8c-.1-.5-.5-.8-1-.8H6.8c-.5 0-.9.4-1 .8l-2.7 14c-.1.6.4 1.2 1 1.2h15.7c.6 0 1.1-.6 1-1.2l-2.7-14z" fill="#000000"/></g><g transform="translate(1176)"><defs><clipPath id="clip_frame49_road_path"><path d="M0 0h24v24H0V0zm11.158 1.633l-.16 2.409h2.004l-.16-2.409zm-.294 4.409l-.227 3.408h2.726l-.227-3.408zm-.36 5.408l-.294 4.408h3.58l-.294-4.408zm-.428 6.408l-.36 5.409h4.568l-.36-5.409z"/></clipPath></defs><path clip-path="url(#clip_frame49_road_path)" d="M18.1 4.8c-.1-.5-.5-.8-1-.8H6.8c-.5 0-.9.4-1 .8l-2.7 14c-.1.6.4 1.2 1 1.2h15.7c.6 0 1.1-.6 1-1.2l-2.7-14z" fill="#000000"/></g><g transform="translate(1200)"><defs><clipPath id="clip_frame50_road_path"><path d="M0 0h24v24H0V0zm11.156 1.667l-.161 2.416h2.01l-.161-2.416zm-.295 4.416L10.633 9.5h2.734l-.228-3.417zM10.5 11.5l-.294 4.417h3.588L13.5 11.5zm-.428 6.417l-.361 5.416h4.578l-.361-5.416z"/></clipPath></defs><path clip-path="url(#clip_frame50_road_path)" d="M18.1 4.8c-.1-.5-.5-.8-1-.8H6.8c-.5 0-.9.4-1 .8l-2.7 14c-.1.6.4 1.2 1 1.2h15.7c.6 0 1.1-.6 1-1.2l-2.7-14z" fill="#000000"/></g><g transform="translate(1224)"><defs><clipPath id="clip_frame51_road_path"><path d="M0 0h24v24H0V0zm11.154 1.7l-.162 2.425h2.016L12.846 1.7zm-.296 4.425L10.63 9.55h2.74l-.228-3.425zm-.361 5.425l-.295 4.425h3.596l-.295-4.425zm-.428 6.425L9.707 23.4h4.586l-.362-5.425z"/></clipPath></defs><path clip-path="url(#clip_frame51_road_path)" d="M18.1 4.8c-.1-.5-.5-.8-1-.8H6.8c-.5 0-.9.4-1 .8l-2.7 14c-.1.6.4 1.2 1 1.2h15.7c.6 0 1.1-.6 1-1.2l-2.7-14z" fill="#000000"/></g><g transform="translate(1248)"><defs><clipPath id="clip_frame52_road_path"><path d="M0 0h24v24H0V0zm11.151 1.733l-.162 2.434h2.022l-.162-2.434zm-.295 4.434L10.627 9.6h2.746l-.229-3.433zm-.362 5.433l-.296 4.433h3.604l-.296-4.433zm-.429 6.433l-.362 5.434h4.594l-.362-5.434z"/></clipPath></defs><path clip-path="url(#clip_frame52_road_path)" d="M18.1 4.8c-.1-.5-.5-.8-1-.8H6.8c-.5 0-.9.4-1 .8l-2.7 14c-.1.6.4 1.2 1 1.2h15.7c.6 0 1.1-.6 1-1.2l-2.7-14z" fill="#000000"/></g><g transform="translate(1272)"><defs><clipPath id="clip_frame53_road_path"><path d="M0 0h24v24H0V0zm11.149 1.767l-.163 2.441h2.028l-.163-2.441zm-.296 4.441l-.23 3.442h2.754l-.23-3.442zm-.363 5.442l-.296 4.442h3.612l-.296-4.442zm-.429 6.442l-.363 5.441h4.604l-.363-5.441z"/></clipPath></defs><path clip-path="url(#clip_frame53_road_path)" d="M18.1 4.8c-.1-.5-.5-.8-1-.8H6.8c-.5 0-.9.4-1 .8l-2.7 14c-.1.6.4 1.2 1 1.2h15.7c.6 0 1.1-.6 1-1.2l-2.7-14z" fill="#000000"/></g><g transform="translate(1296)"><defs><clipPath id="clip_frame54_road_path"><path d="M0 0h24v24H0V0zm11.147 1.8l-.163 2.45h2.032l-.163-2.45zm-.297 4.45l-.23 3.45h2.76l-.23-3.45zm-.363 5.45l-.297 4.45h3.62l-.297-4.45zm-.43 6.45l-.363 5.45h4.612l-.363-5.45z"/></clipPath></defs><path clip-path="url(#clip_frame54_road_path)" d="M18.1 4.8c-.1-.5-.5-.8-1-.8H6.8c-.5 0-.9.4-1 .8l-2.7 14c-.1.6.4 1.2 1 1.2h15.7c.6 0 1.1-.6 1-1.2l-2.7-14z" fill="#000000"/></g><g transform="translate(1320)"><defs><clipPath id="clip_frame55_road_path"><path d="M0 0h24v24H0V0zm11.145 1.833l-.164 2.459h2.038l-.164-2.459zm-.298 4.459l-.23 3.458h2.766l-.23-3.458zm-.363 5.458l-.298 4.458h3.628l-.298-4.458zm-.431 6.458l-.364 5.459h4.622l-.364-5.459z"/></clipPath></defs><path clip-path="url(#clip_frame55_road_path)" d="M18.1 4.8c-.1-.5-.5-.8-1-.8H6.8c-.5 0-.9.4-1 .8l-2.7 14c-.1.6.4 1.2 1 1.2h15.7c.6 0 1.1-.6 1-1.2l-2.7-14z" fill="#000000"/></g><g transform="translate(1344)"><defs><clipPath id="clip_frame56_road_path"><path d="M0 0h24v24H0V0zm11.142 1.867l-.164 2.466h2.044l-.164-2.466zm-.297 4.466L10.613 9.8h2.774l-.232-3.467zM10.48 11.8l-.297 4.467h3.634L13.52 11.8zm-.431 6.467l-.364 5.466h4.63l-.364-5.466z"/></clipPath></defs><path clip-path="url(#clip_frame56_road_path)" d="M18.1 4.8c-.1-.5-.5-.8-1-.8H6.8c-.5 0-.9.4-1 .8l-2.7 14c-.1.6.4 1.2 1 1.2h15.7c.6 0 1.1-.6 1-1.2l-2.7-14z" fill="#000000"/></g><g transform="translate(1368)"><defs><clipPath id="clip_frame57_road_path"><path d="M0 0h24v24H0V0zm11.14 1.9l-.165 2.475h2.05L12.86 1.9zm-.298 4.475L10.61 9.85h2.78l-.232-3.475zm-.365 5.475l-.298 4.475h3.642l-.298-4.475zm-.432 6.475L9.68 23.8h4.64l-.365-5.475z"/></clipPath></defs><path clip-path="url(#clip_frame57_road_path)" d="M18.1 4.8c-.1-.5-.5-.8-1-.8H6.8c-.5 0-.9.4-1 .8l-2.7 14c-.1.6.4 1.2 1 1.2h15.7c.6 0 1.1-.6 1-1.2l-2.7-14z" fill="#000000"/></g><g transform="translate(1392)"><defs><clipPath id="clip_frame58_road_path"><path d="M0 0h24v24H0V0zm11.138 1.933l-.165 2.484h2.054l-.165-2.484zm-.299 4.484L10.607 9.9h2.786l-.232-3.483zm-.365 5.483l-.299 4.483h3.65l-.299-4.483zm-.433 6.483l-.365 5.484h4.648l-.365-5.484z"/></clipPath></defs><path clip-path="url(#clip_frame58_road_path)" d="M18.1 4.8c-.1-.5-.5-.8-1-.8H6.8c-.5 0-.9.4-1 .8l-2.7 14c-.1.6.4 1.2 1 1.2h15.7c.6 0 1.1-.6 1-1.2l-2.7-14z" fill="#000000"/></g><g transform="translate(1416)"><defs><clipPath id="clip_frame59_road_path"><path d="M0 0h24v24H0V0zm11.136 1.967l-.166 2.491h2.06l-.166-2.491zm-.3 4.491l-.233 3.492h2.794l-.233-3.492zm-.366 5.492l-.299 4.492h3.658l-.299-4.492zm-.433 6.492l-.366 5.491h4.658l-.366-5.491z"/></clipPath></defs><path clip-path="url(#clip_frame59_road_path)" d="M18.1 4.8c-.1-.5-.5-.8-1-.8H6.8c-.5 0-.9.4-1 .8l-2.7 14c-.1.6.4 1.2 1 1.2h15.7c.6 0 1.1-.6 1-1.2l-2.7-14z" fill="#000000"/></g><g transform="translate(1440)"><defs><clipPath id="clip_frame60_road_path"><path d="M0 0h24v24H0V0zm11.133 2l-.166 2.5h2.066L12.867 2zm-.299 4.5L10.6 10h2.8l-.234-3.5zm-.367 5.5l-.3 4.5h3.666l-.3-4.5zm-.433 6.5L9.667 24h4.666l-.367-5.5z"/></clipPath></defs><path clip-path="url(#clip_frame60_road_path)" d="M18.1 4.8c-.1-.5-.5-.8-1-.8H6.8c-.5 0-.9.4-1 .8l-2.7 14c-.1.6.4 1.2 1 1.2h15.7c.6 0 1.1-.6 1-1.2l-2.7-14z" fill="#000000"/></g><g transform="translate(1464)"><defs><clipPath id="clip_frame61_road_path"><path d="M0 0h24v24H0V0zm11.131 2.033l-.167 2.509h2.072l-.167-2.509zm-.3 4.509l-.234 3.508h2.806l-.234-3.508zm-.367 5.508l-.301 4.508h3.674l-.301-4.508zm-.434 6.508l-.367 5.509h4.674l-.367-5.509z"/></clipPath></defs><path clip-path="url(#clip_frame61_road_path)" d="M18.1 4.8c-.1-.5-.5-.8-1-.8H6.8c-.5 0-.9.4-1 .8l-2.7 14c-.1.6.4 1.2 1 1.2h15.7c.6 0 1.1-.6 1-1.2l-2.7-14z" fill="#000000"/></g><g transform="translate(1488)"><defs><clipPath id="clip_frame62_road_path"><path d="M0 0h24v24H0V0zm11.129 2.067l-.168 2.516h2.078l-.168-2.516zm-.301 4.516l-.235 3.517h2.814l-.235-3.517zM10.46 12.1l-.301 4.517h3.682L13.54 12.1zm-.434 6.517l-.368 5.516h4.684l-.368-5.516z"/></clipPath></defs><path clip-path="url(#clip_frame62_road_path)" d="M18.1 4.8c-.1-.5-.5-.8-1-.8H6.8c-.5 0-.9.4-1 .8l-2.7 14c-.1.6.4 1.2 1 1.2h15.7c.6 0 1.1-.6 1-1.2l-2.7-14z" fill="#000000"/></g><g transform="translate(1512)"><defs><clipPath id="clip_frame63_road_path"><path d="M0 0h24v24H0V0zm11.127 2.1l-.168 2.525h2.082L12.873 2.1zm-.302 4.525l-.235 3.525h2.82l-.235-3.525zm-.368 5.525l-.302 4.525h3.69l-.302-4.525zm-.435 6.525L9.654 24.2h4.692l-.368-5.525z"/></clipPath></defs><path clip-path="url(#clip_frame63_road_path)" d="M18.1 4.8c-.1-.5-.5-.8-1-.8H6.8c-.5 0-.9.4-1 .8l-2.7 14c-.1.6.4 1.2 1 1.2h15.7c.6 0 1.1-.6 1-1.2l-2.7-14z" fill="#000000"/></g><g transform="translate(1536)"><defs><clipPath id="clip_frame64_road_path"><path d="M0 0h24v24H0V0zm11.125 2.133l-.169 2.534h2.088l-.169-2.534zm-.303 4.534l-.235 3.533h2.826l-.235-3.533zm-.368 5.533l-.303 4.533h3.698l-.303-4.533zm-.436 6.533l-.369 5.534h4.702l-.369-5.534z"/></clipPath></defs><path clip-path="url(#clip_frame64_road_path)" d="M18.1 4.8c-.1-.5-.5-.8-1-.8H6.8c-.5 0-.9.4-1 .8l-2.7 14c-.1.6.4 1.2 1 1.2h15.7c.6 0 1.1-.6 1-1.2l-2.7-14z" fill="#000000"/></g><g transform="translate(1560)"><defs><clipPath id="clip_frame65_road_path"><path d="M0 0h24v24H0V0zm11.122 2.167l-.169 2.541h2.094l-.169-2.541zm-.302 4.541l-.237 3.542h2.834l-.237-3.542zm-.37 5.542l-.302 4.542h3.704l-.302-4.542zm-.436 6.542l-.369 5.541h4.71l-.369-5.541z"/></clipPath></defs><path clip-path="url(#clip_frame65_road_path)" d="M18.1 4.8c-.1-.5-.5-.8-1-.8H6.8c-.5 0-.9.4-1 .8l-2.7 14c-.1.6.4 1.2 1 1.2h15.7c.6 0 1.1-.6 1-1.2l-2.7-14z" fill="#000000"/></g><g transform="translate(1584)"><defs><clipPath id="clip_frame66_road_path"><path d="M0 0h24v24H0V0zm11.12 2.2l-.17 2.55h2.1l-.17-2.55zm-.303 4.55l-.237 3.55h2.84l-.237-3.55zm-.37 5.55l-.303 4.55h3.712l-.303-4.55zm-.437 6.55l-.37 5.55h4.72l-.37-5.55z"/></clipPath></defs><path clip-path="url(#clip_frame66_road_path)" d="M18.1 4.8c-.1-.5-.5-.8-1-.8H6.8c-.5 0-.9.4-1 .8l-2.7 14c-.1.6.4 1.2 1 1.2h15.7c.6 0 1.1-.6 1-1.2l-2.7-14z" fill="#000000"/></g><g transform="translate(1608)"><defs><clipPath id="clip_frame67_road_path"><path d="M0 0h24v24H0V0zm11.118 2.233l-.17 2.559h2.104l-.17-2.559zm-.304 4.559l-.237 3.558h2.846l-.237-3.558zm-.37 5.558l-.304 4.558h3.72l-.304-4.558zm-.438 6.558l-.37 5.559h4.728l-.37-5.559z"/></clipPath></defs><path clip-path="url(#clip_frame67_road_path)" d="M18.1 4.8c-.1-.5-.5-.8-1-.8H6.8c-.5 0-.9.4-1 .8l-2.7 14c-.1.6.4 1.2 1 1.2h15.7c.6 0 1.1-.6 1-1.2l-2.7-14z" fill="#000000"/></g><g transform="translate(1632)"><defs><clipPath id="clip_frame68_road_path"><path d="M0 0h24v24H0V0zm11.116 2.267l-.171 2.566h2.11l-.171-2.566zm-.305 4.566l-.238 3.567h2.854l-.238-3.567zM10.44 12.4l-.304 4.567h3.728L13.56 12.4zm-.438 6.567l-.371 5.566h4.738l-.371-5.566z"/></clipPath></defs><path clip-path="url(#clip_frame68_road_path)" d="M18.1 4.8c-.1-.5-.5-.8-1-.8H6.8c-.5 0-.9.4-1 .8l-2.7 14c-.1.6.4 1.2 1 1.2h15.7c.6 0 1.1-.6 1-1.2l-2.7-14z" fill="#000000"/></g><g transform="translate(1656)"><defs><clipPath id="clip_frame69_road_path"><path d="M0 0h24v24H0V0zm11.113 2.3l-.171 2.575h2.116L12.887 2.3zm-.304 4.575l-.239 3.575h2.86l-.239-3.575zm-.372 5.575l-.305 4.575h3.736l-.305-4.575zm-.439 6.575L9.627 24.6h4.746l-.371-5.575z"/></clipPath></defs><path clip-path="url(#clip_frame69_road_path)" d="M18.1 4.8c-.1-.5-.5-.8-1-.8H6.8c-.5 0-.9.4-1 .8l-2.7 14c-.1.6.4 1.2 1 1.2h15.7c.6 0 1.1-.6 1-1.2l-2.7-14z" fill="#000000"/></g><g transform="translate(1680)"><defs><clipPath id="clip_frame70_road_path"><path d="M0 0h24v24H0V0zm11.111 2.333l-.172 2.584h2.122l-.172-2.584zm-.305 4.584l-.239 3.583h2.866l-.239-3.583zm-.372 5.583l-.306 4.583h3.744l-.306-4.583zm-.439 6.583l-.372 5.584h4.754l-.372-5.584z"/></clipPath></defs><path clip-path="url(#clip_frame70_road_path)" d="M18.1 4.8c-.1-.5-.5-.8-1-.8H6.8c-.5 0-.9.4-1 .8l-2.7 14c-.1.6.4 1.2 1 1.2h15.7c.6 0 1.1-.6 1-1.2l-2.7-14z" fill="#000000"/></g><g transform="translate(1704)"><defs><clipPath id="clip_frame71_road_path"><path d="M0 0h24v24H0V0zm11.109 2.367l-.173 2.591h2.128l-.173-2.591zm-.306 4.591l-.24 3.592h2.874l-.24-3.592zm-.373 5.592l-.306 4.592h3.752l-.306-4.592zm-.439 6.592l-.373 5.591h4.764l-.373-5.591z"/></clipPath></defs><path clip-path="url(#clip_frame71_road_path)" d="M18.1 4.8c-.1-.5-.5-.8-1-.8H6.8c-.5 0-.9.4-1 .8l-2.7 14c-.1.6.4 1.2 1 1.2h15.7c.6 0 1.1-.6 1-1.2l-2.7-14z" fill="#000000"/></g><g transform="translate(1728)"><defs><clipPath id="clip_frame72_road_path"><path d="M0 0h24v24H0V0zm11.107 2.4L10.934 5h2.132l-.173-2.6zM10.8 7l-.24 3.6h2.88L13.2 7zm-.373 5.6l-.307 4.6h3.76l-.307-4.6zm-.44 6.6l-.373 5.6h4.772l-.373-5.6z"/></clipPath></defs><path clip-path="url(#clip_frame72_road_path)" d="M18.1 4.8c-.1-.5-.5-.8-1-.8H6.8c-.5 0-.9.4-1 .8l-2.7 14c-.1.6.4 1.2 1 1.2h15.7c.6 0 1.1-.6 1-1.2l-2.7-14z" fill="#000000"/></g><g transform="translate(1752)"><defs><clipPath id="clip_frame73_road_path"><path d="M0 0h24v24H0V0zm11.105 2.433l-.174 2.609h2.138l-.174-2.609zm-.308 4.609l-.24 3.608h2.886l-.24-3.608zm-.373 5.608l-.307 4.608h3.766l-.307-4.608zm-.441 6.608l-.374 5.609h4.782l-.374-5.609z"/></clipPath></defs><path clip-path="url(#clip_frame73_road_path)" d="M18.1 4.8c-.1-.5-.5-.8-1-.8H6.8c-.5 0-.9.4-1 .8l-2.7 14c-.1.6.4 1.2 1 1.2h15.7c.6 0 1.1-.6 1-1.2l-2.7-14z" fill="#000000"/></g><g transform="translate(1776)"><defs><clipPath id="clip_frame74_road_path"><path d="M0 0h24v24H0V0zm11.102 2.467l-.174 2.616h2.144l-.174-2.616zm-.307 4.616l-.242 3.617h2.894l-.242-3.617zM10.42 12.7l-.307 4.617h3.774L13.58 12.7zm-.441 6.617l-.374 5.616h4.79l-.374-5.616z"/></clipPath></defs><path clip-path="url(#clip_frame74_road_path)" d="M18.1 4.8c-.1-.5-.5-.8-1-.8H6.8c-.5 0-.9.4-1 .8l-2.7 14c-.1.6.4 1.2 1 1.2h15.7c.6 0 1.1-.6 1-1.2l-2.7-14z" fill="#000000"/></g><g transform="translate(1800)"><defs><clipPath id="clip_frame75_road_path"><path d="M0 0h24v24H0V0zm11.1 2.5l-.175 2.625h2.15L12.9 2.5zm-.308 4.625l-.242 3.625h2.9l-.242-3.625zm-.375 5.625l-.308 4.625h3.782l-.308-4.625zm-.442 6.625L9.6 25h4.8l-.375-5.625z"/></clipPath></defs><path clip-path="url(#clip_frame75_road_path)" d="M18.1 4.8c-.1-.5-.5-.8-1-.8H6.8c-.5 0-.9.4-1 .8l-2.7 14c-.1.6.4 1.2 1 1.2h15.7c.6 0 1.1-.6 1-1.2l-2.7-14z" fill="#000000"/></g><g transform="translate(1824)"><defs><clipPath id="clip_frame76_road_path"><path d="M0 0h24v24H0V0zm11.098 2.533l-.176 2.634h2.156l-.176-2.634zm-.309 4.634l-.242 3.633h2.906l-.242-3.633zm-.375 5.633l-.309 4.633h3.79l-.309-4.633zm-.443 6.633l-.375 5.634h4.808l-.375-5.634z"/></clipPath></defs><path clip-path="url(#clip_frame76_road_path)" d="M18.1 4.8c-.1-.5-.5-.8-1-.8H6.8c-.5 0-.9.4-1 .8l-2.7 14c-.1.6.4 1.2 1 1.2h15.7c.6 0 1.1-.6 1-1.2l-2.7-14z" fill="#000000"/></g><g transform="translate(1848)"><defs><clipPath id="clip_frame77_road_path"><path d="M0 0h24v24H0V0zm11.096 2.567l-.176 2.641h2.16l-.176-2.641zm-.31 4.641l-.243 3.642h2.914l-.243-3.642zm-.376 5.642l-.309 4.642h3.798l-.309-4.642zm-.443 6.642l-.376 5.641h4.818l-.376-5.641z"/></clipPath></defs><path clip-path="url(#clip_frame77_road_path)" d="M18.1 4.8c-.1-.5-.5-.8-1-.8H6.8c-.5 0-.9.4-1 .8l-2.7 14c-.1.6.4 1.2 1 1.2h15.7c.6 0 1.1-.6 1-1.2l-2.7-14z" fill="#000000"/></g><g transform="translate(1872)"><defs><clipPath id="clip_frame78_road_path"><path d="M0 0h24v24H0V0zm11.093 2.6l-.176 2.65h2.166l-.176-2.65zm-.309 4.65l-.244 3.65h2.92l-.244-3.65zm-.377 5.65l-.31 4.65h3.806l-.31-4.65zm-.444 6.65l-.376 5.65h4.826l-.376-5.65z"/></clipPath></defs><path clip-path="url(#clip_frame78_road_path)" d="M18.1 4.8c-.1-.5-.5-.8-1-.8H6.8c-.5 0-.9.4-1 .8l-2.7 14c-.1.6.4 1.2 1 1.2h15.7c.6 0 1.1-.6 1-1.2l-2.7-14z" fill="#000000"/></g><g transform="translate(1896)"><defs><clipPath id="clip_frame79_road_path"><path d="M0 0h24v24H0V0zm11.091 2.633l-.177 2.659h2.172l-.177-2.659zm-.31 4.659l-.244 3.658h2.926l-.244-3.658zm-.377 5.658l-.311 4.658h3.814l-.311-4.658zm-.444 6.658l-.378 5.659h4.836l-.378-5.659z"/></clipPath></defs><path clip-path="url(#clip_frame79_road_path)" d="M18.1 4.8c-.1-.5-.5-.8-1-.8H6.8c-.5 0-.9.4-1 .8l-2.7 14c-.1.6.4 1.2 1 1.2h15.7c.6 0 1.1-.6 1-1.2l-2.7-14z" fill="#000000"/></g><g transform="translate(1920)"><defs><clipPath id="clip_frame80_road_path"><path d="M0 0h24v24H0V0zm11.089 2.667l-.178 2.666h2.178l-.178-2.666zm-.311 4.666L10.533 11h2.934l-.245-3.667zM10.4 13l-.311 4.667h3.822L13.6 13zm-.444 6.667l-.378 5.666h4.844l-.378-5.666z"/></clipPath></defs><path clip-path="url(#clip_frame80_road_path)" d="M18.1 4.8c-.1-.5-.5-.8-1-.8H6.8c-.5 0-.9.4-1 .8l-2.7 14c-.1.6.4 1.2 1 1.2h15.7c.6 0 1.1-.6 1-1.2l-2.7-14z" fill="#000000"/></g><g transform="translate(1944)"><defs><clipPath id="clip_frame81_road_path"><path d="M0 0h24v24H0V0zm11.087 2.7l-.178 2.675h2.182L12.913 2.7zm-.312 4.675l-.245 3.675h2.94l-.245-3.675zm-.378 5.675l-.312 4.675h3.83l-.312-4.675zm-.445 6.675L9.574 25.4h4.852l-.378-5.675z"/></clipPath></defs><path clip-path="url(#clip_frame81_road_path)" d="M18.1 4.8c-.1-.5-.5-.8-1-.8H6.8c-.5 0-.9.4-1 .8l-2.7 14c-.1.6.4 1.2 1 1.2h15.7c.6 0 1.1-.6 1-1.2l-2.7-14z" fill="#000000"/></g><g transform="translate(1968)"><defs><clipPath id="clip_frame82_road_path"><path d="M0 0h24v24H0V0zm11.085 2.733l-.179 2.684h2.188l-.179-2.684zm-.313 4.684l-.245 3.683h2.946l-.245-3.683zm-.378 5.683l-.312 4.683h3.836l-.312-4.683zm-.446 6.683l-.379 5.684h4.862l-.379-5.684z"/></clipPath></defs><path clip-path="url(#clip_frame82_road_path)" d="M18.1 4.8c-.1-.5-.5-.8-1-.8H6.8c-.5 0-.9.4-1 .8l-2.7 14c-.1.6.4 1.2 1 1.2h15.7c.6 0 1.1-.6 1-1.2l-2.7-14z" fill="#000000"/></g><g transform="translate(1992)"><defs><clipPath id="clip_frame83_road_path"><path d="M0 0h24v24H0V0zm11.082 2.767l-.179 2.691h2.194l-.179-2.691zm-.312 4.691l-.247 3.692h2.954l-.247-3.692zm-.38 5.692l-.312 4.692h3.844l-.312-4.692zm-.446 6.692l-.379 5.691h4.87l-.379-5.691z"/></clipPath></defs><path clip-path="url(#clip_frame83_road_path)" d="M18.1 4.8c-.1-.5-.5-.8-1-.8H6.8c-.5 0-.9.4-1 .8l-2.7 14c-.1.6.4 1.2 1 1.2h15.7c.6 0 1.1-.6 1-1.2l-2.7-14z" fill="#000000"/></g><g transform="translate(2016)"><defs><clipPath id="clip_frame84_road_path"><path d="M0 0h24v24H0V0zm11.08 2.8l-.18 2.7h2.2l-.18-2.7zm-.313 4.7l-.247 3.7h2.96l-.247-3.7zm-.38 5.7l-.313 4.7h3.852l-.313-4.7zm-.447 6.7l-.38 5.7h4.88l-.38-5.7z"/></clipPath></defs><path clip-path="url(#clip_frame84_road_path)" d="M18.1 4.8c-.1-.5-.5-.8-1-.8H6.8c-.5 0-.9.4-1 .8l-2.7 14c-.1.6.4 1.2 1 1.2h15.7c.6 0 1.1-.6 1-1.2l-2.7-14z" fill="#000000"/></g><g transform="translate(2040)"><defs><clipPath id="clip_frame85_road_path"><path d="M0 0h24v24H0V0zm11.078 2.833l-.181 2.709h2.206l-.181-2.709zm-.314 4.709l-.247 3.708h2.966l-.247-3.708zm-.38 5.708l-.314 4.708h3.86l-.314-4.708zm-.448 6.708l-.38 5.709h4.888l-.38-5.709z"/></clipPath></defs><path clip-path="url(#clip_frame85_road_path)" d="M18.1 4.8c-.1-.5-.5-.8-1-.8H6.8c-.5 0-.9.4-1 .8l-2.7 14c-.1.6.4 1.2 1 1.2h15.7c.6 0 1.1-.6 1-1.2l-2.7-14z" fill="#000000"/></g><g transform="translate(2064)"><defs><clipPath id="clip_frame86_road_path"><path d="M0 0h24v24H0V0zm11.076 2.867l-.181 2.716h2.21l-.181-2.716zm-.315 4.716l-.248 3.717h2.974l-.248-3.717zM10.38 13.3l-.314 4.717h3.868L13.62 13.3zm-.448 6.717l-.381 5.716h4.898l-.381-5.716z"/></clipPath></defs><path clip-path="url(#clip_frame86_road_path)" d="M18.1 4.8c-.1-.5-.5-.8-1-.8H6.8c-.5 0-.9.4-1 .8l-2.7 14c-.1.6.4 1.2 1 1.2h15.7c.6 0 1.1-.6 1-1.2l-2.7-14z" fill="#000000"/></g><g transform="translate(2088)"><defs><clipPath id="clip_frame87_road_path"><path d="M0 0h24v24H0V0zm11.073 2.9l-.181 2.725h2.216L12.927 2.9zm-.314 4.725l-.249 3.725h2.98l-.249-3.725zm-.382 5.725l-.315 4.725h3.876l-.315-4.725zm-.449 6.725L9.547 25.8h4.906l-.381-5.725z"/></clipPath></defs><path clip-path="url(#clip_frame87_road_path)" d="M18.1 4.8c-.1-.5-.5-.8-1-.8H6.8c-.5 0-.9.4-1 .8l-2.7 14c-.1.6.4 1.2 1 1.2h15.7c.6 0 1.1-.6 1-1.2l-2.7-14z" fill="#000000"/></g><g transform="translate(2112)"><defs><clipPath id="clip_frame88_road_path"><path d="M0 0h24v24H0V0zm11.071 2.933l-.182 2.734h2.222l-.182-2.734zm-.315 4.734l-.249 3.733h2.986l-.249-3.733zm-.382 5.733l-.316 4.733h3.884l-.316-4.733zm-.449 6.733l-.383 5.734h4.916l-.383-5.734z"/></clipPath></defs><path clip-path="url(#clip_frame88_road_path)" d="M18.1 4.8c-.1-.5-.5-.8-1-.8H6.8c-.5 0-.9.4-1 .8l-2.7 14c-.1.6.4 1.2 1 1.2h15.7c.6 0 1.1-.6 1-1.2l-2.7-14z" fill="#000000"/></g><g transform="translate(2136)"><defs><clipPath id="clip_frame89_road_path"><path d="M0 0h24v24H0V0zm11.069 2.967l-.183 2.741h2.228l-.183-2.741zm-.316 4.741l-.25 3.742h2.994l-.25-3.742zm-.383 5.742l-.316 4.742h3.892l-.316-4.742zm-.449 6.742l-.383 5.741h4.924l-.383-5.741z"/></clipPath></defs><path clip-path="url(#clip_frame89_road_path)" d="M18.1 4.8c-.1-.5-.5-.8-1-.8H6.8c-.5 0-.9.4-1 .8l-2.7 14c-.1.6.4 1.2 1 1.2h15.7c.6 0 1.1-.6 1-1.2l-2.7-14z" fill="#000000"/></g><g transform="translate(2160)"><defs><clipPath id="clip_frame90_road_path"><path d="M0 0h24v24H0V0zm11.067 3l-.184 2.75h2.234L12.933 3zm-.317 4.75l-.25 3.75h3l-.25-3.75zm-.383 5.75l-.317 4.75h3.9l-.317-4.75zm-.45 6.75L9.534 26h4.932l-.383-5.75z"/></clipPath></defs><path clip-path="url(#clip_frame90_road_path)" d="M18.1 4.8c-.1-.5-.5-.8-1-.8H6.8c-.5 0-.9.4-1 .8l-2.7 14c-.1.6.4 1.2 1 1.2h15.7c.6 0 1.1-.6 1-1.2l-2.7-14z" fill="#000000"/></g><g transform="translate(2184)"><defs><clipPath id="clip_frame91_road_path"><path d="M0 0h24v24H0V0zm11.065 3.033l-.184 2.759h2.238l-.184-2.759zm-.318 4.759l-.25 3.758h3.006l-.25-3.758zm-.383 5.758l-.317 4.758h3.906l-.317-4.758zm-.451 6.758l-.384 5.759h4.942l-.384-5.759z"/></clipPath></defs><path clip-path="url(#clip_frame91_road_path)" d="M18.1 4.8c-.1-.5-.5-.8-1-.8H6.8c-.5 0-.9.4-1 .8l-2.7 14c-.1.6.4 1.2 1 1.2h15.7c.6 0 1.1-.6 1-1.2l-2.7-14z" fill="#000000"/></g><g transform="translate(2208)"><defs><clipPath id="clip_frame92_road_path"><path d="M0 0h24v24H0V0zm11.062 3.067l-.184 2.766h2.244l-.184-2.766zm-.317 4.766l-.252 3.767h3.014l-.252-3.767zM10.36 13.6l-.317 4.767h3.914L13.64 13.6zm-.451 6.767l-.384 5.766h4.95l-.384-5.766z"/></clipPath></defs><path clip-path="url(#clip_frame92_road_path)" d="M18.1 4.8c-.1-.5-.5-.8-1-.8H6.8c-.5 0-.9.4-1 .8l-2.7 14c-.1.6.4 1.2 1 1.2h15.7c.6 0 1.1-.6 1-1.2l-2.7-14z" fill="#000000"/></g><g transform="translate(2232)"><defs><clipPath id="clip_frame93_road_path"><path d="M0 0h24v24H0V0zm11.06 3.1l-.185 2.775h2.25L12.94 3.1zm-.318 4.775l-.252 3.775h3.02l-.252-3.775zm-.385 5.775l-.318 4.775h3.922l-.318-4.775zm-.452 6.775L9.52 26.2h4.96l-.385-5.775z"/></clipPath></defs><path clip-path="url(#clip_frame93_road_path)" d="M18.1 4.8c-.1-.5-.5-.8-1-.8H6.8c-.5 0-.9.4-1 .8l-2.7 14c-.1.6.4 1.2 1 1.2h15.7c.6 0 1.1-.6 1-1.2l-2.7-14z" fill="#000000"/></g><g transform="translate(2256)"><defs><clipPath id="clip_frame94_road_path"><path d="M0 0h24v24H0V0zm11.058 3.133l-.186 2.784h2.256l-.186-2.784zm-.319 4.784l-.252 3.783h3.026l-.252-3.783zm-.385 5.783l-.319 4.783h3.93l-.319-4.783zm-.453 6.783l-.385 5.784h4.968l-.385-5.784z"/></clipPath></defs><path clip-path="url(#clip_frame94_road_path)" d="M18.1 4.8c-.1-.5-.5-.8-1-.8H6.8c-.5 0-.9.4-1 .8l-2.7 14c-.1.6.4 1.2 1 1.2h15.7c.6 0 1.1-.6 1-1.2l-2.7-14z" fill="#000000"/></g><g transform="translate(2280)"><defs><clipPath id="clip_frame95_road_path"><path d="M0 0h24v24H0V0zm11.056 3.167l-.186 2.791h2.26l-.186-2.791zm-.32 4.791l-.253 3.792h3.034l-.253-3.792zm-.386 5.792l-.319 4.792h3.938l-.319-4.792zm-.453 6.792l-.386 5.791h4.978l-.386-5.791z"/></clipPath></defs><path clip-path="url(#clip_frame95_road_path)" d="M18.1 4.8c-.1-.5-.5-.8-1-.8H6.8c-.5 0-.9.4-1 .8l-2.7 14c-.1.6.4 1.2 1 1.2h15.7c.6 0 1.1-.6 1-1.2l-2.7-14z" fill="#000000"/></g><g transform="translate(2304)"><defs><clipPath id="clip_frame96_road_path"><path d="M0 0h24v24H0V0zm11.053 3.2L10.867 6h2.266l-.186-2.8zM10.734 8l-.254 3.8h3.04L13.266 8zm-.387 5.8l-.32 4.8h3.946l-.32-4.8zm-.454 6.8l-.386 5.8h4.986l-.386-5.8z"/></clipPath></defs><path clip-path="url(#clip_frame96_road_path)" d="M18.1 4.8c-.1-.5-.5-.8-1-.8H6.8c-.5 0-.9.4-1 .8l-2.7 14c-.1.6.4 1.2 1 1.2h15.7c.6 0 1.1-.6 1-1.2l-2.7-14z" fill="#000000"/></g><g transform="translate(2328)"><defs><clipPath id="clip_frame97_road_path"><path d="M0 0h24v24H0V0zm11.051 3.233l-.187 2.809h2.272l-.187-2.809zm-.32 4.809l-.254 3.808h3.046l-.254-3.808zm-.387 5.808l-.321 4.808h3.954l-.321-4.808zm-.454 6.808l-.388 5.809h4.996l-.388-5.809z"/></clipPath></defs><path clip-path="url(#clip_frame97_road_path)" d="M18.1 4.8c-.1-.5-.5-.8-1-.8H6.8c-.5 0-.9.4-1 .8l-2.7 14c-.1.6.4 1.2 1 1.2h15.7c.6 0 1.1-.6 1-1.2l-2.7-14z" fill="#000000"/></g><g transform="translate(2352)"><defs><clipPath id="clip_frame98_road_path"><path d="M0 0h24v24H0V0zm11.049 3.267l-.188 2.816h2.278l-.188-2.816zm-.321 4.816l-.255 3.817h3.054l-.255-3.817zM10.34 13.9l-.321 4.817h3.962L13.66 13.9zm-.454 6.817l-.388 5.816h5.004l-.388-5.816z"/></clipPath></defs><path clip-path="url(#clip_frame98_road_path)" d="M18.1 4.8c-.1-.5-.5-.8-1-.8H6.8c-.5 0-.9.4-1 .8l-2.7 14c-.1.6.4 1.2 1 1.2h15.7c.6 0 1.1-.6 1-1.2l-2.7-14z" fill="#000000"/></g><g transform="translate(2376)"><defs><clipPath id="clip_frame99_road_path"><path d="M0 0h24v24H0V0zm11.047 3.3l-.189 2.825h2.284L12.953 3.3zm-.322 4.825l-.255 3.825h3.06l-.255-3.825zm-.388 5.825l-.321 4.825h3.968l-.321-4.825zm-.455 6.825L9.493 26.6h5.014l-.389-5.825z"/></clipPath></defs><path clip-path="url(#clip_frame99_road_path)" d="M18.1 4.8c-.1-.5-.5-.8-1-.8H6.8c-.5 0-.9.4-1 .8l-2.7 14c-.1.6.4 1.2 1 1.2h15.7c.6 0 1.1-.6 1-1.2l-2.7-14z" fill="#000000"/></g><g transform="translate(2400)"><defs><clipPath id="clip_frame100_road_path"><path d="M0 0h24v24H0V0zm11.044 3.333l-.188 2.834h2.288l-.188-2.834zm-.321 4.834L10.467 12h3.066l-.256-3.833zM10.334 14l-.322 4.833h3.976L13.666 14zm-.456 6.833l-.389 5.834h5.022l-.389-5.834z"/></clipPath></defs><path clip-path="url(#clip_frame100_road_path)" d="M18.1 4.8c-.1-.5-.5-.8-1-.8H6.8c-.5 0-.9.4-1 .8l-2.7 14c-.1.6.4 1.2 1 1.2h15.7c.6 0 1.1-.6 1-1.2l-2.7-14z" fill="#000000"/></g><g transform="translate(2424)"><defs><clipPath id="clip_frame101_road_path"><path d="M0 0h24v24H0V0zm11.042 3.367l-.189 2.841h2.294l-.189-2.841zm-.322 4.841l-.257 3.842h3.074l-.257-3.842zm-.39 5.842l-.322 4.842h3.984l-.322-4.842zm-.456 6.842l-.389 5.841h5.03l-.389-5.841z"/></clipPath></defs><path clip-path="url(#clip_frame101_road_path)" d="M18.1 4.8c-.1-.5-.5-.8-1-.8H6.8c-.5 0-.9.4-1 .8l-2.7 14c-.1.6.4 1.2 1 1.2h15.7c.6 0 1.1-.6 1-1.2l-2.7-14z" fill="#000000"/></g><g transform="translate(2448)"><defs><clipPath id="clip_frame102_road_path"><path d="M0 0h24v24H0V0zm11.04 3.4l-.19 2.85h2.3l-.19-2.85zm-.323 4.85l-.257 3.85h3.08l-.257-3.85zm-.39 5.85l-.323 4.85h3.992l-.323-4.85zm-.457 6.85l-.39 5.85h5.04l-.39-5.85z"/></clipPath></defs><path clip-path="url(#clip_frame102_road_path)" d="M18.1 4.8c-.1-.5-.5-.8-1-.8H6.8c-.5 0-.9.4-1 .8l-2.7 14c-.1.6.4 1.2 1 1.2h15.7c.6 0 1.1-.6 1-1.2l-2.7-14z" fill="#000000"/></g><g transform="translate(2472)"><defs><clipPath id="clip_frame103_road_path"><path d="M0 0h24v24H0V0zm11.038 3.433l-.191 2.859h2.306l-.191-2.859zm-.324 4.859l-.257 3.858h3.086l-.257-3.858zm-.39 5.858L10 19.008h4l-.324-4.858zm-.458 6.858l-.39 5.859h5.048l-.39-5.859z"/></clipPath></defs><path clip-path="url(#clip_frame103_road_path)" d="M18.1 4.8c-.1-.5-.5-.8-1-.8H6.8c-.5 0-.9.4-1 .8l-2.7 14c-.1.6.4 1.2 1 1.2h15.7c.6 0 1.1-.6 1-1.2l-2.7-14z" fill="#000000"/></g><g transform="translate(2496)"><defs><clipPath id="clip_frame104_road_path"><path d="M0 0h24v24H0V0zm11.036 3.467l-.191 2.866h2.31l-.191-2.866zm-.325 4.866l-.258 3.867h3.094l-.258-3.867zM10.32 14.2l-.324 4.867h4.008L13.68 14.2zm-.458 6.867l-.391 5.866h5.058l-.391-5.866z"/></clipPath></defs><path clip-path="url(#clip_frame104_road_path)" d="M18.1 4.8c-.1-.5-.5-.8-1-.8H6.8c-.5 0-.9.4-1 .8l-2.7 14c-.1.6.4 1.2 1 1.2h15.7c.6 0 1.1-.6 1-1.2l-2.7-14z" fill="#000000"/></g><g transform="translate(2520)"><defs><clipPath id="clip_frame105_road_path"><path d="M0 0h24v24H0V0zm11.033 3.5l-.191 2.875h2.316L12.967 3.5zm-.324 4.875l-.259 3.875h3.1l-.259-3.875zm-.392 5.875l-.325 4.875h4.016l-.325-4.875zm-.459 6.875L9.467 27h5.066l-.391-5.875z"/></clipPath></defs><path clip-path="url(#clip_frame105_road_path)" d="M18.1 4.8c-.1-.5-.5-.8-1-.8H6.8c-.5 0-.9.4-1 .8l-2.7 14c-.1.6.4 1.2 1 1.2h15.7c.6 0 1.1-.6 1-1.2l-2.7-14z" fill="#000000"/></g><g transform="translate(2544)"><defs><clipPath id="clip_frame106_road_path"><path d="M0 0h24v24H0V0zm11.031 3.533l-.192 2.884h2.322l-.192-2.884zm-.325 4.884l-.259 3.883h3.106l-.259-3.883zm-.392 5.883l-.326 4.883h4.024l-.326-4.883zm-.46 6.883l-.392 5.884h5.076l-.392-5.884z"/></clipPath></defs><path clip-path="url(#clip_frame106_road_path)" d="M18.1 4.8c-.1-.5-.5-.8-1-.8H6.8c-.5 0-.9.4-1 .8l-2.7 14c-.1.6.4 1.2 1 1.2h15.7c.6 0 1.1-.6 1-1.2l-2.7-14z" fill="#000000"/></g><g transform="translate(2568)"><defs><clipPath id="clip_frame107_road_path"><path d="M0 0h24v24H0V0zm11.029 3.567l-.193 2.891h2.328l-.193-2.891zm-.326 4.891l-.26 3.892h3.114l-.26-3.892zm-.393 5.892l-.326 4.892h4.032l-.326-4.892zm-.459 6.892l-.393 5.891h5.084l-.393-5.891z"/></clipPath></defs><path clip-path="url(#clip_frame107_road_path)" d="M18.1 4.8c-.1-.5-.5-.8-1-.8H6.8c-.5 0-.9.4-1 .8l-2.7 14c-.1.6.4 1.2 1 1.2h15.7c.6 0 1.1-.6 1-1.2l-2.7-14z" fill="#000000"/></g><g transform="translate(2592)"><defs><clipPath id="clip_frame108_road_path"><path d="M0 0h24v24H0V0zm11.027 3.6l-.194 2.9h2.334l-.194-2.9zM10.7 8.5l-.26 3.9h3.12l-.26-3.9zm-.393 5.9l-.326 4.9h4.038l-.326-4.9zm-.46 6.9l-.394 5.9h5.094l-.394-5.9z"/></clipPath></defs><path clip-path="url(#clip_frame108_road_path)" d="M18.1 4.8c-.1-.5-.5-.8-1-.8H6.8c-.5 0-.9.4-1 .8l-2.7 14c-.1.6.4 1.2 1 1.2h15.7c.6 0 1.1-.6 1-1.2l-2.7-14z" fill="#000000"/></g><g transform="translate(2616)"><defs><clipPath id="clip_frame109_road_path"><path d="M0 0h24v24H0V0zm11.024 3.633l-.193 2.909h2.338l-.193-2.909zm-.326 4.909l-.261 3.908h3.126l-.261-3.908zm-.394 5.908l-.327 4.908h4.046l-.327-4.908zm-.461 6.908l-.394 5.909h5.102l-.394-5.909z"/></clipPath></defs><path clip-path="url(#clip_frame109_road_path)" d="M18.1 4.8c-.1-.5-.5-.8-1-.8H6.8c-.5 0-.9.4-1 .8l-2.7 14c-.1.6.4 1.2 1 1.2h15.7c.6 0 1.1-.6 1-1.2l-2.7-14z" fill="#000000"/></g><g transform="translate(2640)"><defs><clipPath id="clip_frame110_road_path"><path d="M0 0h24v24H0V0zm11.022 3.667l-.194 2.916h2.344l-.194-2.916zm-.327 4.916l-.262 3.917h3.134l-.262-3.917zM10.3 14.5l-.327 4.917h4.054L13.7 14.5zm-.461 6.917l-.395 5.916h5.112l-.395-5.916z"/></clipPath></defs><path clip-path="url(#clip_frame110_road_path)" d="M18.1 4.8c-.1-.5-.5-.8-1-.8H6.8c-.5 0-.9.4-1 .8l-2.7 14c-.1.6.4 1.2 1 1.2h15.7c.6 0 1.1-.6 1-1.2l-2.7-14z" fill="#000000"/></g><g transform="translate(2664)"><defs><clipPath id="clip_frame111_road_path"><path d="M0 0h24v24H0V0zm11.02 3.7l-.195 2.925h2.35L12.98 3.7zm-.328 4.925l-.262 3.925h3.14l-.262-3.925zm-.395 5.925l-.328 4.925h4.062l-.328-4.925zm-.462 6.925L9.44 27.4h5.12l-.395-5.925z"/></clipPath></defs><path clip-path="url(#clip_frame111_road_path)" d="M18.1 4.8c-.1-.5-.5-.8-1-.8H6.8c-.5 0-.9.4-1 .8l-2.7 14c-.1.6.4 1.2 1 1.2h15.7c.6 0 1.1-.6 1-1.2l-2.7-14z" fill="#000000"/></g><g transform="translate(2688)"><defs><clipPath id="clip_frame112_road_path"><path d="M0 0h24v24H0V0zm11.018 3.733l-.196 2.934h2.356l-.196-2.934zm-.329 4.934l-.262 3.933h3.146l-.262-3.933zm-.395 5.933l-.329 4.933h4.07l-.329-4.933zm-.463 6.933l-.395 5.934h5.128l-.395-5.934z"/></clipPath></defs><path clip-path="url(#clip_frame112_road_path)" d="M18.1 4.8c-.1-.5-.5-.8-1-.8H6.8c-.5 0-.9.4-1 .8l-2.7 14c-.1.6.4 1.2 1 1.2h15.7c.6 0 1.1-.6 1-1.2l-2.7-14z" fill="#000000"/></g><g transform="translate(2712)"><defs><clipPath id="clip_frame113_road_path"><path d="M0 0h24v24H0V0zm11.016 3.767l-.197 2.941h2.362l-.197-2.941zm-.33 4.941l-.263 3.942h3.154l-.263-3.942zm-.396 5.942l-.329 4.942h4.078l-.329-4.942zm-.463 6.942l-.396 5.941h5.138l-.396-5.941z"/></clipPath></defs><path clip-path="url(#clip_frame113_road_path)" d="M18.1 4.8c-.1-.5-.5-.8-1-.8H6.8c-.5 0-.9.4-1 .8l-2.7 14c-.1.6.4 1.2 1 1.2h15.7c.6 0 1.1-.6 1-1.2l-2.7-14z" fill="#000000"/></g><g transform="translate(2736)"><defs><clipPath id="clip_frame114_road_path"><path d="M0 0h24v24H0V0zm11.013 3.8l-.196 2.95h2.366l-.196-2.95zm-.329 4.95l-.264 3.95h3.16l-.264-3.95zm-.397 5.95l-.33 4.95h4.086l-.33-4.95zm-.464 6.95l-.396 5.95h5.146l-.396-5.95z"/></clipPath></defs><path clip-path="url(#clip_frame114_road_path)" d="M18.1 4.8c-.1-.5-.5-.8-1-.8H6.8c-.5 0-.9.4-1 .8l-2.7 14c-.1.6.4 1.2 1 1.2h15.7c.6 0 1.1-.6 1-1.2l-2.7-14z" fill="#000000"/></g><g transform="translate(2760)"><defs><clipPath id="clip_frame115_road_path"><path d="M0 0h24v24H0V0zm11.011 3.833l-.197 2.959h2.372l-.197-2.959zm-.33 4.959l-.264 3.958h3.166l-.264-3.958zm-.397 5.958l-.331 4.958h4.094l-.331-4.958zm-.465 6.958l-.397 5.959h5.156l-.397-5.959z"/></clipPath></defs><path clip-path="url(#clip_frame115_road_path)" d="M18.1 4.8c-.1-.5-.5-.8-1-.8H6.8c-.5 0-.9.4-1 .8l-2.7 14c-.1.6.4 1.2 1 1.2h15.7c.6 0 1.1-.6 1-1.2l-2.7-14z" fill="#000000"/></g><g transform="translate(2784)"><defs><clipPath id="clip_frame116_road_path"><path d="M0 0h24v24H0V0zm11.009 3.867l-.198 2.966h2.378l-.198-2.966zm-.331 4.966l-.265 3.967h3.174l-.265-3.967zM10.28 14.8l-.33 4.967h4.1l-.33-4.967zm-.464 6.967l-.398 5.966h5.164l-.398-5.966z"/></clipPath></defs><path clip-path="url(#clip_frame116_road_path)" d="M18.1 4.8c-.1-.5-.5-.8-1-.8H6.8c-.5 0-.9.4-1 .8l-2.7 14c-.1.6.4 1.2 1 1.2h15.7c.6 0 1.1-.6 1-1.2l-2.7-14z" fill="#000000"/></g><g transform="translate(2808)"><defs><clipPath id="clip_frame117_road_path"><path d="M0 0h24v24H0V0zm11.007 3.9l-.199 2.975h2.384L12.993 3.9zm-.332 4.975l-.265 3.975h3.18l-.265-3.975zm-.398 5.975l-.331 4.975h4.108l-.331-4.975zm-.465 6.975L9.413 27.8h5.174l-.399-5.975z"/></clipPath></defs><path clip-path="url(#clip_frame117_road_path)" d="M18.1 4.8c-.1-.5-.5-.8-1-.8H6.8c-.5 0-.9.4-1 .8l-2.7 14c-.1.6.4 1.2 1 1.2h15.7c.6 0 1.1-.6 1-1.2l-2.7-14z" fill="#000000"/></g><g transform="translate(2832)"><defs><clipPath id="clip_frame118_road_path"><path d="M0 0h24v24H0V0zm11.004 3.933l-.198 2.984h2.388l-.198-2.984zm-.331 4.984l-.266 3.983h3.186l-.266-3.983zm-.399 5.983l-.332 4.983h4.116l-.332-4.983zm-.466 6.983l-.399 5.984h5.182l-.399-5.984z"/></clipPath></defs><path clip-path="url(#clip_frame118_road_path)" d="M18.1 4.8c-.1-.5-.5-.8-1-.8H6.8c-.5 0-.9.4-1 .8l-2.7 14c-.1.6.4 1.2 1 1.2h15.7c.6 0 1.1-.6 1-1.2l-2.7-14z" fill="#000000"/></g><g transform="translate(2856)"><defs><clipPath id="clip_frame119_road_path"><path d="M0 0h24v24H0V0zm11.002 3.967l-.199 2.991h2.394l-.199-2.991zm-.332 4.991l-.267 3.992h3.194l-.267-3.992zm-.4 5.992l-.332 4.992h4.124l-.332-4.992zm-.466 6.992l-.4 5.991h5.192l-.4-5.991z"/></clipPath></defs><path clip-path="url(#clip_frame119_road_path)" d="M18.1 4.8c-.1-.5-.5-.8-1-.8H6.8c-.5 0-.9.4-1 .8l-2.7 14c-.1.6.4 1.2 1 1.2h15.7c.6 0 1.1-.6 1-1.2l-2.7-14z" fill="#000000"/></g><g transform="translate(2880)"><defs><clipPath id="clip_frame120_road_path"><path d="M0 0h24v24H0V0zm11 4l-.2 3h2.4L13 4zm-.333 5l-.267 4h3.2l-.267-4zm-.4 6l-.333 5h4.132l-.333-5zM9.8 22l-.4 6h5.2l-.4-6z"/></clipPath></defs><path clip-path="url(#clip_frame120_road_path)" d="M18.1 4.8c-.1-.5-.5-.8-1-.8H6.8c-.5 0-.9.4-1 .8l-2.7 14c-.1.6.4 1.2 1 1.2h15.7c.6 0 1.1-.6 1-1.2l-2.7-14z" fill="#000000"/></g></svg>