<svg xmlns="http://www.w3.org/2000/svg" viewBox="0 0 456 24" width="456" height="24"><path d="M6 6h12v12H6zM30.111414 5.92592l11.913236.134931-.08583 11.992797-12.013229-.136064zM54.515403 5.676149l11.590599.597714-.386612 11.962965-12.049988-.621405zM79.371017 5.237688l10.880051 1.463209-.997415 11.888128-12.061415-1.622085zM104.91488 4.712664l9.525672 2.689236-2.03291 11.713282-11.885436-3.355431zM131.24365 4.484228l7.36503 3.857323-3.520432 11.35585-11.174221-5.852332zM157.797508 4.995476l4.903268 4.285336-5.185194 10.797126-9.723711-8.498284zM183.79771 6.079928l2.949261 3.933054-6.648875 10.150426-7.90709-10.544682zM209.099848 7.292578l1.685046 3.24678-7.792622 9.526596-6.168063-11.884742zM233.894145 8.396163l.93021 2.528308-8.660041 8.970973-4.679366-12.7185zM258.367244 9.324686l.494462 1.890403-9.316795 8.494086-3.460224-13.22895zM282.64587 10.075915l.250155 1.363238-9.815075 8.095431-2.484933-13.541895zM306.808519 10.66961l.117918.942653-10.193219 7.771323-1.718126-13.734956zM330.900004 11.127787l.05026.61796-10.476527 7.511992-1.126467-13.850266zM354.951464 11.471724l.018327.37355-10.68541 7.314403-.683002-13.921255zM378.978 11.717518l.005228.199932-10.832334 7.168576-.365032-13.961229zM402.992108 11.880702l.000929.083995-10.929491 7.072246-.154601-13.985145zM426.99795 11.97154l.000052.02-10.982528 7.016995-.03692-13.995951zM451 12l-11 7V5z" fill="#000000"/></svg>