<svg xmlns="http://www.w3.org/2000/svg" viewBox="0 0 456 24" width="456" height="24"><path d="M12 8l-1.41 1.41 6 6L18 14z" fill="#000000"/><path d="M12 8l-6 6 1.41 1.41 6-6zM35.958186 8.030484l-1.39394 1.425878 6.067568 5.931662 1.39394-1.425878z" fill="#000000"/><path d="M36.041814 8.030484l-6.067568 5.931662 1.39394 1.425878 6.067568-5.931662zM59.812236 8.142463l-1.335513 1.480744 6.30104 5.683035 1.335514-1.480744z" fill="#000000"/><path d="M60.187764 8.142463l-6.30104 5.683035 1.335512 1.480744 6.30104-5.683035zM83.526654 8.38916l-1.209487 1.585352 6.74618 5.146753 1.209486-1.585352z" fill="#000000"/><path d="M84.473346 8.38916l-6.74618 5.146753 1.209488 1.585352 6.74618-5.146753zM107.0797 8.866258l-.97387 1.74005 7.40447 4.144132.97387-1.74005z" fill="#000000"/><path d="M108.9203 8.866258l-7.40447 4.144132.97387 1.74005 7.40447-4.144131zM130.543 9.668884l-.594884 1.903237 8.098884 2.531421.594884-1.903238z" fill="#000000"/><path d="M133.457 9.668884l-8.098884 2.53142.594884 1.903238 8.098884-2.53142zM154.12882 10.69533l-.133798 1.989548 8.466159.569348.133797-1.989547z" fill="#000000"/><path d="M157.87118 10.69533l-8.466158.56935.133797 1.989546 8.466159-.569348zM177.953967 11.666704l.28217 1.973976 8.399896-1.200725-.28217-1.973975z" fill="#000000"/><path d="M182.046033 11.666704l-8.399896-1.200724-.28217 1.973975 8.399896 1.200725zM201.949319 12.445495l.60198 1.901005 8.089382-2.561618-.60198-1.901005z" fill="#000000"/><path d="M206.050681 12.445495L197.9613 9.883877l-.60198 1.901005L205.4487 14.3465zM226.025432 13.037131l.836421 1.810138 7.702715-3.559238-.836421-1.810138z" fill="#000000"/><path d="M229.974568 13.037131l-7.702715-3.559238-.836421 1.810138 7.702715 3.559238z" fill="#000000"/><g><path d="M250.129834 13.481657l1.007306 1.72091 7.323026-4.286408-1.007306-1.720911z" fill="#000000"/><path d="M253.870166 13.481657l-7.323026-4.28641-1.007306 1.720912 7.323026 4.286408z" fill="#000000"/></g><g><path d="M274.23663 13.815444l1.132359 1.64133 6.984381-4.818549-1.132359-1.64133z" fill="#000000"/><path d="M277.76337 13.815444l-6.984381-4.818548-1.13236 1.64133 6.984382 4.818548z" fill="#000000"/></g><g><path d="M298.333787 14.06563l1.224081 1.57411 6.698345-5.208854-1.224081-1.574111z" fill="#000000"/><path d="M301.666213 14.06563l-6.698345-5.208855-1.224081 1.57411 6.698345 5.208856z" fill="#000000"/></g><g><path d="M322.416151 14.251623l1.29106 1.51966 6.466638-5.49387-1.29106-1.519659z" fill="#000000"/><path d="M325.583849 14.251623l-6.466638-5.493869-1.29106 1.51966 6.466638 5.493869z" fill="#000000"/></g><g><path d="M346.48199 14.387274l1.339212 1.4774 6.286809-5.698774-1.339213-1.4774z" fill="#000000"/><path d="M349.51801 14.387274L343.231203 8.6885l-1.339213 1.4774 6.28681 5.698775z" fill="#000000"/></g><g><path d="M370.53128 14.48256l1.372666 1.44637 6.154773-5.841126-1.372665-1.446372z" fill="#000000"/><path d="M373.46872 14.48256l-6.154774-5.841128-1.372665 1.446372 6.154773 5.841127z" fill="#000000"/></g><g><path d="M394.564857 14.544753l1.394328 1.4255 6.065958-5.93331-1.394328-1.4255z" fill="#000000"/><path d="M397.435143 14.544753l-6.065958-5.93331-1.394328 1.4255 6.065958 5.93331z" fill="#000000"/></g><g><path d="M418.583959 14.579228l1.406275 1.413714 6.015807-5.984151-1.406275-1.413715z" fill="#000000"/><path d="M421.416041 14.579228l-6.015807-5.984152-1.406275 1.413715 6.015807 5.984151z" fill="#000000"/></g><g><path d="M442.59 14.59L444 16l6-6-1.41-1.41z" fill="#000000"/><path d="M445.41 14.59l-6-6L438 10l6 6z" fill="#000000"/></g></svg>