<svg xmlns="http://www.w3.org/2000/svg" viewBox="0 0 456 24" width="456" height="24"><path d="M16.24264 14.656854L10.585787 9 12 7.585786l5.656854 5.656855z" fill="#000000"/><path d="M13.414214 9l-5.656855 5.656854-1.414213-1.414213L12 7.585786zM40.24264 14.700115l-5.656854-5.656854L36 7.629047l5.656854 5.656855z" fill="#000000"/><path d="M37.414214 9.043261l-5.656855 5.656854-1.414213-1.414213L36 7.629047zM64.24264 14.853659l-5.656854-5.656855L60 7.782591l5.656854 5.656854z" fill="#000000"/><path d="M61.414214 9.196804l-5.656855 5.656855-1.414213-1.414214L60 7.782591zM88.24264 15.167487l-5.656854-5.656854L84 8.096419l5.656854 5.656855z" fill="#000000"/><path d="M85.414214 9.510633l-5.656855 5.656854-1.414213-1.414213L84 8.096419zM112.394509 15.590711l-5.808202-5.501344 1.375336-1.45205 5.808202 5.501344z" fill="#000000"/><path d="M109.413693 10.089367l-5.808202 5.501344-1.375336-1.45205 5.808202-5.501345zM136.958763 15.88374l-6.360358-4.852404 1.2131-1.59009 6.36036 4.852405z" fill="#000000"/><path d="M133.401595 11.031336l-6.360358 4.852405-1.213102-1.59009 6.36036-4.852405zM162.007226 15.473556l-7.3249-3.216495.804123-1.831225 7.3249 3.216495z" fill="#000000"/><path d="M157.317674 12.257061l-7.3249 3.216495-.804123-1.831225 7.3249-3.216495zM186.917126 14.009771l-7.98197-.536787.134196-1.995492 7.98197.536787z" fill="#000000"/><path d="M181.064845 13.472984l-7.981971.536787-.134197-1.995492 7.981971-.536787zM211.043814 12.551185l-7.789836 1.821661-.455415-1.947459 7.789836-1.821661z" fill="#000000"/><path d="M204.746022 14.372846l-7.789836-1.821661.455415-1.94746 7.789836 1.821662zM234.773876 11.62492l-7.26219 3.355682-.83892-1.815548 7.26219-3.355682z" fill="#000000"/><path d="M228.488313 14.980602l-7.26219-3.355682.838921-1.815548 7.26219 3.355682z" fill="#000000"/><g><path d="M258.435344 11.092543l-6.738746 4.311532-1.077883-1.684687 6.738746-4.311532z" fill="#000000"/><path d="M252.303402 15.404075l-6.738746-4.311532 1.077883-1.684687 6.738746 4.311532z" fill="#000000"/></g><g><path d="M282.139722 10.799116l-6.31526 4.910956-1.227739-1.578815 6.31526-4.910956z" fill="#000000"/><path d="M276.175538 15.710072l-6.31526-4.910956 1.227739-1.578815 6.31526 4.910956z" fill="#000000"/></g><g><path d="M305.915939 10.651456l-6.00614 5.284533-1.321133-1.501535 6.00614-5.284533z" fill="#000000"/><path d="M300.0902 15.935989l-6.006139-5.284533 1.321133-1.501535 6.00614 5.284533z" fill="#000000"/></g><g><path d="M329.765812 10.596681l-5.802776 5.507067-1.376766-1.450694 5.802776-5.507067z" fill="#000000"/><path d="M324.036964 16.103748l-5.802776-5.507067 1.376766-1.450694 5.802776 5.507067z" fill="#000000"/></g><g><path d="M353.682514 10.604538l-5.691102 5.622397-1.4056-1.422775 5.691103-5.622398z" fill="#000000"/><path d="M348.008588 16.226935l-5.691102-5.622397 1.4056-1.422776 5.691101 5.622398z" fill="#000000"/></g><g><path d="M377.656854 10.657511L372 16.314365l-1.414214-1.414213 5.656855-5.656854z" fill="#000000"/><path d="M372 16.314365l-5.656854-5.656854 1.414213-1.414213 5.656855 5.656854z" fill="#000000"/></g><g><path d="M401.656854 10.715135L396 16.37199l-1.414214-1.414214 5.656855-5.656854z" fill="#000000"/><path d="M396 16.37199l-5.656854-5.656855 1.414213-1.414213 5.656855 5.656854z" fill="#000000"/></g><g><path d="M425.656854 10.747283L420 16.404137l-1.414214-1.414213 5.656855-5.656854z" fill="#000000"/><path d="M420 16.404137l-5.656854-5.656854 1.414213-1.414213 5.656855 5.656854z" fill="#000000"/></g><g><path d="M449.656854 10.75736L444 16.414213 442.585786 15l5.656855-5.656854z" fill="#000000"/><path d="M444 16.414214l-5.656854-5.656855 1.414213-1.414213L445.414214 15z" fill="#000000"/></g></svg>