<svg xmlns="http://www.w3.org/2000/svg" viewBox="0 0 456 24" width="456" height="24"><path d="M8 5l11 7-11 7zM32.065456 4.961988l10.927582 7.074214-.000486.042997-.000487.042997-11.085007 6.824895zM56.2982 4.832845l10.6697 7.32922-.010145.196739-.010146.196738-11.367017 6.192812zM80.788876 4.590897L90.92141 12.41523l-.068109.50644-.068109.506441-11.839657 4.869391zM105.66795 4.24986l9.185868 8.592993-.285551 1.011465-.285551 1.011465-12.323402 2.520611zM131.0179 3.930259l7.766221 9.542356-.855069 1.632637-.85507 1.632638-12.266586-.949527zM156.604943 3.838988l6.127405 10.400628-1.805738 2.06612-1.805737 2.06612-11.127402-4.679648zM182.02009 4.009374l4.65925 10.994002-2.833782 2.124956-2.833784 2.124955-9.248348-7.552798zM207.113326 4.311546l3.493164 11.363309-3.70211 1.921359-3.702111 1.921358-7.28137-9.397267zM231.924497 4.641325l2.591409 11.593242-4.366823 1.606633-4.366822 1.606633-5.540164-10.508342zM256.526598 4.951117l1.892473 11.740218-4.859515 1.271077-4.859516 1.271077-4.098265-11.16326zM280.974336 5.221888l1.349363 11.835833-5.219846.95784-5.219846.957839-2.940791-11.543806zM305.306856 5.448627l.929968 11.897576-5.482273.685786-5.482274.685786-2.0294-11.760046zM329.554047 5.631808l.607826 11.93902-5.671273.461254-5.671274.461255-1.329443-11.88033zM353.732776 5.773597l.368777 11.965304-5.806017.284854-5.806016.284853-.804254-11.943938zM377.858984 5.87777l.196268 11.982965-5.897984.15421-5.897985.154209-.430188-11.976848zM401.940464 5.947964l.083573 11.99281-5.957636.065859-5.957636.06586-.181567-11.991726zM425.98616 5.987188l.019652 11.99899-5.98998.015801-5.989978.015801-.043653-11.998926zM450 6v12h-12V6z" fill="#000000"/></svg>