<svg xmlns="http://www.w3.org/2000/svg" viewBox="0 0 1464 24" width="1464" height="24"><g><defs><clipPath id="clip_frame0_signal_path"><path d="M5 5v14h14V5H5z"/></clipPath><clipPath id="clip_frame0_signal_2_path"><path d="M5 5v14h14V5H5z"/></clipPath><clipPath id="clip_frame0_signal_3_path"><path d="M5 5v14h14V5H5z"/></clipPath></defs><path d="M5 18l3.5-4.5 2.5 3.01L14.5 12l4.5 6H5z" fill="#000000"/><path clip-path="url(#clip_frame0_signal_path)" d="M5 5" fill="#000000"/><path clip-path="url(#clip_frame0_signal_2_path)" d="M5 7c1.107 0 2-.893 2-2" fill="none" stroke="#000000" stroke-width="2"/><path clip-path="url(#clip_frame0_signal_3_path)" d="M5 11c3.32 0 6-2.68 6-6" fill="none" stroke="#000000" stroke-width="2"/></g><g transform="translate(24)"><defs><clipPath id="clip_frame1_signal_path"><path d="M5 5v14h14V5H5z"/></clipPath><clipPath id="clip_frame1_signal_2_path"><path d="M5 5v14h14V5H5z"/></clipPath><clipPath id="clip_frame1_signal_3_path"><path d="M5 5v14h14V5H5z"/></clipPath></defs><path d="M5 18l3.5-4.5 2.5 3.01L14.5 12l4.5 6H5z" fill="#000000"/><path clip-path="url(#clip_frame1_signal_path)" d="M5 5" fill="#000000"/><path clip-path="url(#clip_frame1_signal_2_path)" d="M5 7.067c1.144 0 2.067-.923 2.067-2.067" fill="none" stroke="#000000" stroke-width="2"/><path clip-path="url(#clip_frame1_signal_3_path)" d="M5 11.067c3.357 0 6.067-2.71 6.067-6.067" fill="none" stroke="#000000" stroke-width="2"/></g><g transform="translate(48)"><defs><clipPath id="clip_frame2_signal_path"><path d="M5 5v14h14V5H5z"/></clipPath><clipPath id="clip_frame2_signal_2_path"><path d="M5 5v14h14V5H5z"/></clipPath><clipPath id="clip_frame2_signal_3_path"><path d="M5 5v14h14V5H5z"/></clipPath></defs><path d="M5 18l3.5-4.5 2.5 3.01L14.5 12l4.5 6H5z" fill="#000000"/><path clip-path="url(#clip_frame2_signal_path)" d="M5 5" fill="#000000"/><path clip-path="url(#clip_frame2_signal_2_path)" d="M5 7.133c1.181 0 2.133-.952 2.133-2.133" fill="none" stroke="#000000" stroke-width="2"/><path clip-path="url(#clip_frame2_signal_3_path)" d="M5 11.133c3.394 0 6.133-2.739 6.133-6.133" fill="none" stroke="#000000" stroke-width="2"/></g><g transform="translate(72)"><defs><clipPath id="clip_frame3_signal_path"><path d="M5 5v14h14V5H5z"/></clipPath><clipPath id="clip_frame3_signal_2_path"><path d="M5 5v14h14V5H5z"/></clipPath><clipPath id="clip_frame3_signal_3_path"><path d="M5 5v14h14V5H5z"/></clipPath></defs><path d="M5 18l3.5-4.5 2.5 3.01L14.5 12l4.5 6H5z" fill="#000000"/><path clip-path="url(#clip_frame3_signal_path)" d="M5 5" fill="#000000"/><path clip-path="url(#clip_frame3_signal_2_path)" d="M5 7.2c1.218 0 2.2-.982 2.2-2.2" fill="none" stroke="#000000" stroke-width="2"/><path clip-path="url(#clip_frame3_signal_3_path)" d="M5 11.2c3.431 0 6.2-2.769 6.2-6.2" fill="none" stroke="#000000" stroke-width="2"/></g><g transform="translate(96)"><defs><clipPath id="clip_frame4_signal_path"><path d="M5 5v14h14V5H5z"/></clipPath><clipPath id="clip_frame4_signal_2_path"><path d="M5 5v14h14V5H5z"/></clipPath><clipPath id="clip_frame4_signal_3_path"><path d="M5 5v14h14V5H5z"/></clipPath></defs><path d="M5 18l3.5-4.5 2.5 3.01L14.5 12l4.5 6H5z" fill="#000000"/><path clip-path="url(#clip_frame4_signal_path)" d="M5 5" fill="#000000"/><path clip-path="url(#clip_frame4_signal_2_path)" d="M5 7.267c1.255 0 2.267-1.012 2.267-2.267" fill="none" stroke="#000000" stroke-width="2"/><path clip-path="url(#clip_frame4_signal_3_path)" d="M5 11.267c3.468 0 6.267-2.799 6.267-6.267" fill="none" stroke="#000000" stroke-width="2"/></g><g transform="translate(120)"><defs><clipPath id="clip_frame5_signal_path"><path d="M5 5v14h14V5H5z"/></clipPath><clipPath id="clip_frame5_signal_2_path"><path d="M5 5v14h14V5H5z"/></clipPath><clipPath id="clip_frame5_signal_3_path"><path d="M5 5v14h14V5H5z"/></clipPath></defs><path d="M5 18l3.5-4.5 2.5 3.01L14.5 12l4.5 6H5z" fill="#000000"/><path clip-path="url(#clip_frame5_signal_path)" d="M5 5" fill="#000000"/><path clip-path="url(#clip_frame5_signal_2_path)" d="M5 7.333c1.291 0 2.333-1.042 2.333-2.333" fill="none" stroke="#000000" stroke-width="2"/><path clip-path="url(#clip_frame5_signal_3_path)" d="M5 11.333c3.504 0 6.333-2.829 6.333-6.333" fill="none" stroke="#000000" stroke-width="2"/></g><g transform="translate(144)"><defs><clipPath id="clip_frame6_signal_path"><path d="M5 5v14h14V5H5z"/></clipPath><clipPath id="clip_frame6_signal_2_path"><path d="M5 5v14h14V5H5z"/></clipPath><clipPath id="clip_frame6_signal_3_path"><path d="M5 5v14h14V5H5z"/></clipPath></defs><path d="M5 18l3.5-4.5 2.5 3.01L14.5 12l4.5 6H5z" fill="#000000"/><path clip-path="url(#clip_frame6_signal_path)" d="M5 5" fill="#000000"/><path clip-path="url(#clip_frame6_signal_2_path)" d="M5 7.4c1.328 0 2.4-1.072 2.4-2.4" fill="none" stroke="#000000" stroke-width="2"/><path clip-path="url(#clip_frame6_signal_3_path)" d="M5 11.4c3.541 0 6.4-2.859 6.4-6.4" fill="none" stroke="#000000" stroke-width="2"/></g><g transform="translate(168)"><defs><clipPath id="clip_frame7_signal_path"><path d="M5 5v14h14V5H5z"/></clipPath><clipPath id="clip_frame7_signal_2_path"><path d="M5 5v14h14V5H5z"/></clipPath><clipPath id="clip_frame7_signal_3_path"><path d="M5 5v14h14V5H5z"/></clipPath></defs><path d="M5 18l3.5-4.5 2.5 3.01L14.5 12l4.5 6H5z" fill="#000000"/><path clip-path="url(#clip_frame7_signal_path)" d="M5 5" fill="#000000"/><path clip-path="url(#clip_frame7_signal_2_path)" d="M5 7.467c1.365 0 2.467-1.102 2.467-2.467" fill="none" stroke="#000000" stroke-width="2"/><path clip-path="url(#clip_frame7_signal_3_path)" d="M5 11.467c3.578 0 6.467-2.889 6.467-6.467" fill="none" stroke="#000000" stroke-width="2"/></g><g transform="translate(192)"><defs><clipPath id="clip_frame8_signal_path"><path d="M5 5v14h14V5H5z"/></clipPath><clipPath id="clip_frame8_signal_2_path"><path d="M5 5v14h14V5H5z"/></clipPath><clipPath id="clip_frame8_signal_3_path"><path d="M5 5v14h14V5H5z"/></clipPath></defs><path d="M5 18l3.5-4.5 2.5 3.01L14.5 12l4.5 6H5z" fill="#000000"/><path clip-path="url(#clip_frame8_signal_path)" d="M5 5" fill="#000000"/><path clip-path="url(#clip_frame8_signal_2_path)" d="M5 7.533c1.402 0 2.533-1.131 2.533-2.533" fill="none" stroke="#000000" stroke-width="2"/><path clip-path="url(#clip_frame8_signal_3_path)" d="M5 11.533c3.615 0 6.533-2.918 6.533-6.533" fill="none" stroke="#000000" stroke-width="2"/></g><g transform="translate(216)"><defs><clipPath id="clip_frame9_signal_path"><path d="M5 5v14h14V5H5z"/></clipPath><clipPath id="clip_frame9_signal_2_path"><path d="M5 5v14h14V5H5z"/></clipPath><clipPath id="clip_frame9_signal_3_path"><path d="M5 5v14h14V5H5z"/></clipPath></defs><path d="M5 18l3.5-4.5 2.5 3.01L14.5 12l4.5 6H5z" fill="#000000"/><path clip-path="url(#clip_frame9_signal_path)" d="M5 5" fill="#000000"/><path clip-path="url(#clip_frame9_signal_2_path)" d="M5 7.6c1.439 0 2.6-1.161 2.6-2.6" fill="none" stroke="#000000" stroke-width="2"/><path clip-path="url(#clip_frame9_signal_3_path)" d="M5 11.6c3.652 0 6.6-2.948 6.6-6.6" fill="none" stroke="#000000" stroke-width="2"/></g><g transform="translate(240)"><defs><clipPath id="clip_frame10_signal_path"><path d="M5 5v14h14V5H5z"/></clipPath><clipPath id="clip_frame10_signal_2_path"><path d="M5 5v14h14V5H5z"/></clipPath><clipPath id="clip_frame10_signal_3_path"><path d="M5 5v14h14V5H5z"/></clipPath></defs><path d="M5 18l3.5-4.5 2.5 3.01L14.5 12l4.5 6H5z" fill="#000000"/><path clip-path="url(#clip_frame10_signal_path)" d="M5 5" fill="#000000"/><path clip-path="url(#clip_frame10_signal_2_path)" d="M5 7.667c1.476 0 2.667-1.191 2.667-2.667" fill="none" stroke="#000000" stroke-width="2"/><path clip-path="url(#clip_frame10_signal_3_path)" d="M5 11.667c3.689 0 6.667-2.978 6.667-6.667" fill="none" stroke="#000000" stroke-width="2"/></g><g transform="translate(264)"><defs><clipPath id="clip_frame11_signal_path"><path d="M5 5v14h14V5H5z"/></clipPath><clipPath id="clip_frame11_signal_2_path"><path d="M5 5v14h14V5H5z"/></clipPath><clipPath id="clip_frame11_signal_3_path"><path d="M5 5v14h14V5H5z"/></clipPath></defs><path d="M5 18l3.5-4.5 2.5 3.01L14.5 12l4.5 6H5z" fill="#000000"/><path clip-path="url(#clip_frame11_signal_path)" d="M5 5" fill="#000000"/><path clip-path="url(#clip_frame11_signal_2_path)" d="M5 7.733c1.513 0 2.733-1.22 2.733-2.733" fill="none" stroke="#000000" stroke-width="2"/><path clip-path="url(#clip_frame11_signal_3_path)" d="M5 11.733c3.726 0 6.733-3.007 6.733-6.733" fill="none" stroke="#000000" stroke-width="2"/></g><g transform="translate(288)"><defs><clipPath id="clip_frame12_signal_path"><path d="M5 5v14h14V5H5z"/></clipPath><clipPath id="clip_frame12_signal_2_path"><path d="M5 5v14h14V5H5z"/></clipPath><clipPath id="clip_frame12_signal_3_path"><path d="M5 5v14h14V5H5z"/></clipPath></defs><path d="M5 18l3.5-4.5 2.5 3.01L14.5 12l4.5 6H5z" fill="#000000"/><path clip-path="url(#clip_frame12_signal_path)" d="M5 5" fill="#000000"/><path clip-path="url(#clip_frame12_signal_2_path)" d="M5 7.8c1.55 0 2.8-1.25 2.8-2.8" fill="none" stroke="#000000" stroke-width="2"/><path clip-path="url(#clip_frame12_signal_3_path)" d="M5 11.8c3.763 0 6.8-3.037 6.8-6.8" fill="none" stroke="#000000" stroke-width="2"/></g><g transform="translate(312)"><defs><clipPath id="clip_frame13_signal_path"><path d="M5 5v14h14V5H5z"/></clipPath><clipPath id="clip_frame13_signal_2_path"><path d="M5 5v14h14V5H5z"/></clipPath><clipPath id="clip_frame13_signal_3_path"><path d="M5 5v14h14V5H5z"/></clipPath></defs><path d="M5 18l3.5-4.5 2.5 3.01L14.5 12l4.5 6H5z" fill="#000000"/><path clip-path="url(#clip_frame13_signal_path)" d="M5 5" fill="#000000"/><path clip-path="url(#clip_frame13_signal_2_path)" d="M5 7.867c1.586 0 2.867-1.281 2.867-2.867" fill="none" stroke="#000000" stroke-width="2"/><path clip-path="url(#clip_frame13_signal_3_path)" d="M5 11.867c3.799 0 6.867-3.068 6.867-6.867" fill="none" stroke="#000000" stroke-opacity=".979167" stroke-width="2"/></g><g transform="translate(336)"><defs><clipPath id="clip_frame14_signal_path"><path d="M5 5v14h14V5H5z"/></clipPath><clipPath id="clip_frame14_signal_2_path"><path d="M5 5v14h14V5H5z"/></clipPath><clipPath id="clip_frame14_signal_3_path"><path d="M5 5v14h14V5H5z"/></clipPath></defs><path d="M5 18l3.5-4.5 2.5 3.01L14.5 12l4.5 6H5z" fill="#000000"/><path clip-path="url(#clip_frame14_signal_path)" d="M5 5" fill="#000000"/><path clip-path="url(#clip_frame14_signal_2_path)" d="M5 7.933c1.623 0 2.933-1.31 2.933-2.933" fill="none" stroke="#000000" stroke-width="2"/><path clip-path="url(#clip_frame14_signal_3_path)" d="M5 11.933c3.836 0 6.933-3.097 6.933-6.933" fill="none" stroke="#000000" stroke-opacity=".958333" stroke-width="2"/></g><g transform="translate(360)"><defs><clipPath id="clip_frame15_signal_path"><path d="M5 5v14h14V5H5z"/></clipPath><clipPath id="clip_frame15_signal_2_path"><path d="M5 5v14h14V5H5z"/></clipPath><clipPath id="clip_frame15_signal_3_path"><path d="M5 5v14h14V5H5z"/></clipPath></defs><path d="M5 18l3.5-4.5 2.5 3.01L14.5 12l4.5 6H5z" fill="#000000"/><path clip-path="url(#clip_frame15_signal_path)" d="M5 5" fill="#000000"/><path clip-path="url(#clip_frame15_signal_2_path)" d="M5 8c1.66 0 3-1.34 3-3" fill="none" stroke="#000000" stroke-width="2"/><path clip-path="url(#clip_frame15_signal_3_path)" d="M5 12c3.873 0 7-3.127 7-7" fill="none" stroke="#000000" stroke-opacity=".9375" stroke-width="2"/></g><g transform="translate(384)"><defs><clipPath id="clip_frame16_signal_path"><path d="M5 5v14h14V5H5z"/></clipPath><clipPath id="clip_frame16_signal_2_path"><path d="M5 5v14h14V5H5z"/></clipPath><clipPath id="clip_frame16_signal_3_path"><path d="M5 5v14h14V5H5z"/></clipPath></defs><path d="M5 18l3.5-4.5 2.5 3.01L14.5 12l4.5 6H5z" fill="#000000"/><path clip-path="url(#clip_frame16_signal_path)" d="M5 5" fill="#000000"/><path clip-path="url(#clip_frame16_signal_2_path)" d="M5 8.067c1.697 0 3.067-1.37 3.067-3.067" fill="none" stroke="#000000" stroke-width="2"/><path clip-path="url(#clip_frame16_signal_3_path)" d="M5 12.067c3.91 0 7.067-3.157 7.067-7.067" fill="none" stroke="#000000" stroke-opacity=".916667" stroke-width="2"/></g><g transform="translate(408)"><defs><clipPath id="clip_frame17_signal_path"><path d="M5 5v14h14V5H5z"/></clipPath><clipPath id="clip_frame17_signal_2_path"><path d="M5 5v14h14V5H5z"/></clipPath><clipPath id="clip_frame17_signal_3_path"><path d="M5 5v14h14V5H5z"/></clipPath></defs><path d="M5 18l3.5-4.5 2.5 3.01L14.5 12l4.5 6H5z" fill="#000000"/><path clip-path="url(#clip_frame17_signal_path)" d="M5 5.018c.01 0 .018-.008.018-.018h.037c0 .03-.025.055-.055.055v-.037" fill="#000000"/><path clip-path="url(#clip_frame17_signal_2_path)" d="M5 8.133c1.734 0 3.133-1.399 3.133-3.133" fill="none" stroke="#000000" stroke-width="2"/><path clip-path="url(#clip_frame17_signal_3_path)" d="M5 12.133c3.947 0 7.133-3.186 7.133-7.133" fill="none" stroke="#000000" stroke-opacity=".895833" stroke-width="2"/></g><g transform="translate(432)"><defs><clipPath id="clip_frame18_signal_path"><path d="M5 5v14h14V5H5z"/></clipPath><clipPath id="clip_frame18_signal_2_path"><path d="M5 5v14h14V5H5z"/></clipPath><clipPath id="clip_frame18_signal_3_path"><path d="M5 5v14h14V5H5z"/></clipPath></defs><path d="M5 18l3.5-4.5 2.5 3.01L14.5 12l4.5 6H5z" fill="#000000"/><path clip-path="url(#clip_frame18_signal_path)" d="M5 5.041c.023 0 .041-.018.041-.041h.082c0 .068-.055.123-.123.123v-.082" fill="#000000"/><path clip-path="url(#clip_frame18_signal_2_path)" d="M5 8.2c1.771 0 3.2-1.429 3.2-3.2" fill="none" stroke="#000000" stroke-width="2"/><path clip-path="url(#clip_frame18_signal_3_path)" d="M5 12.2c3.984 0 7.2-3.216 7.2-7.2" fill="none" stroke="#000000" stroke-opacity=".875" stroke-width="2"/></g><g transform="translate(456)"><defs><clipPath id="clip_frame19_signal_path"><path d="M5 5v14h14V5H5z"/></clipPath><clipPath id="clip_frame19_signal_2_path"><path d="M5 5v14h14V5H5z"/></clipPath><clipPath id="clip_frame19_signal_3_path"><path d="M5 5v14h14V5H5z"/></clipPath></defs><path d="M5 18l3.5-4.5 2.5 3.01L14.5 12l4.5 6H5z" fill="#000000"/><path clip-path="url(#clip_frame19_signal_path)" d="M5 5.064c.035 0 .064-.029.064-.064h.128c0 .106-.086.192-.192.192v-.128" fill="#000000"/><path clip-path="url(#clip_frame19_signal_2_path)" d="M5 8.267c1.808 0 3.267-1.459 3.267-3.267" fill="none" stroke="#000000" stroke-width="2"/><path clip-path="url(#clip_frame19_signal_3_path)" d="M5 12.267c4.021 0 7.267-3.246 7.267-7.267" fill="none" stroke="#000000" stroke-opacity=".854167" stroke-width="2"/></g><g transform="translate(480)"><defs><clipPath id="clip_frame20_signal_path"><path d="M5 5v14h14V5H5z"/></clipPath><clipPath id="clip_frame20_signal_2_path"><path d="M5 5v14h14V5H5z"/></clipPath><clipPath id="clip_frame20_signal_3_path"><path d="M5 5v14h14V5H5z"/></clipPath></defs><path d="M5 18l3.5-4.5 2.5 3.01L14.5 12l4.5 6H5z" fill="#000000"/><path clip-path="url(#clip_frame20_signal_path)" d="M5 5.087c.048 0 .087-.039.087-.087h.173c0 .144-.116.26-.26.26v-.173" fill="#000000"/><path clip-path="url(#clip_frame20_signal_2_path)" d="M5 8.333c1.845 0 3.333-1.488 3.333-3.333" fill="none" stroke="#000000" stroke-width="2"/><path clip-path="url(#clip_frame20_signal_3_path)" d="M5 12.333c4.058 0 7.333-3.275 7.333-7.333" fill="none" stroke="#000000" stroke-opacity=".833333" stroke-width="2"/></g><g transform="translate(504)"><defs><clipPath id="clip_frame21_signal_path"><path d="M5 5v14h14V5H5z"/></clipPath><clipPath id="clip_frame21_signal_2_path"><path d="M5 5v14h14V5H5z"/></clipPath><clipPath id="clip_frame21_signal_3_path"><path d="M5 5v14h14V5H5z"/></clipPath></defs><path d="M5 18l3.5-4.5 2.5 3.01L14.5 12l4.5 6H5z" fill="#000000"/><path clip-path="url(#clip_frame21_signal_path)" d="M5 5.11c.061 0 .11-.049.11-.11h.219c0 .182-.147.329-.329.329V5.11" fill="#000000"/><path clip-path="url(#clip_frame21_signal_2_path)" d="M5 8.4c1.882 0 3.4-1.518 3.4-3.4" fill="none" stroke="#000000" stroke-width="2"/><path clip-path="url(#clip_frame21_signal_3_path)" d="M5 12.4c4.095 0 7.4-3.305 7.4-7.4" fill="none" stroke="#000000" stroke-opacity=".8125" stroke-width="2"/></g><g transform="translate(528)"><defs><clipPath id="clip_frame22_signal_path"><path d="M5 5v14h14V5H5z"/></clipPath><clipPath id="clip_frame22_signal_2_path"><path d="M5 5v14h14V5H5z"/></clipPath><clipPath id="clip_frame22_signal_3_path"><path d="M5 5v14h14V5H5z"/></clipPath></defs><path d="M5 18l3.5-4.5 2.5 3.01L14.5 12l4.5 6H5z" fill="#000000"/><path clip-path="url(#clip_frame22_signal_path)" d="M5 5.132c.073 0 .132-.059.132-.132h.265c0 .22-.177.397-.397.397v-.265" fill="#000000"/><path clip-path="url(#clip_frame22_signal_2_path)" d="M5 8.467c1.918 0 3.467-1.549 3.467-3.467" fill="none" stroke="#000000" stroke-width="2"/><path clip-path="url(#clip_frame22_signal_3_path)" d="M5 12.467c4.131 0 7.467-3.336 7.467-7.467" fill="none" stroke="#000000" stroke-opacity=".791667" stroke-width="2"/></g><g transform="translate(552)"><defs><clipPath id="clip_frame23_signal_path"><path d="M5 5v14h14V5H5z"/></clipPath><clipPath id="clip_frame23_signal_2_path"><path d="M5 5v14h14V5H5z"/></clipPath><clipPath id="clip_frame23_signal_3_path"><path d="M5 5v14h14V5H5z"/></clipPath></defs><path d="M5 18l3.5-4.5 2.5 3.01L14.5 12l4.5 6H5z" fill="#000000"/><path clip-path="url(#clip_frame23_signal_path)" d="M5 5.155c.086 0 .155-.069.155-.155h.311c0 .258-.208.466-.466.466v-.311" fill="#000000"/><path clip-path="url(#clip_frame23_signal_2_path)" d="M5 8.533c1.955 0 3.533-1.578 3.533-3.533" fill="none" stroke="#000000" stroke-width="2"/><path clip-path="url(#clip_frame23_signal_3_path)" d="M5 12.533c4.168 0 7.533-3.365 7.533-7.533" fill="none" stroke="#000000" stroke-opacity=".770833" stroke-width="2"/></g><g transform="translate(576)"><defs><clipPath id="clip_frame24_signal_path"><path d="M5 5v14h14V5H5z"/></clipPath><clipPath id="clip_frame24_signal_2_path"><path d="M5 5v14h14V5H5z"/></clipPath><clipPath id="clip_frame24_signal_3_path"><path d="M5 5v14h14V5H5z"/></clipPath></defs><path d="M5 18l3.5-4.5 2.5 3.01L14.5 12l4.5 6H5z" fill="#000000"/><path clip-path="url(#clip_frame24_signal_path)" d="M5 5.178c.098 0 .178-.08.178-.178h.356c0 .296-.238.534-.534.534v-.356" fill="#000000"/><path clip-path="url(#clip_frame24_signal_2_path)" d="M5 8.6c1.992 0 3.6-1.608 3.6-3.6" fill="none" stroke="#000000" stroke-width="2"/><path clip-path="url(#clip_frame24_signal_3_path)" d="M5 12.6c4.205 0 7.6-3.395 7.6-7.6" fill="none" stroke="#000000" stroke-opacity=".75" stroke-width="2"/></g><g transform="translate(600)"><defs><clipPath id="clip_frame25_signal_path"><path d="M5 5v14h14V5H5z"/></clipPath><clipPath id="clip_frame25_signal_2_path"><path d="M5 5v14h14V5H5z"/></clipPath><clipPath id="clip_frame25_signal_3_path"><path d="M5 5v14h14V5H5z"/></clipPath></defs><path d="M5 18l3.5-4.5 2.5 3.01L14.5 12l4.5 6H5z" fill="#000000"/><path clip-path="url(#clip_frame25_signal_path)" d="M5 5.201c.111 0 .201-.09.201-.201h.402c0 .334-.269.603-.603.603v-.402" fill="#000000"/><path clip-path="url(#clip_frame25_signal_2_path)" d="M5 8.667c2.029 0 3.667-1.638 3.667-3.667" fill="none" stroke="#000000" stroke-width="2"/><path clip-path="url(#clip_frame25_signal_3_path)" d="M5 12.667c4.242 0 7.667-3.425 7.667-7.667" fill="none" stroke="#000000" stroke-opacity=".729167" stroke-width="2"/></g><g transform="translate(624)"><defs><clipPath id="clip_frame26_signal_path"><path d="M5 5v14h14V5H5z"/></clipPath><clipPath id="clip_frame26_signal_2_path"><path d="M5 5v14h14V5H5z"/></clipPath><clipPath id="clip_frame26_signal_3_path"><path d="M5 5v14h14V5H5z"/></clipPath></defs><path d="M5 18l3.5-4.5 2.5 3.01L14.5 12l4.5 6H5z" fill="#000000"/><path clip-path="url(#clip_frame26_signal_path)" d="M5 5.224c.124 0 .224-.1.224-.224h.447c0 .371-.3.671-.671.671v-.447" fill="#000000"/><path clip-path="url(#clip_frame26_signal_2_path)" d="M5 8.733c2.066 0 3.733-1.667 3.733-3.733" fill="none" stroke="#000000" stroke-width="2"/><path clip-path="url(#clip_frame26_signal_3_path)" d="M5 12.733c4.279 0 7.733-3.454 7.733-7.733" fill="none" stroke="#000000" stroke-opacity=".708333" stroke-width="2"/></g><g transform="translate(648)"><defs><clipPath id="clip_frame27_signal_path"><path d="M5 5v14h14V5H5z"/></clipPath><clipPath id="clip_frame27_signal_2_path"><path d="M5 5v14h14V5H5z"/></clipPath><clipPath id="clip_frame27_signal_3_path"><path d="M5 5v14h14V5H5z"/></clipPath></defs><path d="M5 18l3.5-4.5 2.5 3.01L14.5 12l4.5 6H5z" fill="#000000"/><path clip-path="url(#clip_frame27_signal_path)" d="M5 5.247c.136 0 .247-.111.247-.247h.493c0 .409-.331.74-.74.74v-.493" fill="#000000"/><path clip-path="url(#clip_frame27_signal_2_path)" d="M5 8.8c2.103 0 3.8-1.697 3.8-3.8" fill="none" stroke="#000000" stroke-width="2"/><path clip-path="url(#clip_frame27_signal_3_path)" d="M5 12.8c4.316 0 7.8-3.484 7.8-7.8" fill="none" stroke="#000000" stroke-opacity=".6875" stroke-width="2"/></g><g transform="translate(672)"><defs><clipPath id="clip_frame28_signal_path"><path d="M5 5v14h14V5H5z"/></clipPath><clipPath id="clip_frame28_signal_2_path"><path d="M5 5v14h14V5H5z"/></clipPath><clipPath id="clip_frame28_signal_3_path"><path d="M5 5v14h14V5H5z"/></clipPath></defs><path d="M5 18l3.5-4.5 2.5 3.01L14.5 12l4.5 6H5z" fill="#000000"/><path clip-path="url(#clip_frame28_signal_path)" d="M5 5.269c.149 0 .269-.12.269-.269h.539c0 .447-.361.808-.808.808v-.539" fill="#000000"/><path clip-path="url(#clip_frame28_signal_2_path)" d="M5 8.867C7.14 8.867 8.867 7.14 8.867 5" fill="none" stroke="#000000" stroke-width="2"/><path clip-path="url(#clip_frame28_signal_3_path)" d="M5 12.867c4.353 0 7.867-3.514 7.867-7.867" fill="none" stroke="#000000" stroke-opacity=".666667" stroke-width="2"/></g><g transform="translate(696)"><defs><clipPath id="clip_frame29_signal_path"><path d="M5 5v14h14V5H5z"/></clipPath><clipPath id="clip_frame29_signal_2_path"><path d="M5 5v14h14V5H5z"/></clipPath><clipPath id="clip_frame29_signal_3_path"><path d="M5 5v14h14V5H5z"/></clipPath></defs><path d="M5 18l3.5-4.5 2.5 3.01L14.5 12l4.5 6H5z" fill="#000000"/><path clip-path="url(#clip_frame29_signal_path)" d="M5 5.292c.162 0 .292-.13.292-.292h.585c0 .485-.392.877-.877.877v-.585" fill="#000000"/><path clip-path="url(#clip_frame29_signal_2_path)" d="M5 8.933c2.177 0 3.933-1.756 3.933-3.933" fill="none" stroke="#000000" stroke-width="2"/><path clip-path="url(#clip_frame29_signal_3_path)" d="M5 12.933c4.39 0 7.933-3.543 7.933-7.933" fill="none" stroke="#000000" stroke-opacity=".645833" stroke-width="2"/></g><g transform="translate(720)"><defs><clipPath id="clip_frame30_signal_path"><path d="M5 5v14h14V5H5z"/></clipPath><clipPath id="clip_frame30_signal_2_path"><path d="M5 5v14h14V5H5z"/></clipPath><clipPath id="clip_frame30_signal_3_path"><path d="M5 5v14h14V5H5z"/></clipPath></defs><path d="M5 18l3.5-4.5 2.5 3.01L14.5 12l4.5 6H5z" fill="#000000"/><path clip-path="url(#clip_frame30_signal_path)" d="M5 5.315c.174 0 .315-.141.315-.315h.63c0 .523-.422.945-.945.945v-.63" fill="#000000"/><path clip-path="url(#clip_frame30_signal_2_path)" d="M5 9c2.213 0 4-1.787 4-4" fill="none" stroke="#000000" stroke-width="2"/><path clip-path="url(#clip_frame30_signal_3_path)" d="M5 13c4.427 0 8-3.573 8-8" fill="none" stroke="#000000" stroke-opacity=".625" stroke-width="2"/></g><g transform="translate(744)"><defs><clipPath id="clip_frame31_signal_path"><path d="M5 5v14h14V5H5z"/></clipPath><clipPath id="clip_frame31_signal_2_path"><path d="M5 5v14h14V5H5z"/></clipPath><clipPath id="clip_frame31_signal_3_path"><path d="M5 5v14h14V5H5z"/></clipPath></defs><path d="M5 18l3.5-4.5 2.5 3.01L14.5 12l4.5 6H5z" fill="#000000"/><path clip-path="url(#clip_frame31_signal_path)" d="M5 5.338c.187 0 .338-.151.338-.338h.676c0 .561-.453 1.014-1.014 1.014v-.676" fill="#000000"/><path clip-path="url(#clip_frame31_signal_2_path)" d="M5 9.067C7.25 9.067 9.067 7.25 9.067 5" fill="none" stroke="#000000" stroke-width="2"/><path clip-path="url(#clip_frame31_signal_3_path)" d="M5 13.067c4.463 0 8.067-3.604 8.067-8.067" fill="none" stroke="#000000" stroke-opacity=".604167" stroke-width="2"/></g><g transform="translate(768)"><defs><clipPath id="clip_frame32_signal_path"><path d="M5 5v14h14V5H5z"/></clipPath><clipPath id="clip_frame32_signal_2_path"><path d="M5 5v14h14V5H5z"/></clipPath><clipPath id="clip_frame32_signal_3_path"><path d="M5 5v14h14V5H5z"/></clipPath></defs><path d="M5 18l3.5-4.5 2.5 3.01L14.5 12l4.5 6H5z" fill="#000000"/><path clip-path="url(#clip_frame32_signal_path)" d="M5 5.361c.199 0 .361-.162.361-.361h.721c0 .599-.483 1.082-1.082 1.082v-.721" fill="#000000"/><path clip-path="url(#clip_frame32_signal_2_path)" d="M5 9.133c2.287 0 4.133-1.846 4.133-4.133" fill="none" stroke="#000000" stroke-width="2"/><path clip-path="url(#clip_frame32_signal_3_path)" d="M5 13.133c4.5 0 8.133-3.633 8.133-8.133" fill="none" stroke="#000000" stroke-opacity=".583333" stroke-width="2"/></g><g transform="translate(792)"><defs><clipPath id="clip_frame33_signal_path"><path d="M5 5v14h14V5H5z"/></clipPath><clipPath id="clip_frame33_signal_2_path"><path d="M5 5v14h14V5H5z"/></clipPath><clipPath id="clip_frame33_signal_3_path"><path d="M5 5v14h14V5H5z"/></clipPath></defs><path d="M5 18l3.5-4.5 2.5 3.01L14.5 12l4.5 6H5z" fill="#000000"/><path clip-path="url(#clip_frame33_signal_path)" d="M5 5.384c.212 0 .384-.172.384-.384h.767c0 .637-.514 1.151-1.151 1.151v-.767" fill="#000000"/><path clip-path="url(#clip_frame33_signal_2_path)" d="M5 9.2c2.324 0 4.2-1.876 4.2-4.2" fill="none" stroke="#000000" stroke-width="2"/><path clip-path="url(#clip_frame33_signal_3_path)" d="M5 13.2c4.537 0 8.2-3.663 8.2-8.2" fill="none" stroke="#000000" stroke-opacity=".5625" stroke-width="2"/></g><g transform="translate(816)"><defs><clipPath id="clip_frame34_signal_path"><path d="M5 5v14h14V5H5z"/></clipPath><clipPath id="clip_frame34_signal_2_path"><path d="M5 5v14h14V5H5z"/></clipPath><clipPath id="clip_frame34_signal_3_path"><path d="M5 5v14h14V5H5z"/></clipPath></defs><path d="M5 18l3.5-4.5 2.5 3.01L14.5 12l4.5 6H5z" fill="#000000"/><path clip-path="url(#clip_frame34_signal_path)" d="M5 5.406c.225 0 .406-.181.406-.406h.813c0 .675-.544 1.219-1.219 1.219v-.813" fill="#000000"/><path clip-path="url(#clip_frame34_signal_2_path)" d="M5 9.267c2.361 0 4.267-1.906 4.267-4.267" fill="none" stroke="#000000" stroke-width="2"/><path clip-path="url(#clip_frame34_signal_3_path)" d="M5 13.267c4.574 0 8.267-3.693 8.267-8.267" fill="none" stroke="#000000" stroke-opacity=".541667" stroke-width="2"/></g><g transform="translate(840)"><defs><clipPath id="clip_frame35_signal_path"><path d="M5 5v14h14V5H5z"/></clipPath><clipPath id="clip_frame35_signal_2_path"><path d="M5 5v14h14V5H5z"/></clipPath><clipPath id="clip_frame35_signal_3_path"><path d="M5 5v14h14V5H5z"/></clipPath></defs><path d="M5 18l3.5-4.5 2.5 3.01L14.5 12l4.5 6H5z" fill="#000000"/><path clip-path="url(#clip_frame35_signal_path)" d="M5 5.429c.237 0 .429-.192.429-.429h.859c0 .713-.575 1.288-1.288 1.288v-.859" fill="#000000"/><path clip-path="url(#clip_frame35_signal_2_path)" d="M5 9.333c2.398 0 4.333-1.935 4.333-4.333" fill="none" stroke="#000000" stroke-width="2"/><path clip-path="url(#clip_frame35_signal_3_path)" d="M5 13.333c4.611 0 8.333-3.722 8.333-8.333" fill="none" stroke="#000000" stroke-opacity=".520833" stroke-width="2"/></g><g transform="translate(864)"><defs><clipPath id="clip_frame36_signal_path"><path d="M5 5v14h14V5H5z"/></clipPath><clipPath id="clip_frame36_signal_2_path"><path d="M5 5v14h14V5H5z"/></clipPath><clipPath id="clip_frame36_signal_3_path"><path d="M5 5v14h14V5H5z"/></clipPath></defs><path d="M5 18l3.5-4.5 2.5 3.01L14.5 12l4.5 6H5z" fill="#000000"/><path clip-path="url(#clip_frame36_signal_path)" d="M5 5.452c.25 0 .452-.202.452-.452h.904c0 .75-.606 1.356-1.356 1.356v-.904" fill="#000000"/><path clip-path="url(#clip_frame36_signal_2_path)" d="M5 9.4c2.435 0 4.4-1.965 4.4-4.4" fill="none" stroke="#000000" stroke-width="2"/><path clip-path="url(#clip_frame36_signal_3_path)" d="M5 13.4c4.648 0 8.4-3.752 8.4-8.4" fill="none" stroke="#000000" stroke-opacity=".5" stroke-width="2"/></g><g transform="translate(888)"><defs><clipPath id="clip_frame37_signal_path"><path d="M5 5v14h14V5H5z"/></clipPath><clipPath id="clip_frame37_signal_2_path"><path d="M5 5v14h14V5H5z"/></clipPath><clipPath id="clip_frame37_signal_3_path"><path d="M5 5v14h14V5H5z"/></clipPath></defs><path d="M5 18l3.5-4.5 2.5 3.01L14.5 12l4.5 6H5z" fill="#000000"/><path clip-path="url(#clip_frame37_signal_path)" d="M5 5.475c.263 0 .475-.212.475-.475h.95c0 .788-.637 1.425-1.425 1.425v-.95" fill="#000000"/><path clip-path="url(#clip_frame37_signal_2_path)" d="M5 9.467c2.472 0 4.467-1.995 4.467-4.467" fill="none" stroke="#000000" stroke-width="2"/><path clip-path="url(#clip_frame37_signal_3_path)" d="M5 13.467c4.685 0 8.467-3.782 8.467-8.467" fill="none" stroke="#000000" stroke-opacity=".479167" stroke-width="2"/></g><g transform="translate(912)"><defs><clipPath id="clip_frame38_signal_path"><path d="M5 5v14h14V5H5z"/></clipPath><clipPath id="clip_frame38_signal_2_path"><path d="M5 5v14h14V5H5z"/></clipPath><clipPath id="clip_frame38_signal_3_path"><path d="M5 5v14h14V5H5z"/></clipPath></defs><path d="M5 18l3.5-4.5 2.5 3.01L14.5 12l4.5 6H5z" fill="#000000"/><path clip-path="url(#clip_frame38_signal_path)" d="M5 5.498c.275 0 .498-.223.498-.498h.995c0 .826-.667 1.493-1.493 1.493v-.995" fill="#000000"/><path clip-path="url(#clip_frame38_signal_2_path)" d="M5 9.533c2.509 0 4.533-2.024 4.533-4.533" fill="none" stroke="#000000" stroke-width="2"/><path clip-path="url(#clip_frame38_signal_3_path)" d="M5 13.533c4.722 0 8.533-3.811 8.533-8.533" fill="none" stroke="#000000" stroke-opacity=".458333" stroke-width="2"/></g><g transform="translate(936)"><defs><clipPath id="clip_frame39_signal_path"><path d="M5 5v14h14V5H5z"/></clipPath><clipPath id="clip_frame39_signal_2_path"><path d="M5 5v14h14V5H5z"/></clipPath><clipPath id="clip_frame39_signal_3_path"><path d="M5 5v14h14V5H5z"/></clipPath></defs><path d="M5 18l3.5-4.5 2.5 3.01L14.5 12l4.5 6H5z" fill="#000000"/><path clip-path="url(#clip_frame39_signal_path)" d="M5 5.521c.288 0 .521-.233.521-.521h1.041c0 .864-.698 1.562-1.562 1.562V5.521" fill="#000000"/><path clip-path="url(#clip_frame39_signal_2_path)" d="M5 9.6c2.545 0 4.6-2.055 4.6-4.6" fill="none" stroke="#000000" stroke-width="2"/><path clip-path="url(#clip_frame39_signal_3_path)" d="M5 13.6c4.758 0 8.6-3.842 8.6-8.6" fill="none" stroke="#000000" stroke-opacity=".4375" stroke-width="2"/></g><g transform="translate(960)"><defs><clipPath id="clip_frame40_signal_path"><path d="M5 5v14h14V5H5z"/></clipPath><clipPath id="clip_frame40_signal_2_path"><path d="M5 5v14h14V5H5z"/></clipPath><clipPath id="clip_frame40_signal_3_path"><path d="M5 5v14h14V5H5z"/></clipPath></defs><path d="M5 18l3.5-4.5 2.5 3.01L14.5 12l4.5 6H5z" fill="#000000"/><path clip-path="url(#clip_frame40_signal_path)" d="M5 5.543c.3 0 .543-.243.543-.543H6.63c0 .902-.728 1.63-1.63 1.63V5.543" fill="#000000"/><path clip-path="url(#clip_frame40_signal_2_path)" d="M5 9.667c2.582 0 4.667-2.085 4.667-4.667" fill="none" stroke="#000000" stroke-width="2"/><path clip-path="url(#clip_frame40_signal_3_path)" d="M5 13.667c4.795 0 8.667-3.872 8.667-8.667" fill="none" stroke="#000000" stroke-opacity=".416667" stroke-width="2"/></g><g transform="translate(984)"><defs><clipPath id="clip_frame41_signal_path"><path d="M5 5v14h14V5H5z"/></clipPath><clipPath id="clip_frame41_signal_2_path"><path d="M5 5v14h14V5H5z"/></clipPath><clipPath id="clip_frame41_signal_3_path"><path d="M5 5v14h14V5H5z"/></clipPath></defs><path d="M5 18l3.5-4.5 2.5 3.01L14.5 12l4.5 6H5z" fill="#000000"/><path clip-path="url(#clip_frame41_signal_path)" d="M5 5.566c.313 0 .566-.253.566-.566h1.133c0 .94-.759 1.699-1.699 1.699V5.566" fill="#000000"/><path clip-path="url(#clip_frame41_signal_2_path)" d="M5 9.733c2.619 0 4.733-2.114 4.733-4.733" fill="none" stroke="#000000" stroke-width="2"/><path clip-path="url(#clip_frame41_signal_3_path)" d="M5 13.733c4.832 0 8.733-3.901 8.733-8.733" fill="none" stroke="#000000" stroke-opacity=".395833" stroke-width="2"/></g><g transform="translate(1008)"><defs><clipPath id="clip_frame42_signal_path"><path d="M5 5v14h14V5H5z"/></clipPath><clipPath id="clip_frame42_signal_2_path"><path d="M5 5v14h14V5H5z"/></clipPath><clipPath id="clip_frame42_signal_3_path"><path d="M5 5v14h14V5H5z"/></clipPath></defs><path d="M5 18l3.5-4.5 2.5 3.01L14.5 12l4.5 6H5z" fill="#000000"/><path clip-path="url(#clip_frame42_signal_path)" d="M5 5.589c.326 0 .589-.263.589-.589h1.178c0 .978-.789 1.767-1.767 1.767V5.589" fill="#000000"/><path clip-path="url(#clip_frame42_signal_2_path)" d="M5 9.8c2.656 0 4.8-2.144 4.8-4.8" fill="none" stroke="#000000" stroke-width="2"/><path clip-path="url(#clip_frame42_signal_3_path)" d="M5 13.8c4.869 0 8.8-3.931 8.8-8.8" fill="none" stroke="#000000" stroke-opacity=".375" stroke-width="2"/></g><g transform="translate(1032)"><defs><clipPath id="clip_frame43_signal_path"><path d="M5 5v14h14V5H5z"/></clipPath><clipPath id="clip_frame43_signal_2_path"><path d="M5 5v14h14V5H5z"/></clipPath><clipPath id="clip_frame43_signal_3_path"><path d="M5 5v14h14V5H5z"/></clipPath></defs><path d="M5 18l3.5-4.5 2.5 3.01L14.5 12l4.5 6H5z" fill="#000000"/><path clip-path="url(#clip_frame43_signal_path)" d="M5 5.612c.338 0 .612-.274.612-.612h1.224c0 1.016-.82 1.836-1.836 1.836V5.612" fill="#000000"/><path clip-path="url(#clip_frame43_signal_2_path)" d="M5 9.867c2.693 0 4.867-2.174 4.867-4.867" fill="none" stroke="#000000" stroke-width="2"/><path clip-path="url(#clip_frame43_signal_3_path)" d="M5 13.867c4.906 0 8.867-3.961 8.867-8.867" fill="none" stroke="#000000" stroke-opacity=".354167" stroke-width="2"/></g><g transform="translate(1056)"><defs><clipPath id="clip_frame44_signal_path"><path d="M5 5v14h14V5H5z"/></clipPath><clipPath id="clip_frame44_signal_2_path"><path d="M5 5v14h14V5H5z"/></clipPath><clipPath id="clip_frame44_signal_3_path"><path d="M5 5v14h14V5H5z"/></clipPath></defs><path d="M5 18l3.5-4.5 2.5 3.01L14.5 12l4.5 6H5z" fill="#000000"/><path clip-path="url(#clip_frame44_signal_path)" d="M5 5.635c.351 0 .635-.284.635-.635h1.269c0 1.054-.85 1.904-1.904 1.904V5.635" fill="#000000"/><path clip-path="url(#clip_frame44_signal_2_path)" d="M5 9.933C7.73 9.933 9.933 7.73 9.933 5" fill="none" stroke="#000000" stroke-width="2"/><path clip-path="url(#clip_frame44_signal_3_path)" d="M5 13.933c4.943 0 8.933-3.99 8.933-8.933" fill="none" stroke="#000000" stroke-opacity=".333333" stroke-width="2"/></g><g transform="translate(1080)"><defs><clipPath id="clip_frame45_signal_path"><path d="M5 5v14h14V5H5z"/></clipPath><clipPath id="clip_frame45_signal_2_path"><path d="M5 5v14h14V5H5z"/></clipPath><clipPath id="clip_frame45_signal_3_path"><path d="M5 5v14h14V5H5z"/></clipPath></defs><path d="M5 18l3.5-4.5 2.5 3.01L14.5 12l4.5 6H5z" fill="#000000"/><path clip-path="url(#clip_frame45_signal_path)" d="M5 5.658c.364 0 .658-.294.658-.658h1.315c0 1.092-.881 1.973-1.973 1.973V5.658" fill="#000000"/><path clip-path="url(#clip_frame45_signal_2_path)" d="M5 10c2.767 0 5-2.233 5-5" fill="none" stroke="#000000" stroke-width="2"/><path clip-path="url(#clip_frame45_signal_3_path)" d="M5 14c4.98 0 9-4.02 9-9" fill="none" stroke="#000000" stroke-opacity=".3125" stroke-width="2"/></g><g transform="translate(1104)"><defs><clipPath id="clip_frame46_signal_path"><path d="M5 5v14h14V5H5z"/></clipPath><clipPath id="clip_frame46_signal_2_path"><path d="M5 5v14h14V5H5z"/></clipPath><clipPath id="clip_frame46_signal_3_path"><path d="M5 5v14h14V5H5z"/></clipPath></defs><path d="M5 18l3.5-4.5 2.5 3.01L14.5 12l4.5 6H5z" fill="#000000"/><path clip-path="url(#clip_frame46_signal_path)" d="M5 5.68c.376 0 .68-.304.68-.68h1.361c0 1.129-.912 2.041-2.041 2.041V5.68" fill="#000000"/><path clip-path="url(#clip_frame46_signal_2_path)" d="M5 10.067c2.804 0 5.067-2.263 5.067-5.067" fill="none" stroke="#000000" stroke-width="2"/><path clip-path="url(#clip_frame46_signal_3_path)" d="M5 14.067c5.017 0 9.067-4.05 9.067-9.067" fill="none" stroke="#000000" stroke-opacity=".291667" stroke-width="2"/></g><g transform="translate(1128)"><defs><clipPath id="clip_frame47_signal_path"><path d="M5 5v14h14V5H5z"/></clipPath><clipPath id="clip_frame47_signal_2_path"><path d="M5 5v14h14V5H5z"/></clipPath><clipPath id="clip_frame47_signal_3_path"><path d="M5 5v14h14V5H5z"/></clipPath></defs><path d="M5 18l3.5-4.5 2.5 3.01L14.5 12l4.5 6H5z" fill="#000000"/><path clip-path="url(#clip_frame47_signal_path)" d="M5 5.703c.389 0 .703-.314.703-.703H7.11c0 1.167-.943 2.11-2.11 2.11V5.703" fill="#000000"/><path clip-path="url(#clip_frame47_signal_2_path)" d="M5 10.133c2.841 0 5.133-2.292 5.133-5.133" fill="none" stroke="#000000" stroke-width="2"/><path clip-path="url(#clip_frame47_signal_3_path)" d="M5 14.133c5.054 0 9.133-4.079 9.133-9.133" fill="none" stroke="#000000" stroke-opacity=".270833" stroke-width="2"/></g><g transform="translate(1152)"><defs><clipPath id="clip_frame48_signal_path"><path d="M5 5v14h14V5H5z"/></clipPath><clipPath id="clip_frame48_signal_2_path"><path d="M5 5v14h14V5H5z"/></clipPath><clipPath id="clip_frame48_signal_3_path"><path d="M5 5v14h14V5H5z"/></clipPath></defs><path d="M5 18l3.5-4.5 2.5 3.01L14.5 12l4.5 6H5z" fill="#000000"/><path clip-path="url(#clip_frame48_signal_path)" d="M5 5.726c.401 0 .726-.325.726-.726h1.452c0 1.205-.973 2.178-2.178 2.178V5.726" fill="#000000"/><path clip-path="url(#clip_frame48_signal_2_path)" d="M5 10.2c2.877 0 5.2-2.323 5.2-5.2" fill="none" stroke="#000000" stroke-width="2"/><path clip-path="url(#clip_frame48_signal_3_path)" d="M5 14.2c5.09 0 9.2-4.11 9.2-9.2" fill="none" stroke="#000000" stroke-opacity=".25" stroke-width="2"/></g><g transform="translate(1176)"><defs><clipPath id="clip_frame49_signal_path"><path d="M5 5v14h14V5H5z"/></clipPath><clipPath id="clip_frame49_signal_2_path"><path d="M5 5v14h14V5H5z"/></clipPath><clipPath id="clip_frame49_signal_3_path"><path d="M5 5v14h14V5H5z"/></clipPath></defs><path d="M5 18l3.5-4.5 2.5 3.01L14.5 12l4.5 6H5z" fill="#000000"/><path clip-path="url(#clip_frame49_signal_path)" d="M5 5.749c.414 0 .749-.335.749-.749h1.498c0 1.243-1.004 2.247-2.247 2.247V5.749" fill="#000000"/><path clip-path="url(#clip_frame49_signal_2_path)" d="M5 10.267c2.914 0 5.267-2.353 5.267-5.267" fill="none" stroke="#000000" stroke-width="2"/><path clip-path="url(#clip_frame49_signal_3_path)" d="M5 14.267c5.127 0 9.267-4.14 9.267-9.267" fill="none" stroke="#000000" stroke-opacity=".229167" stroke-width="2"/></g><g transform="translate(1200)"><defs><clipPath id="clip_frame50_signal_path"><path d="M5 5v14h14V5H5z"/></clipPath><clipPath id="clip_frame50_signal_2_path"><path d="M5 5v14h14V5H5z"/></clipPath><clipPath id="clip_frame50_signal_3_path"><path d="M5 5v14h14V5H5z"/></clipPath></defs><path d="M5 18l3.5-4.5 2.5 3.01L14.5 12l4.5 6H5z" fill="#000000"/><path clip-path="url(#clip_frame50_signal_path)" d="M5 5.772c.427 0 .772-.345.772-.772h1.543c0 1.281-1.034 2.315-2.315 2.315V5.772" fill="#000000"/><path clip-path="url(#clip_frame50_signal_2_path)" d="M5 10.333c2.951 0 5.333-2.382 5.333-5.333" fill="none" stroke="#000000" stroke-width="2"/><path clip-path="url(#clip_frame50_signal_3_path)" d="M5 14.333c5.164 0 9.333-4.169 9.333-9.333" fill="none" stroke="#000000" stroke-opacity=".208333" stroke-width="2"/></g><g transform="translate(1224)"><defs><clipPath id="clip_frame51_signal_path"><path d="M5 5v14h14V5H5z"/></clipPath><clipPath id="clip_frame51_signal_2_path"><path d="M5 5v14h14V5H5z"/></clipPath><clipPath id="clip_frame51_signal_3_path"><path d="M5 5v14h14V5H5z"/></clipPath></defs><path d="M5 18l3.5-4.5 2.5 3.01L14.5 12l4.5 6H5z" fill="#000000"/><path clip-path="url(#clip_frame51_signal_path)" d="M5 5.795c.439 0 .795-.356.795-.795h1.589c0 1.319-1.065 2.384-2.384 2.384V5.795" fill="#000000"/><path clip-path="url(#clip_frame51_signal_2_path)" d="M5 10.4c2.988 0 5.4-2.412 5.4-5.4" fill="none" stroke="#000000" stroke-width="2"/><path clip-path="url(#clip_frame51_signal_3_path)" d="M5 14.4c5.201 0 9.4-4.199 9.4-9.4" fill="none" stroke="#000000" stroke-opacity=".1875" stroke-width="2"/></g><g transform="translate(1248)"><defs><clipPath id="clip_frame52_signal_path"><path d="M5 5v14h14V5H5z"/></clipPath><clipPath id="clip_frame52_signal_2_path"><path d="M5 5v14h14V5H5z"/></clipPath><clipPath id="clip_frame52_signal_3_path"><path d="M5 5v14h14V5H5z"/></clipPath></defs><path d="M5 18l3.5-4.5 2.5 3.01L14.5 12l4.5 6H5z" fill="#000000"/><path clip-path="url(#clip_frame52_signal_path)" d="M5 5.817c.452 0 .817-.365.817-.817h1.635c0 1.357-1.095 2.452-2.452 2.452V5.817" fill="#000000"/><path clip-path="url(#clip_frame52_signal_2_path)" d="M5 10.467c3.025 0 5.467-2.442 5.467-5.467" fill="none" stroke="#000000" stroke-width="2"/><path clip-path="url(#clip_frame52_signal_3_path)" d="M5 14.467c5.238 0 9.467-4.229 9.467-9.467" fill="none" stroke="#000000" stroke-opacity=".166667" stroke-width="2"/></g><g transform="translate(1272)"><defs><clipPath id="clip_frame53_signal_path"><path d="M5 5v14h14V5H5z"/></clipPath><clipPath id="clip_frame53_signal_2_path"><path d="M5 5v14h14V5H5z"/></clipPath><clipPath id="clip_frame53_signal_3_path"><path d="M5 5v14h14V5H5z"/></clipPath></defs><path d="M5 18l3.5-4.5 2.5 3.01L14.5 12l4.5 6H5z" fill="#000000"/><path clip-path="url(#clip_frame53_signal_path)" d="M5 5.84c.465 0 .84-.375.84-.84h1.681c0 1.395-1.126 2.521-2.521 2.521V5.84" fill="#000000"/><path clip-path="url(#clip_frame53_signal_2_path)" d="M5 10.533c3.062 0 5.533-2.471 5.533-5.533" fill="none" stroke="#000000" stroke-width="2"/><path clip-path="url(#clip_frame53_signal_3_path)" d="M5 14.533c5.275 0 9.533-4.258 9.533-9.533" fill="none" stroke="#000000" stroke-opacity=".145833" stroke-width="2"/></g><g transform="translate(1296)"><defs><clipPath id="clip_frame54_signal_path"><path d="M5 5v14h14V5H5z"/></clipPath><clipPath id="clip_frame54_signal_2_path"><path d="M5 5v14h14V5H5z"/></clipPath><clipPath id="clip_frame54_signal_3_path"><path d="M5 5v14h14V5H5z"/></clipPath></defs><path d="M5 18l3.5-4.5 2.5 3.01L14.5 12l4.5 6H5z" fill="#000000"/><path clip-path="url(#clip_frame54_signal_path)" d="M5 5.863c.477 0 .863-.386.863-.863h1.726c0 1.433-1.156 2.589-2.589 2.589V5.863" fill="#000000"/><path clip-path="url(#clip_frame54_signal_2_path)" d="M5 10.6c3.099 0 5.6-2.501 5.6-5.6" fill="none" stroke="#000000" stroke-width="2"/><path clip-path="url(#clip_frame54_signal_3_path)" d="M5 14.6c5.312 0 9.6-4.288 9.6-9.6" fill="none" stroke="#000000" stroke-opacity=".125" stroke-width="2"/></g><g transform="translate(1320)"><defs><clipPath id="clip_frame55_signal_path"><path d="M5 5v14h14V5H5z"/></clipPath><clipPath id="clip_frame55_signal_2_path"><path d="M5 5v14h14V5H5z"/></clipPath><clipPath id="clip_frame55_signal_3_path"><path d="M5 5v14h14V5H5z"/></clipPath></defs><path d="M5 18l3.5-4.5 2.5 3.01L14.5 12l4.5 6H5z" fill="#000000"/><path clip-path="url(#clip_frame55_signal_path)" d="M5 5.886c.49 0 .886-.396.886-.886h1.772c0 1.471-1.187 2.658-2.658 2.658V5.886" fill="#000000"/><path clip-path="url(#clip_frame55_signal_2_path)" d="M5 10.667c3.136 0 5.667-2.531 5.667-5.667" fill="none" stroke="#000000" stroke-width="2"/><path clip-path="url(#clip_frame55_signal_3_path)" d="M5 14.667c5.349 0 9.667-4.318 9.667-9.667" fill="none" stroke="#000000" stroke-opacity=".104167" stroke-width="2"/></g><g transform="translate(1344)"><defs><clipPath id="clip_frame56_signal_path"><path d="M5 5v14h14V5H5z"/></clipPath><clipPath id="clip_frame56_signal_2_path"><path d="M5 5v14h14V5H5z"/></clipPath><clipPath id="clip_frame56_signal_3_path"><path d="M5 5v14h14V5H5z"/></clipPath></defs><path d="M5 18l3.5-4.5 2.5 3.01L14.5 12l4.5 6H5z" fill="#000000"/><path clip-path="url(#clip_frame56_signal_path)" d="M5 5.909c.502 0 .909-.407.909-.909h1.817c0 1.508-1.218 2.726-2.726 2.726V5.909" fill="#000000"/><path clip-path="url(#clip_frame56_signal_2_path)" d="M5 10.733c3.172 0 5.733-2.561 5.733-5.733" fill="none" stroke="#000000" stroke-width="2"/><path clip-path="url(#clip_frame56_signal_3_path)" d="M5 14.733c5.385 0 9.733-4.348 9.733-9.733" fill="none" stroke="#000000" stroke-opacity=".083333" stroke-width="2"/></g><g transform="translate(1368)"><defs><clipPath id="clip_frame57_signal_path"><path d="M5 5v14h14V5H5z"/></clipPath><clipPath id="clip_frame57_signal_2_path"><path d="M5 5v14h14V5H5z"/></clipPath><clipPath id="clip_frame57_signal_3_path"><path d="M5 5v14h14V5H5z"/></clipPath></defs><path d="M5 18l3.5-4.5 2.5 3.01L14.5 12l4.5 6H5z" fill="#000000"/><path clip-path="url(#clip_frame57_signal_path)" d="M5 5.932c.515 0 .932-.417.932-.932h1.863c0 1.546-1.249 2.795-2.795 2.795V5.932" fill="#000000"/><path clip-path="url(#clip_frame57_signal_2_path)" d="M5 10.8c3.209 0 5.8-2.591 5.8-5.8" fill="none" stroke="#000000" stroke-width="2"/><path clip-path="url(#clip_frame57_signal_3_path)" d="M5 14.8c5.422 0 9.8-4.378 9.8-9.8" fill="none" stroke="#000000" stroke-opacity=".0625" stroke-width="2"/></g><g transform="translate(1392)"><defs><clipPath id="clip_frame58_signal_path"><path d="M5 5v14h14V5H5z"/></clipPath><clipPath id="clip_frame58_signal_2_path"><path d="M5 5v14h14V5H5z"/></clipPath><clipPath id="clip_frame58_signal_3_path"><path d="M5 5v14h14V5H5z"/></clipPath></defs><path d="M5 18l3.5-4.5 2.5 3.01L14.5 12l4.5 6H5z" fill="#000000"/><path clip-path="url(#clip_frame58_signal_path)" d="M5 5.954c.528 0 .954-.426.954-.954h1.909c0 1.584-1.279 2.863-2.863 2.863V5.954" fill="#000000"/><path clip-path="url(#clip_frame58_signal_2_path)" d="M5 10.867c3.246 0 5.867-2.621 5.867-5.867" fill="none" stroke="#000000" stroke-width="2"/><path clip-path="url(#clip_frame58_signal_3_path)" d="M5 14.867c5.459 0 9.867-4.408 9.867-9.867" fill="none" stroke="#000000" stroke-opacity=".041667" stroke-width="2"/></g><g transform="translate(1416)"><defs><clipPath id="clip_frame59_signal_path"><path d="M5 5v14h14V5H5z"/></clipPath><clipPath id="clip_frame59_signal_2_path"><path d="M5 5v14h14V5H5z"/></clipPath><clipPath id="clip_frame59_signal_3_path"><path d="M5 5v14h14V5H5z"/></clipPath></defs><path d="M5 18l3.5-4.5 2.5 3.01L14.5 12l4.5 6H5z" fill="#000000"/><path clip-path="url(#clip_frame59_signal_path)" d="M5 5.977c.54 0 .977-.437.977-.977h1.955c0 1.622-1.31 2.932-2.932 2.932V5.977" fill="#000000"/><path clip-path="url(#clip_frame59_signal_2_path)" d="M5 10.933c3.283 0 5.933-2.65 5.933-5.933" fill="none" stroke="#000000" stroke-width="2"/><path clip-path="url(#clip_frame59_signal_3_path)" d="M5 14.933c5.496 0 9.933-4.437 9.933-9.933" fill="none" stroke="#000000" stroke-opacity=".020833" stroke-width="2"/></g><g transform="translate(1440)"><defs><clipPath id="clip_frame60_signal_path"><path d="M5 5v14h14V5H5z"/></clipPath><clipPath id="clip_frame60_signal_2_path"><path d="M5 5v14h14V5H5z"/></clipPath><clipPath id="clip_frame60_signal_3_path"><path d="M5 5v14h14V5H5z"/></clipPath></defs><path d="M5 18l3.5-4.5 2.5 3.01L14.5 12l4.5 6H5z" fill="#000000"/><path clip-path="url(#clip_frame60_signal_path)" d="M5 6c.553 0 1-.447 1-1h2c0 1.66-1.34 3-3 3V6" fill="#000000"/><path clip-path="url(#clip_frame60_signal_2_path)" d="M5 11c3.32 0 6-2.68 6-6" fill="none" stroke="#000000" stroke-width="2"/><path clip-path="url(#clip_frame60_signal_3_path)" d="M5 15c5.533 0 10-4.467 10-10" fill="none"/></g></svg>