<svg xmlns="http://www.w3.org/2000/svg" viewBox="0 0 744 24" width="744" height="24"><g><defs><clipPath id="clip_frame0_group"><path d="M20.86 3.93c-1.46-1.46-4.2-1.1-6.12.81-1.59 1.59-2.09 3.74-1.38 5.27L0 23.47V0h24v.99z"/></clipPath><clipPath id="clip_frame0_group_1"><path d="M14.98 11.63c1.53.71 3.68.21 5.27-1.38 1.91-1.91 2.28-4.65.81-6.12l3.04-3.04V24.1H2.49l2.72-2.72z"/></clipPath></defs><path d="M14.88 11.53c1.53.71 3.68.21 5.27-1.38 1.91-1.91 2.28-4.65.81-6.12-1.46-1.46-4.2-1.1-6.12.81-1.59 1.59-2.09 3.74-1.38 5.27L3.7 19.87l1.41 1.41z" fill="#000000"/><g clip-path="url(#clip_frame0_group)"><path d="M8.1 13.34l2.83-2.83L3.91 3.5c-1.56 1.56-1.56 4.09 0 5.66l4.19 4.18z" fill="#000000"/></g><g clip-path="url(#clip_frame0_group_1)"><path d="M12 14.41l6.88 6.88 1.41-1.41L13.41 13z" fill="#000000"/></g></g><g transform="translate(24)"><defs><clipPath id="clip_frame1_group"><path d="M20.86 3.93c-1.46-1.46-4.2-1.1-6.12.81-1.59 1.59-2.09 3.74-1.38 5.27L0 23.47V0h24v.99z"/></clipPath><clipPath id="clip_frame1_group_1"><path d="M14.98 11.63c1.53.71 3.68.21 5.27-1.38 1.91-1.91 2.28-4.65.81-6.12l3.04-3.04V24.1H2.49l2.72-2.72z"/></clipPath></defs><path d="M14.884433 11.558019c1.523026.72484 3.677784.245763 5.283166-1.328706 1.928477-1.891342 2.325095-4.627616.869454-6.111836-1.445738-1.474124-4.189109-1.140777-6.127585.750469-1.605381 1.574468-2.126258 3.719506-1.431164 5.256336l-9.854416 9.664662 1.396227 1.42364z" fill="#000000"/><g clip-path="url(#clip_frame1_group)" transform="rotate(.557 12 12)"><path d="M8.11321 13.377849l2.802356-2.857377-7.087812-6.941428c-1.544762 1.575091-1.520168 4.104972.05502 5.659733l4.230436 4.139072z" fill="#000000"/></g><g clip-path="url(#clip_frame1_group_1)" transform="rotate(.557 12 12)"><path d="M12.023428 14.409886l6.946555 6.812795 1.396227-1.42364-6.946556-6.812795z" fill="#000000"/></g></g><g transform="translate(48)"><defs><clipPath id="clip_frame2_group"><path d="M20.86 3.93c-1.46-1.46-4.2-1.1-6.12.81-1.59 1.59-2.09 3.74-1.38 5.27L0 23.47V0h24v.99z"/></clipPath><clipPath id="clip_frame2_group_1"><path d="M14.98 11.63c1.53.71 3.68.21 5.27-1.38 1.91-1.91 2.28-4.65.81-6.12l3.04-3.04V24.1H2.49l2.72-2.72z"/></clipPath></defs><path d="M14.89712 11.65072c1.499005.773294 3.668015.363544 5.323048-1.158647 1.98812-1.828545 2.472258-4.550696 1.06495-6.08082-1.397736-1.519717-4.150383-1.274491-6.148495.553635-1.655033 1.522192-2.24441 3.649428-1.598945 5.207752L3.378484 19.516406l1.349868 1.46767z" fill="#000000"/><g clip-path="url(#clip_frame2_group)" transform="rotate(2.3942 12 12)"><path d="M8.159382 13.501749l2.709309-2.94575L3.561983 3.84537c-1.49347 1.623806-1.387783 4.151598.23644 5.65506l4.360959 4.001318z" fill="#000000"/></g><g clip-path="url(#clip_frame2_group_1)" transform="rotate(2.3942 12 12)"><path d="M12.100675 14.407896l7.1614 6.58659 1.349868-1.46767-7.1614-6.58659z" fill="#000000"/></g></g><g transform="translate(72)"><defs><clipPath id="clip_frame3_group"><path d="M20.86 3.93c-1.46-1.46-4.2-1.1-6.12.81-1.59 1.59-2.09 3.74-1.38 5.27L0 23.47V0h24v.99z"/></clipPath><clipPath id="clip_frame3_group_1"><path d="M14.98 11.63c1.53.71 3.68.21 5.27-1.38 1.91-1.91 2.28-4.65.81-6.12l3.04-3.04V24.1H2.49l2.72-2.72z"/></clipPath></defs><path d="M14.912812 11.824423c1.45013.861467 3.639744.58203 5.38276-.838567 2.09381-1.706504 2.73971-4.39487 1.426328-6.006337-1.304448-1.600505-4.066828-1.520167-6.170588.185323-1.743015 1.420598-2.458425 3.508824-1.90721 5.102926L2.944838 18.987913l1.259775 1.545693z" fill="#000000"/><g clip-path="url(#clip_frame3_group)" transform="rotate(5.8192 12 12)"><path d="M8.255959 13.728513l2.528485-3.102348L3.08988 4.36404c-1.393794 1.710129-1.137279 4.227091.573864 5.630833l4.592215 3.733639z" fill="#000000"/></g><g clip-path="url(#clip_frame3_group_1)" transform="rotate(5.8192 12 12)"><path d="M12.244348 14.39758l7.542105 6.146989 1.259775-1.545693-7.542105-6.146988z" fill="#000000"/></g></g><g transform="translate(96)"><defs><clipPath id="clip_frame4_group"><path d="M20.86 3.93c-1.46-1.46-4.2-1.1-6.12.81-1.59 1.59-2.09 3.74-1.38 5.27L0 23.47V0h24v.99z"/></clipPath><clipPath id="clip_frame4_group_1"><path d="M14.98 11.63c1.53.71 3.68.21 5.27-1.38 1.91-1.91 2.28-4.65.81-6.12l3.04-3.04V24.1H2.49l2.72-2.72z"/></clipPath></defs><path d="M14.916381 12.100099c1.362358.994475 3.568572.922927 5.437875-.326836 2.245514-1.501287 3.142242-4.1167 1.9868-5.844923-1.14758-1.716466-3.905214-1.897182-6.160537-.397842-1.869303 1.249763-2.778593 3.261153-2.380278 4.90016L2.325779 18.10216l1.10828 1.657684z" fill="#000000"/><g clip-path="url(#clip_frame4_group)" transform="rotate(11.2344 12 12)"><path d="M8.435795 14.074136l2.22442-3.327124L2.409017 5.239c-1.226182 1.834032-.733278 4.315553 1.102703 5.551544l4.924076 3.283592z" fill="#000000"/></g><g clip-path="url(#clip_frame4_group_1)" transform="rotate(11.2344 12 12)"><path d="M12.469525 14.36382l8.088555 5.40778 1.10828-1.657684-8.088554-5.40778z" fill="#000000"/></g></g><g transform="translate(120)"><defs><clipPath id="clip_frame5_group"><path d="M20.86 3.93c-1.46-1.46-4.2-1.1-6.12.81-1.59 1.59-2.09 3.74-1.38 5.27L0 23.47V0h24v.99z"/></clipPath><clipPath id="clip_frame5_group_1"><path d="M14.98 11.63c1.53.71 3.68.21 5.27-1.38 1.91-1.91 2.28-4.65.81-6.12l3.04-3.04V24.1H2.49l2.72-2.72z"/></clipPath></defs><path d="M14.87482 12.500707c1.21245 1.172589 3.407502 1.4055 5.431082.425028 2.430842-1.177799 3.679149-3.644827 2.772675-5.515684-.900307-1.85813-3.606791-2.416828-6.04708-1.242309-2.02358.980472-3.20116 2.847502-3.032318 4.525743L1.577708 16.711976l.869474 1.794496z" fill="#000000"/><g clip-path="url(#clip_frame5_group)" transform="rotate(19.1487 12 12)"><path d="M8.755335 14.545142l1.745116-3.601718-8.931016-4.319427c-.961972 1.9854-.132078 4.375415 1.856602 5.346834l5.329298 2.574311z" fill="#000000"/></g><g clip-path="url(#clip_frame5_group_1)" transform="rotate(19.1487 12 12)"><path d="M12.790532 14.276655l8.75612 4.242544.869474-1.794496-8.75612-4.242543z" fill="#000000"/></g></g><g transform="translate(144)"><defs><clipPath id="clip_frame6_group"><path d="M20.86 3.93c-1.46-1.46-4.2-1.1-6.12.81-1.59 1.59-2.09 3.74-1.38 5.27L0 23.47V0h24v.99z"/></clipPath><clipPath id="clip_frame6_group_1"><path d="M14.98 11.63c1.53.71 3.68.21 5.27-1.38 1.91-1.91 2.28-4.65.81-6.12l3.04-3.04V24.1H2.49l2.72-2.72z"/></clipPath></defs><path d="M14.726657 13.03954c.966692 1.38221 3.077094 2.029283 5.25047 1.452537 2.610785-.692821 4.30648-2.876652 3.773262-4.886-.529591-1.995679-3.079944-3.060056-5.699378-2.372256-2.173376.576746-3.685267 2.185064-3.839436 3.864716L.8706 14.638817l.511454 1.927334z" fill="#000000"/><g clip-path="url(#clip_frame6_group)" transform="rotate(30.138 12 12)"><path d="M9.300002 15.116987l1.026536-3.868336L.735898 8.71091c-.565864 2.13237.70441 4.32036 2.8418 4.894873l5.722304 1.511205z" fill="#000000"/></g><g clip-path="url(#clip_frame6_group_1)" transform="rotate(30.138 12 12)"><path d="M13.210024 14.084212l9.404294 2.495608.511455-1.927334-9.404294-2.495607z" fill="#000000"/></g></g><g transform="translate(168)"><defs><clipPath id="clip_frame7_group"><path d="M20.86 3.93c-1.46-1.46-4.2-1.1-6.12.81-1.59 1.59-2.09 3.74-1.38 5.27L0 23.47V0h24v.99z"/></clipPath><clipPath id="clip_frame7_group_1"><path d="M14.98 11.63c1.53.71 3.68.21 5.27-1.38 1.91-1.91 2.28-4.65.81-6.12l3.04-3.04V24.1H2.49l2.72-2.72z"/></clipPath></defs><path d="M14.379056 13.68979c.589383 1.580388 2.470229 2.735776 4.718787 2.722196 2.701099-.016313 4.89004-1.705407 4.877484-3.784263-.01247-2.064714-2.214625-3.73436-4.922837-3.725074-2.248558.01358-4.11531 1.191602-4.685562 2.778994l-13.802472.083361.012042 1.994005z" fill="#000000"/><g clip-path="url(#clip_frame7_group)" transform="rotate(44.654 12 12)"><path d="M10.167462 15.69424l.024171-4.002152-9.92057-.052845c-.013324 2.206133 1.76482 4.005885 3.97798 4.026323l5.91842.028673z" fill="#000000"/></g><g clip-path="url(#clip_frame7_group_1)" transform="rotate(44.654 12 12)"><path d="M13.693804 13.714388l9.729612.058763.012043-1.994005-9.729612-.058763z" fill="#000000"/></g></g><g transform="translate(192)"><defs><clipPath id="clip_frame8_group"><path d="M20.86 3.93c-1.46-1.46-4.2-1.1-6.12.81-1.59 1.59-2.09 3.74-1.38 5.27L0 23.47V0h24v.99z"/></clipPath><clipPath id="clip_frame8_group_1"><path d="M14.98 11.63c1.53.71 3.68.21 5.27-1.38 1.91-1.91 2.28-4.65.81-6.12l3.04-3.04V24.1H2.49l2.72-2.72z"/></clipPath></defs><path d="M13.744199 14.33946c.074873 1.68505 1.509322 3.362803 3.653116 4.041292 2.57525.81504 5.177519-.11914 5.804801-2.101138.623015-1.968515-.959047-4.23441-3.538905-5.058325-2.143794-.67849-4.282335-.13155-5.313066 1.203587L1.190755 8.260064l-.601679 1.9011z" fill="#000000"/><g clip-path="url(#clip_frame8_group)" transform="rotate(62.562 12 12)"><path d="M11.392191 16.078746l-1.207624-3.815684-9.456178 3.0002c.665687 2.103346 2.911088 3.269139 5.023308 2.60806l5.640494-1.792576z" fill="#000000"/></g><g clip-path="url(#clip_frame8_group_1)" transform="rotate(62.562 12 12)"><path d="M14.1389 13.110499l9.276291-2.935852-.601679-1.9011-9.27629 2.935851z" fill="#000000"/></g></g><g transform="translate(216)"><defs><clipPath id="clip_frame9_group"><path d="M20.86 3.93c-1.46-1.46-4.2-1.1-6.12.81-1.59 1.59-2.09 3.74-1.38 5.27L0 23.47V0h24v.99z"/></clipPath><clipPath id="clip_frame9_group_1"><path d="M14.98 11.63c1.53.71 3.68.21 5.27-1.38 1.91-1.91 2.28-4.65.81-6.12l3.04-3.04V24.1H2.49l2.72-2.72z"/></clipPath></defs><path d="M12.83499 14.796085c-.508195 1.608334.263052 3.676589 2.043599 5.049852 2.138896 1.649643 4.903719 1.665666 6.17334.0195 1.260983-1.634968.553018-4.306295-1.587159-5.965856-1.780547-1.373263-3.976879-1.59378-5.403344-.69367L3.13178 4.77632l-1.2178 1.578975z" fill="#000000"/><g clip-path="url(#clip_frame9_group)" transform="rotate(82.6415 12 12)"><path d="M12.829465 16.039503l-2.444236-3.16915-7.851366 6.064368c1.347353 1.746952 3.856517 2.070986 5.613386.724914l4.682216-3.620132z" fill="#000000"/></g><g clip-path="url(#clip_frame9_group_1)" transform="rotate(82.6415 12 12)"><path d="M14.390152 12.308665l7.704506-5.94217-1.2178-1.578976-7.704506 5.94217z" fill="#000000"/></g></g><g transform="translate(240)"><defs><clipPath id="clip_frame10_group"><path d="M20.86 3.93c-1.46-1.46-4.2-1.1-6.12.81-1.59 1.59-2.09 3.74-1.38 5.27L0 23.47V0h24v.99z"/></clipPath><clipPath id="clip_frame10_group_1"><path d="M14.98 11.63c1.53.71 3.68.21 5.27-1.38 1.91-1.91 2.28-4.65.81-6.12l3.04-3.04V24.1H2.49l2.72-2.72z"/></clipPath></defs><path d="M11.81611 14.912299c-1.033225 1.333208-1.025125 3.540567.170388 5.445022 1.436119 2.287742 4.024673 3.25928 5.785396 2.153994 1.748745-1.097767 2.008655-3.849066.574765-6.146556-1.195513-1.904455-3.179935-2.871187-4.829714-2.52015L6.17845 2.154368 4.489594 3.21454z" fill="#000000"/><g clip-path="url(#clip_frame10_group)" transform="rotate(102.8816 12 12)"><path d="M14.175733 15.50311l-3.38969-2.127862-5.268554 8.40612c1.868522 1.172955 4.334848.608923 5.517553-1.261828l3.140691-5.01643z" fill="#000000"/></g><g clip-path="url(#clip_frame10_group_1)" transform="rotate(102.8816 12 12)"><path d="M14.349347 11.46272l5.173037-8.24066-1.688857-1.060173-5.173037 8.240661z" fill="#000000"/></g></g><g transform="translate(264)"><defs><clipPath id="clip_frame11_group"><path d="M20.86 3.93c-1.46-1.46-4.2-1.1-6.12.81-1.59 1.59-2.09 3.74-1.38 5.27L0 23.47V0h24v.99z"/></clipPath><clipPath id="clip_frame11_group_1"><path d="M14.98 11.63c1.53.71 3.68.21 5.27-1.38 1.91-1.91 2.28-4.65.81-6.12l3.04-3.04V24.1H2.49l2.72-2.72z"/></clipPath></defs><path d="M10.891116 14.6992c-1.406464.931051-2.10726 3.024227-1.586247 5.211633.625873 2.627638 2.765654 4.37859 4.787973 3.896898 2.008561-.478415 3.13777-3.000734 2.517137-5.63689-.521014-2.187405-2.090167-3.739906-3.76533-3.93695L9.646473.806796l-1.939775.462032z" fill="#000000"/><g clip-path="url(#clip_frame11_group)" transform="rotate(121.6025 12 12)"><path d="M15.184972 14.619457l-3.893307-.92734-2.29181 9.652363c2.146134.511184 4.300946-.814593 4.820647-2.965967l1.36447-5.759056z" fill="#000000"/></g><g clip-path="url(#clip_frame11_group_1)" transform="rotate(121.6025 12 12)"><path d="M14.052608 10.737106l2.25445-9.465002-1.939774-.462031-2.254451 9.465001z" fill="#000000"/></g></g><g transform="translate(288)"><defs><clipPath id="clip_frame12_group"><path d="M20.86 3.93c-1.46-1.46-4.2-1.1-6.12.81-1.59 1.59-2.09 3.74-1.38 5.27L0 23.47V0h24v.99z"/></clipPath><clipPath id="clip_frame12_group_1"><path d="M14.98 11.63c1.53.71 3.68.21 5.27-1.38 1.91-1.91 2.28-4.65.81-6.12l3.04-3.04V24.1H2.49l2.72-2.72z"/></clipPath></defs><path d="M10.171898 14.274499c-1.612602.494482-2.877656 2.303387-2.997644 4.548783-.144136 2.6973 1.411973 4.982693 3.487905 5.093625 2.06181.110178 3.859296-1.988928 4.01087-4.692911.119988-2.245396-.945086-4.178817-2.495808-4.842338l.736528-13.78306-1.9912-.106404z" fill="#000000"/><g clip-path="url(#clip_frame12_group)" transform="rotate(138.0588 12 12)"><path d="M15.796555 13.609899l-3.996523.213563.53644 9.906196c2.20303-.117723 3.894-1.999617 3.78296-4.210085l-.322877-5.909674z" fill="#000000"/></g><g clip-path="url(#clip_frame12_group_1)" transform="rotate(138.0588 12 12)"><path d="M13.610765 10.207366L13.091573.49144l-1.9912.106405.519192 9.715927z" fill="#000000"/></g></g><g transform="translate(312)"><defs><clipPath id="clip_frame13_group"><path d="M20.86 3.93c-1.46-1.46-4.2-1.1-6.12.81-1.59 1.59-2.09 3.74-1.38 5.27L0 23.47V0h24v.99z"/></clipPath><clipPath id="clip_frame13_group_1"><path d="M14.98 11.63c1.53.71 3.68.21 5.27-1.38 1.91-1.91 2.28-4.65.81-6.12l3.04-3.04V24.1H2.49l2.72-2.72z"/></clipPath></defs><path d="M9.67178 13.759173c-1.684536.085682-3.353051 1.530866-4.017772 3.678969-.7985 2.580425.152356 5.176648 2.138338 5.791201 1.972472.610372 4.22817-.986195 5.035515-3.571285.664721-2.148103.104073-4.283091-1.23765-5.305236l4.080297-13.18584-1.904921-.589469z" fill="#000000"/><g clip-path="url(#clip_frame13_group)" transform="rotate(152.1944 12 12)"><path d="M16.074762 12.633965l-3.823353 1.183119 2.939469 9.475232c2.107573-.652179 3.287748-2.890054 2.640234-5.006472l-1.75635-5.65188z" fill="#000000"/></g><g clip-path="url(#clip_frame13_group_1)" transform="rotate(152.1944 12 12)"><path d="M13.124199 9.868269L10.247924.573333l-1.904922.589469 2.876275 9.294936z" fill="#000000"/></g></g><g transform="translate(336)"><defs><clipPath id="clip_frame14_group"><path d="M20.86 3.93c-1.46-1.46-4.2-1.1-6.12.81-1.59 1.59-2.09 3.74-1.38 5.27L0 23.47V0h24v.99z"/></clipPath><clipPath id="clip_frame14_group_1"><path d="M14.98 11.63c1.53.71 3.68.21 5.27-1.38 1.91-1.91 2.28-4.65.81-6.12l3.04-3.04V24.1H2.49l2.72-2.72z"/></clipPath></defs><path d="M9.355864 13.234441c-1.665314-.267826-3.598736.797246-4.697198 2.75928-1.319536 2.35691-.931548 5.094421.88241 6.10998 1.801616 1.008652 4.340885-.081904 5.670046-2.44153 1.098462-1.962034.99581-4.16702-.103-5.446713l6.742762-12.043686-1.739918-.974108z" fill="#000000"/><g clip-path="url(#clip_frame14_group)" transform="rotate(164.2427 12 12)"><path d="M16.117335 11.769455L12.62516 13.72458l4.85253 8.652944c1.925016-1.077736 2.612072-3.51266 1.53705-5.4473l-2.897405-5.160769z" fill="#000000"/></g><g clip-path="url(#clip_frame14_group_1)" transform="rotate(164.2427 12 12)"><path d="M12.654468 9.680567L7.901374 1.190756l-1.739918.974108 4.753095 8.48981z" fill="#000000"/></g></g><g transform="translate(360)"><defs><clipPath id="clip_frame15_group"><path d="M20.86 3.93c-1.46-1.46-4.2-1.1-6.12.81-1.59 1.59-2.09 3.74-1.38 5.27L0 23.47V0h24v.99z"/></clipPath><clipPath id="clip_frame15_group_1"><path d="M14.98 11.63c1.53.71 3.68.21 5.27-1.38 1.91-1.91 2.28-4.65.81-6.12l3.04-3.04V24.1H2.49l2.72-2.72z"/></clipPath></defs><path d="M9.17829 12.743808c-1.590994-.560123-3.68319.143596-5.113514 1.878638-1.718188 2.084234-1.82393 4.84708-.219834 6.169455 1.593184 1.31338 4.286079.69248 6.014221-1.39271 1.430325-1.735043 1.722004-3.923061.868661-5.377986l8.779853-10.650323-1.538622-1.268401z" fill="#000000"/><g clip-path="url(#clip_frame15_group)" transform="rotate(174.5013 12 12)"><path d="M16.010457 11.039877L12.9223 13.585674l6.315975 7.650422c1.702306-1.403337 1.944739-3.921695.54236-5.633955l-3.770178-4.562264z" fill="#000000"/></g><g clip-path="url(#clip_frame15_group_1)" transform="rotate(174.5013 12 12)"><path d="M12.230934 9.60109L6.041857 2.093485 4.503235 3.361886l6.189077 7.507605z" fill="#000000"/></g></g><g transform="translate(384)"><defs><clipPath id="clip_frame16_group"><path d="M20.86 3.93c-1.46-1.46-4.2-1.1-6.12.81-1.59 1.59-2.09 3.74-1.38 5.27L0 23.47V0h24v.99z"/></clipPath><clipPath id="clip_frame16_group_1"><path d="M14.98 11.63c1.53.71 3.68.21 5.27-1.38 1.91-1.91 2.28-4.65.81-6.12l3.04-3.04V24.1H2.49l2.72-2.72z"/></clipPath></defs><path d="M9.098001 12.306111c-1.487326-.795525-3.662196-.418112-5.339707 1.079272-2.015123 1.798743-2.539733 4.513386-1.15536 6.064292 1.374956 1.540356 4.130949 1.336138 6.156056-.46204 1.67751-1.497383 2.298492-3.615609 1.676297-5.18337L20.732461 4.61278l-1.327869-1.487604z" fill="#000000"/><g clip-path="url(#clip_frame16_group)" transform="rotate(183.2472 12 12)"><path d="M15.817836 10.44124L13.15268 13.427l7.405803 6.601105c1.46913-1.64586 1.325822-4.171797-.320604-5.650912l-4.420044-3.935951z" fill="#000000"/></g><g clip-path="url(#clip_frame16_group_1)" transform="rotate(183.2472 12 12)"><path d="M11.863488 9.59387L4.604825 3.114624 3.276957 4.60223l7.258663 6.479244z" fill="#000000"/></g></g><g transform="translate(408)"><defs><clipPath id="clip_frame17_group"><path d="M20.86 3.93c-1.46-1.46-4.2-1.1-6.12.81-1.59 1.59-2.09 3.74-1.38 5.27L0 23.47V0h24v.99z"/></clipPath><clipPath id="clip_frame17_group_1"><path d="M14.98 11.63c1.53.71 3.68.21 5.27-1.38 1.91-1.91 2.28-4.65.81-6.12l3.04-3.04V24.1H2.49l2.72-2.72z"/></clipPath></defs><path d="M9.08283 11.926392c-1.371333-.982062-3.576807-.89048-5.434682.376208-2.231787 1.52162-3.104725 4.145068-1.933636 5.862726 1.163123 1.705974 3.922284 1.861637 6.163897.341877 1.857875-1.266689 2.74886-3.286254 2.335677-4.921576L21.618402 5.81023l-1.12329-1.64755z" fill="#000000"/><g clip-path="url(#clip_frame17_group)" transform="rotate(190.714 12 12)"><path d="M15.582896 9.95832l-2.254546 3.306784 8.200835 5.582723c1.242789-1.822821.772442-4.308716-1.052238-5.56133l-4.894051-3.328178z" fill="#000000"/></g><g clip-path="url(#clip_frame17_group_1)" transform="rotate(190.714 12 12)"><path d="M11.551962 9.632013L3.512854 4.150997l-1.12329 1.64755 8.039108 5.481016z" fill="#000000"/></g></g><g transform="translate(432)"><defs><clipPath id="clip_frame18_group"><path d="M20.86 3.93c-1.46-1.46-4.2-1.1-6.12.81-1.59 1.59-2.09 3.74-1.38 5.27L0 23.47V0h24v.99z"/></clipPath><clipPath id="clip_frame18_group_1"><path d="M14.98 11.63c1.53.71 3.68.21 5.27-1.38 1.91-1.91 2.28-4.65.81-6.12l3.04-3.04V24.1H2.49l2.72-2.72z"/></clipPath></defs><path d="M9.109067 11.60275c-1.253737-1.128336-3.455731-1.282349-5.442834-.229911-2.387022 1.264248-3.54602 3.774472-2.573012 5.611605.96639 1.824634 3.691175 2.285876 6.087755 1.024567 1.987103-1.052437 3.096945-2.960512 2.868004-4.631615l12.197559-6.460244-.933293-1.762147z" fill="#000000"/><g clip-path="url(#clip_frame18_group)" transform="rotate(197.0928 12 12)"><path d="M15.333885 9.5729l-1.873206 3.536793 8.770305 4.63705c1.03258-1.94961.288963-4.36786-1.663586-5.409997L15.333885 9.5729z" fill="#000000"/></g><g clip-path="url(#clip_frame18_group_1)" transform="rotate(197.0928 12 12)"><path d="M11.291653 9.69645l-8.59828-4.553943-.933293 1.762148 8.59828 4.553942z" fill="#000000"/></g></g><g transform="translate(456)"><defs><clipPath id="clip_frame19_group"><path d="M20.86 3.93c-1.46-1.46-4.2-1.1-6.12.81-1.59 1.59-2.09 3.74-1.38 5.27L0 23.47V0h24v.99z"/></clipPath><clipPath id="clip_frame19_group_1"><path d="M14.98 11.63c1.53.71 3.68.21 5.27-1.38 1.91-1.91 2.28-4.65.81-6.12l3.04-3.04V24.1H2.49l2.72-2.72z"/></clipPath></defs><path d="M9.159807 11.33022c-1.14101-1.242214-3.318454-1.604482-5.396457-.745352-2.496217 1.032036-3.888183 3.420954-3.093893 5.342127.788886 1.908103 3.457609 2.625822 5.963062 1.597618 2.078003-.85913 3.363897-2.65328 3.294562-4.338567l12.75554-5.273652-.76187-1.842757z" fill="#000000"/><g clip-path="url(#clip_frame19_group)" transform="rotate(202.5378 12 12)"><path d="M15.08853 9.267496l-1.529142 3.698584 9.170746 3.783902c.84292-2.038795-.126813-4.37557-2.169441-5.227726l-5.472162-2.25476z" fill="#000000"/></g><g clip-path="url(#clip_frame19_group_1)" transform="rotate(202.5378 12 12)"><path d="M11.076263 9.77406l-8.99161-3.717492-.76187 1.842757 8.99161 3.717492z" fill="#000000"/></g></g><g transform="translate(480)"><defs><clipPath id="clip_frame20_group"><path d="M20.86 3.93c-1.46-1.46-4.2-1.1-6.12.81-1.59 1.59-2.09 3.74-1.38 5.27L0 23.47V0h24v.99z"/></clipPath><clipPath id="clip_frame20_group_1"><path d="M14.98 11.63c1.53.71 3.68.21 5.27-1.38 1.91-1.91 2.28-4.65.81-6.12l3.04-3.04V24.1H2.49l2.72-2.72z"/></clipPath></defs><path d="M9.223246 11.102817C8.186388 9.772432 6.045355 9.23533 3.904702 9.923667c-2.571475.826871-4.152 3.095448-3.515613 5.074542.632058 1.96563 3.234028 2.896733 5.8144 2.07443 2.140652-.688338 3.567373-2.372668 3.634498-4.058045L22.978092 8.78933l-.610413-1.898315z" fill="#000000"/><g clip-path="url(#clip_frame20_group)" transform="rotate(207.1746 12 12)"><path d="M14.857534 9.02677l-1.225154 3.81009 9.446614 3.030178c.67535-2.100262-.480108-4.351-2.584938-5.035245l-5.636522-1.805024z" fill="#000000"/></g><g clip-path="url(#clip_frame20_group_1)" transform="rotate(207.1746 12 12)"><path d="M10.899346 9.856017L1.63665 6.877552l-.610412 1.898314 9.262696 2.978466z" fill="#000000"/></g></g><g transform="translate(504)"><defs><clipPath id="clip_frame21_group"><path d="M20.86 3.93c-1.46-1.46-4.2-1.1-6.12.81-1.59 1.59-2.09 3.74-1.38 5.27L0 23.47V0h24v.99z"/></clipPath><clipPath id="clip_frame21_group_1"><path d="M14.98 11.63c1.53.71 3.68.21 5.27-1.38 1.91-1.91 2.28-4.65.81-6.12l3.04-3.04V24.1H2.49l2.72-2.72z"/></clipPath></defs><path d="M9.29128 10.914582c-.943223-1.398332-3.042401-2.080937-5.225203-1.54096-2.622109.648653-4.354426 2.803549-3.855201 4.821611.495828 2.004334 3.02785 3.11161 5.65852 2.468125 2.182803-.539978 3.721628-2.122545 3.904127-3.799355l13.398835-3.314578-.239424-.967846-.239424-.967846-13.40223 3.30085" fill="#000000"/><g clip-path="url(#clip_frame21_group)" transform="rotate(211.1052 12 12)"><path d="M14.646998 8.83788l-.961091 3.885113 9.63211 2.375489c.52979-2.141617-.777238-4.307854-2.924021-4.846205L14.646998 8.83788z" fill="#000000"/></g><g clip-path="url(#clip_frame21_group_1)" transform="rotate(211.1052 12 12)"><path d="M10.754966 9.93651l-9.44508-2.336505-.478848 1.935692 9.44508 2.336505z" fill="#000000"/></g></g><g transform="translate(528)"><defs><clipPath id="clip_frame22_group"><path d="M20.86 3.93c-1.46-1.46-4.2-1.1-6.12.81-1.59 1.59-2.09 3.74-1.38 5.27L0 23.47V0h24v.99z"/></clipPath><clipPath id="clip_frame22_group_1"><path d="M14.98 11.63c1.53.71 3.68.21 5.27-1.38 1.91-1.91 2.28-4.65.81-6.12l3.04-3.04V24.1H2.49l2.72-2.72z"/></clipPath></defs><path d="M9.304215 10.793201C8.520955 9.31961 6.580635 8.47157 4.491198 8.8002l-.053623-.036736C1.799072 9.345054-.064052 11.4312.235873 13.509458c.46914 2.032965 2.954298 3.313657 5.632441 2.909532l.037302-.054448c2.06627-.448748 3.569598-1.938932 3.76752-3.597335l13.514986-2.525813-.189137-1.012025-.177186-.948079-13.517584 2.511911" fill="#000000"/><g clip-path="url(#clip_frame22_group)" transform="rotate(214.4141 12 12)"><path d="M14.460071 8.69037l-.735245 3.93411 9.753164 1.815572c.405294-2.168625-1.024588-4.25581-3.198865-4.669354L14.460071 8.69037z" fill="#000000"/></g><g clip-path="url(#clip_frame22_group_1)" transform="rotate(214.4141 12 12)"><path d="M10.63794 10.011812l-9.564195-1.78745-.366324 1.960104 9.564195 1.78745z" fill="#000000"/></g></g><g transform="translate(552)"><defs><clipPath id="clip_frame23_group"><path d="M20.86 3.93c-1.46-1.46-4.2-1.1-6.12.81-1.59 1.59-2.09 3.74-1.38 5.27L0 23.47V0h24v.99z"/></clipPath><clipPath id="clip_frame23_group_1"><path d="M14.98 11.63c1.53.71 3.68.21 5.27-1.38 1.91-1.91 2.28-4.65.81-6.12l3.04-3.04V24.1H2.49l2.72-2.72z"/></clipPath></defs><path d="M9.124678 10.798662C8.75167 9.20188 7.36849 8.09159 5.810272 7.976792l-.279688-.212073C2.923978 8.595623.916079 10.738893.750177 12.963651c.758035 2.087015 3.265033 3.61522 6.006141 3.715837l.21147-.278891c1.470017-.531877 2.502217-1.974269 2.430431-3.612469l13.390876-1.842603-.159502-1.160055-.112113-.815401-13.392802 1.828593" fill="#000000"/><g clip-path="url(#clip_frame23_group)" transform="rotate(217.1712 12 12)"><path d="M14.298024 8.575867l-.545156 3.964922 9.829206 1.344328c.30051-2.185611-1.228113-4.2016-3.419766-4.510078l-5.864284-.799172z" fill="#000000"/></g><g clip-path="url(#clip_frame23_group_1)" transform="rotate(217.1712 12 12)"><path d="M10.54388 10.079631L.904779 8.754304.633163 10.72976l9.639103 1.325327z" fill="#000000"/></g></g><g transform="translate(576)"><defs><clipPath id="clip_frame24_group"><path d="M20.86 3.93c-1.46-1.46-4.2-1.1-6.12.81-1.59 1.59-2.09 3.74-1.38 5.27L0 23.47V0h24v.99z"/></clipPath><clipPath id="clip_frame24_group_1"><path d="M14.98 11.63c1.53.71 3.68.21 5.27-1.38 1.91-1.91 2.28-4.65.81-6.12l3.04-3.04V24.1H2.49l2.72-2.72z"/></clipPath></defs><path d="M8.687497 10.931669c.368295-1.754474.059617-3.216355-.390311-4.027906l-.705922-.580578c-2.555357 1.474506-4.751511 3.82837-5.737803 6.283886 1.441678 2.211142 4.04631 4.100814 6.842865 5.05814l.580578-.705921c.284813-.883138.3055-2.377109-.39467-4.028902l12.994214-1.268878-.140842-1.445553-.052524-.539091-12.995585 1.254803" fill="#000000"/><g clip-path="url(#clip_frame24_group)" transform="rotate(219.4352 12 12)"><path d="M14.160965 8.48776l-.388102 3.983363 9.87464.954989c.213935-2.195776-1.393133-4.149805-3.595261-4.371465l-5.891277-.566887z" fill="#000000"/></g><g clip-path="url(#clip_frame24_group_1)" transform="rotate(219.4352 12 12)"><path d="M10.469156 10.138652L.785222 9.195139l-.193366 1.984643 9.683935.943513z" fill="#000000"/></g></g><g transform="translate(600)"><defs><clipPath id="clip_frame25_group"><path d="M20.86 3.93c-1.46-1.46-4.2-1.1-6.12.81-1.59 1.59-2.09 3.74-1.38 5.27L0 23.47V0h24v.99z"/></clipPath><clipPath id="clip_frame25_group_1"><path d="M14.98 11.63c1.53.71 3.68.21 5.27-1.38 1.91-1.91 2.28-4.65.81-6.12l3.04-3.04V24.1H2.49l2.72-2.72z"/></clipPath></defs><path d="M8.305754 11.022231c.999415-1.847583 1.61351-3.54098 2.137231-4.872028l-1.045718-.917254C6.846292 7.258602 4.480406 9.784475 2.79212 12.388594c2.013754 2.358302 4.685925 4.555883 7.4814 6.23377l.916595-1.044965c-.69207-1.25219-1.521627-2.85111-2.753219-4.551271L21.0766 12.19327l-.110363-1.686378-.019856-.303407-12.640626.818746" fill="#000000"/><g clip-path="url(#clip_frame25_group)" transform="rotate(221.2557 12 12)"><path d="M14.048296 8.420882l-.26136 3.993682 9.899992.640805c.144072-2.201463-1.524262-4.103452-3.73232-4.255042l-5.906312-.379445z" fill="#000000"/></g><g clip-path="url(#clip_frame25_group_1)" transform="rotate(221.2557 12 12)"><path d="M10.410797 10.188224L.701777 9.55283l-.13022 1.989785 9.70902.635394z" fill="#000000"/></g></g><g transform="translate(624)"><defs><clipPath id="clip_frame26_group"><path d="M20.86 3.93c-1.46-1.46-4.2-1.1-6.12.81-1.59 1.59-2.09 3.74-1.38 5.27L0 23.47V0h24v.99z"/></clipPath><clipPath id="clip_frame26_group_1"><path d="M14.98 11.63c1.53.71 3.68.21 5.27-1.38 1.91-1.91 2.28-4.65.81-6.12l3.04-3.04V24.1H2.49l2.72-2.72z"/></clipPath></defs><path d="M8.07936 11.040322c1.389521-1.874468 2.571251-3.672563 3.699908-5.278842L10.54779 4.6261c-2.580753 2.34037-5.068478 4.95013-7.195326 7.611055 2.335447 2.476923 5.02587 4.877157 7.789328 7.001966l1.134703-1.230741c-1.255158-1.509495-2.578765-3.205872-4.11567-4.961527l12.425392-.510845-.074294-1.829899-.006598-.1625-12.425965.496713" fill="#000000"/><g clip-path="url(#clip_frame26_group)" transform="rotate(222.675 12 12)"><path d="M13.959013 8.371245l-.162358 3.99893 9.912829.395387c.089498-2.204357-1.625436-4.064438-3.836572-4.161288l-5.913899-.23303z" fill="#000000"/></g><g clip-path="url(#clip_frame26_group_1)" transform="rotate(222.675 12 12)"><path d="M10.366407 10.228144l-9.72178-.394707-.080892 1.9924 9.72178.394707z" fill="#000000"/></g></g><g transform="translate(648)"><defs><clipPath id="clip_frame27_group"><path d="M20.86 3.93c-1.46-1.46-4.2-1.1-6.12.81-1.59 1.59-2.09 3.74-1.38 5.27L0 23.47V0h24v.99z"/></clipPath><clipPath id="clip_frame27_group_1"><path d="M14.98 11.63c1.53.71 3.68.21 5.27-1.38 1.91-1.91 2.28-4.65.81-6.12l3.04-3.04V24.1H2.49l2.72-2.72z"/></clipPath></defs><path d="M7.948412 11.03034c1.627571-1.876436 3.152651-3.718065 4.6508-5.466443l-1.330324-1.272603c-2.616332 2.515112-5.188715 5.162218-7.58647 7.837986 2.513983 2.565433 5.201182 5.095904 7.926467 7.493976l1.273294-1.331047c-1.574182-1.680247-3.180092-3.451736-4.889245-5.254179l12.295544-.279028-.042452-1.914374-.001756-.079177-12.295858.26489" fill="#000000"/><g clip-path="url(#clip_frame27_group)" transform="rotate(223.7296 12 12)"><path d="M13.891895 8.335804l-.08873 4.00124 9.918426.212876c.048911-2.205631-1.699967-4.033834-3.91251-4.089971l-5.917186-.124145z" fill="#000000"/></g><g clip-path="url(#clip_frame27_group_1)" transform="rotate(223.7296 12 12)"><path d="M10.334072 10.25851L.606675 10.0428l-.044209 1.99355 9.727398.215713z" fill="#000000"/></g></g><g transform="translate(672)"><defs><clipPath id="clip_frame28_group"><path d="M20.86 3.93c-1.46-1.46-4.2-1.1-6.12.81-1.59 1.59-2.09 3.74-1.38 5.27L0 23.47V0h24v.99z"/></clipPath><clipPath id="clip_frame28_group_1"><path d="M14.98 11.63c1.53.71 3.68.21 5.27-1.38 1.91-1.91 2.28-4.65.81-6.12l3.04-3.04V24.1H2.49l2.72-2.72z"/></clipPath></defs><path d="M7.874288 11.013479c1.769017-1.870365 3.49573-3.727596 5.212898-5.547965l-1.383442-1.357177c-2.644425 2.61135-5.272807 5.273461-7.831773 7.947635 2.609746 2.624641 5.288665 5.23589 7.98265 7.796081l1.357178-1.383442c-1.751739-1.787125-3.51443-3.610209-5.318267-5.44704l12.220305-.123476-.01881-1.962839-.000299-.031111-12.22044.109334" fill="#000000"/><g clip-path="url(#clip_frame28_group)" transform="rotate(224.451 12 12)"><path d="M13.845617 8.312277l-.038353 4.002041 9.92032.087998c.021142-2.206071-1.750612-4.012113-3.963687-4.040393l-5.91828-.049646z" fill="#000000"/></g><g clip-path="url(#clip_frame28_group_1)" transform="rotate(224.451 12 12)"><path d="M10.312281 10.27962L.58294 10.18638.56383 12.18033l9.729343.09324z" fill="#000000"/></g></g><g transform="translate(696)"><defs><clipPath id="clip_frame29_group"><path d="M20.86 3.93c-1.46-1.46-4.2-1.1-6.12.81-1.59 1.59-2.09 3.74-1.38 5.27L0 23.47V0h24v.99z"/></clipPath><clipPath id="clip_frame29_group_1"><path d="M14.98 11.63c1.53.71 3.68.21 5.27-1.38 1.91-1.91 2.28-4.65.81-6.12l3.04-3.04V24.1H2.49l2.72-2.72z"/></clipPath></defs><path d="M7.837749 11.000663c1.841206-1.86399 3.673225-3.725837 5.501021-5.57919L11.931185 4.02044c-2.661727 2.655744-5.3206 5.322795-7.9632 7.993344 2.655028 2.658193 5.326312 5.312813 8.000398 7.956113l1.401035-1.407585c-1.836421-1.844807-3.677105-3.698088-5.526986-5.55347l12.181986-.035482-.004634-1.986965-.000016-.007071-12.18202.02134" fill="#000000"/><g clip-path="url(#clip_frame29_group)" transform="rotate(224.8664 12 12)"><path d="M13.81883 8.298992l-.009334 4.002214 9.920697.016066c.005146-2.206167-1.779657-3.999315-3.992879-4.011547l-5.918484-.006733z" fill="#000000"/></g><g clip-path="url(#clip_frame29_group_1)" transform="rotate(224.8664 12 12)"><path d="M10.299852 10.291903L.570089 10.26921l-.00465 1.994035 9.729762.022693z" fill="#000000"/></g></g><g transform="translate(720)"><defs><clipPath id="clip_frame30_group"><path d="M20.86 3.93c-1.46-1.46-4.2-1.1-6.12.81-1.59 1.59-2.09 3.74-1.38 5.27L0 23.47V0h24v.99z"/></clipPath><clipPath id="clip_frame30_group_1"><path d="M14.98 11.63c1.53.71 3.68.21 5.27-1.38 1.91-1.91 2.28-4.65.81-6.12l3.04-3.04V24.1H2.49l2.72-2.72z"/></clipPath></defs><path d="M7.82807 10.995908l5.586144-5.586143L12 3.99555 3.995551 12 12 20.004449l1.414214-1.414214-5.586144-5.586143 12.169308-.007071v-1.994042L7.82807 10.99591" fill="#000000"/><g clip-path="url(#clip_frame30_group)" transform="rotate(225 12 12)"><path d="M13.810193 8.29476v4.002225l9.920708-.007071c0-2.206173-1.78898-3.995154-4.002224-4.002225l-5.918484.007071z" fill="#000000"/></g><g clip-path="url(#clip_frame30_group_1)" transform="rotate(225 12 12)"><path d="M10.295873 10.295873H.566083v1.99404h9.72979z" fill="#000000"/></g></g></svg>