<svg xmlns="http://www.w3.org/2000/svg" viewBox="0 0 456 24" width="456" height="24"><path d="M4.8 12l5.6 5.6L9 19l-5.6-5.6L4.8 12zm14.8-6.4L21 7 9 19l-1.4-1.4 12-12zM28.860024 11.869128l5.495542 5.722607-1.420653 1.373998-5.49453-5.723595 1.419641-1.37301zm14.80753-6.143692l1.37401 1.419653-12.149161 11.77716-1.373999-1.420652 12.14915-11.77616zM53.090043 11.413356l5.106196 6.147128-1.486849 1.279124-5.107194-6.14718 1.487847-1.279072zm14.800386-5.237724L69.1695 7.663479 56.522797 18.632724l-1.279124-1.486848L67.89043 6.175632zM77.635451 10.542695l4.235593 6.941477-1.608793 1.076174-4.235592-6.941478 1.608792-1.076173zm14.63791-3.423524l1.076174 1.608793-13.524624 9.257965-1.076174-1.608792L92.273362 7.11917zM102.78592 9.254069l2.524094 8.059972-1.762194.702652-2.524095-8.059972 1.762195-.702652zm13.908968-.466555l.702652 1.762194-14.575634 6.169968-.70169-1.761923 14.574672-6.17024zM128.8508 7.92363l-.358023 9.04647-1.854122.123914.358022-9.04647 1.854122-.123914zm11.91834 3.317206l.124377 1.853236-15.03243 1.512235-.124378-1.853237 15.03243-1.512234zM155.508013 7.318787l-3.92382 9.10921-1.760585-.529355 3.92382-9.10921 1.760585.529355zm8.595027 6.542334l-.530767 1.76068-14.009047-3.595016.529356-1.760584 14.010458 3.59492zM181.891377 7.633163l-7.072305 8.17059-1.510709-1.05953 7.071505-8.16999 1.511509 1.05893zm5.02549 8.237034l-1.059531 1.510708-11.840745-7.596221 1.06033-1.511309 11.839945 7.596822zM207.629359 8.427544l-9.36763 6.784906-1.216455-1.41693 9.368091-6.78402 1.215994 1.416044zm2.028014 8.729096l-1.416043 1.215994-9.415304-10.200583 1.41693-1.216455 9.414417 10.201044zM232.805052 9.337085l-10.936197 5.361936-.938653-1.641874 10.935852-5.362874.938998 1.642812zm-.265456 8.595304l-1.641875.938653-7.20733-11.78735 1.642814-.938999 7.20639 11.787696zM257.584248 10.192055l-11.989828 4.07983-.702136-1.783368 11.990081-4.078862.701883 1.7824zm-1.970245 8.199442l-1.7824.701883-5.35088-12.735455 1.782399-.701883 5.35088 12.735455zM282.098894 10.93474l-12.698257 2.987928-.507858-1.87005 12.69924-2.988108.506875 1.87023zm-3.225708 7.72506l-1.87005.507858-3.84835-13.292725 1.869065-.507678 3.849335 13.292545zM306.438602 11.547313l-13.175773 2.095638-.352432-1.923127 13.176766-2.095762.35144 1.923251zm-4.146818 7.268933l-1.924243.351564-2.660656-13.616045 1.923127-.352432 2.661772 13.616913zM330.662847 12.036001l-13.497845 1.38876-.231378-1.956682 13.497844-1.388761.231379 1.956683zm-4.818095 6.868178l-1.956683.231378-1.744426-13.800007 1.956602-.232374 1.744507 13.801003zM354.81031 12.410769l-13.71292.84799-.141022-1.976463 13.71292-.847991.141022 1.976464zm-5.298763 6.542514l-1.977512.140072-1.056504-13.90193 1.976464-.141021 1.057552 13.90288zM378.90423 12.683776l-13.853833.455256-.075005-1.988719 13.852834-.45523.076005 1.988693zm-5.63138 6.29534l-1.98872.075005-.564964-13.956002 1.988693-.076004.56499 13.957zM402.960988 12.865106l-13.939706.194101-.032063-1.995767 13.939717-.193101.032052 1.994767zm-5.84563 6.126992l-1.995767.032063-.238596-13.984217 1.995768-.032063.238596 13.984217zM426.990577 12.967563l-13.985925.046894-.007273-1.998988 13.985924-.046894.007274 1.998988zm-5.963112 6.030751l-1.998988.007273-.05692-13.995898 1.998985-.008274.056923 13.996899zM451 13h-14v-2h14v2zm-6 6h-2V5h2v14z" fill="#000000"/></svg>