<svg xmlns="http://www.w3.org/2000/svg" viewBox="0 0 744 24" width="744" height="24"><path d="M3 6v2h18V6H3zM3 13h18v-2H3v2zM3 18h18v-2H3v2zM27.010146 5.93224l-.019442 1.999905 17.99915.174978.019442-1.999905-17.99915-.174978zM27.14749 12.931184l17.689466.137572.015553-1.99994-17.689465-.137572-.015553 1.99994zM26.99432 17.927808l17.999694.104987.011666-1.999966-17.999694-.104987-.011666 1.999966zM51.04963 5.711252l-.083548 1.998254 17.984288.751932.083548-1.998255-17.984288-.751931zM51.737178 12.724239l16.458799.550405.066845-1.998883-16.458799-.550405-.066845 1.998883zM50.97776 17.68772l17.994342.451243.050139-1.999372-17.994343-.451243-.050139 1.999372zM75.147768 5.307493l-.202779 1.989694 17.907243 1.825007.202779-1.989693-17.907243-1.825008zM77.070506 12.439039l13.696665 1.115324.162323-1.993402-13.696665-1.115324-.162323 1.993402zM74.955805 17.235195l17.966589 1.09621.121801-1.996287-17.966589-1.09621-.121801 1.996287zM99.36728 4.691275l-.389648 1.961676 17.655088 3.506829.389648-1.961677L99.36728 4.691275zM103.018757 12.224589l9.650047 1.526267.31244-1.975445-9.650048-1.526267-.31244 1.975445zM98.944836 16.51118l17.875577 2.11276.23475-1.986176-17.875576-2.112758-.23475 1.986175zM123.82599 3.845956l-.656044 1.88934 17.004065 5.904388.656043-1.88934-17.004065-5.904388zM128.664935 12.12328l6.141745 1.68238.528385-1.92894-6.141745-1.68238-.528385 1.92894zM122.981157 15.444487l17.639318 3.58531.398368-1.959924-17.639318-3.58531-.398368 1.959924zM148.71872 2.799355l-1.00417 1.729637 15.56673 9.037526 1.00417-1.729637-15.56673-9.037526zM153.747729 12.087597l3.68755 1.650326.816992-1.82552-3.68755-1.650326-.816992 1.82552zM147.134129 13.97415l17.11096 5.587044.620782-1.901218-17.11096-5.587044-.620782 1.901218zM174.300544 1.685994l-1.405647 1.422729 12.80456 12.65082 1.405646-1.422729-12.80456-12.65082zM178.410251 12.088433l2.011758 1.446829 1.16774-1.623695-2.011758-1.446829-1.16774 1.623695zM171.51543 12.113048l16.067623 8.113659.901518-1.785292-16.067624-8.113658-.901518 1.785291zM200.74042.837878l-1.77502.921575 8.29418 15.975187 1.77502-.921576L200.74042.837878z" fill="#000000"/><path d="M202.775565 12.095537l.915668 1.093173 1.533202-1.284247-.915668-1.093173-1.533202 1.284247zM196.254105 10.023208l14.273237 10.966982 1.218553-1.585915-14.273237-10.966982-1.218553 1.585915zM227.839074.744696l-1.983528.256153 2.30538 17.851757 1.983528-.256154-2.30538-17.851756z" fill="#000000"/><path d="M226.937448 12.07028l.29641.669302 1.828694-.809861-.29641-.669303-1.828694.809861z" fill="#000000"/><path d="M221.40375 7.99736l11.669765 13.704619 1.522735-1.29664-11.669765-13.70462-1.522735 1.296641zM254.981273 1.680674l-1.949666-.445875-4.01288 17.546988 1.949666.445875 4.01288-17.546988z" fill="#000000"/><path d="M250.98892 11.985245l.040169.297299 1.98199-.267789-.040168-.297299-1.98199.267789z" fill="#000000"/><path d="M246.856498 6.315958l8.52557 15.852908 1.761434-.947286-8.52557-15.852907-1.761434.947285z" fill="#000000"/><g><path d="M281.567907 3.445572l-1.703409-1.048045-9.432405 15.330679 1.703409 1.048045 9.432405-15.33068z" fill="#000000"/><path d="M275.012502 11.83853l-.008873.069435 1.983869.253505.008873-.069435-1.983869-.253505z" fill="#000000"/><path d="M272.40676 5.101154l5.274263 17.209944 1.912216-.58603-5.274262-17.209943-1.912216.58603z" fill="#000000"/></g><g><path d="M307.36285 5.606332l-1.336735-1.487663-13.388964 12.030613 1.336734 1.487662L307.36285 5.606332zM299.063005 11.650658l1.87399.698684-1.87399-.698684z" fill="#000000"/><path d="M297.88531 4.31719l2.244997 17.859451 1.984384-.249444-2.244998-17.859451-1.984384.249444z" fill="#000000"/></g><g><path d="M332.427294 7.80241l-.932945-1.769072-15.921643 8.396505.932945 1.769071 15.921643-8.396505zM323.149699 11.473704l1.700602 1.052592-1.700602-1.052592z" fill="#000000"/><path d="M323.207067 3.863272l-.413606 17.995248 1.999472.045956.413606-17.995248-1.999472-.045956z" fill="#000000"/></g><g><path d="M356.933348 9.830103l-.543127-1.92484-17.323569 4.888146.543127 1.92484 17.323569-4.888146z" fill="#000000"/><path d="M347.249821 11.338765l1.500358 1.32247-1.500358-1.32247z" fill="#000000"/><path d="M348.34847 3.639566l-2.674736 17.800163 1.977796.297193 2.674736-17.800163-1.977796-.297193z" fill="#000000"/></g><g><path d="M381.054409 11.605363l-.191647-1.990797-17.91717 1.724819.191646 1.990796 17.91717-1.724818zM371.351894 11.23845l1.296212 1.5231-1.296212-1.5231z" fill="#000000"/><path d="M373.316675 3.568477l-4.567879 17.410757 1.934529.507542 4.567879-17.410757-1.934529-.507542z" fill="#000000"/></g><g><path d="M404.928906 13.112068l.113288-1.99679-17.9711-1.019588-.113288 1.996789 17.9711 1.019589zM395.449487 11.165174l1.101026 1.669652-1.101026-1.669652z" fill="#000000"/><path d="M398.13055 3.594942l-6.141102 16.920014 1.880002.682344 6.141102-16.920014-1.880002-.682344z" fill="#000000"/></g><g><path d="M428.657197 14.366578l.371816-1.965135-17.68621-3.34634-.371816 1.965134 17.68621 3.34634zM419.539355 11.112416l.92129 1.775168-.92129-1.775168z" fill="#000000"/><path d="M422.81153 3.681297l-7.444016 16.388613 1.820957.827113 7.444015-16.388613-1.820957-.827113z" fill="#000000"/></g><g><path d="M452.30855 15.397948l.58784-1.91166-17.20494-5.290558-.58784 1.91166 17.20494 5.290558zM443.620128 11.074961l.759744 1.850078-.759744-1.850078z" fill="#000000"/><path d="M447.379817 3.80216l-8.521322 15.85519 1.761688.946813 8.521322-15.85519-1.761688-.946814z" fill="#000000"/></g><g><path d="M475.929346 16.237992l.766587-1.847254-16.62528-6.899282-.766586 1.847254 16.62528 6.899282zM467.691485 11.04878l.61703 1.90244-.61703-1.90244z" fill="#000000"/><path d="M471.853094 3.940542l-9.411054 15.343795 1.704866 1.045673 9.411054-15.343795-1.704866-1.045673z" fill="#000000"/></g><g><path d="M499.549871 16.916738l.913406-1.779239-16.013148-8.22065-.913406 1.779238 16.013148 8.220651zM491.753671 11.030814l.492658 1.938372-.492658-1.938372z" fill="#000000"/><path d="M496.246297 4.085147L486.1016 18.954078l1.652103 1.127189L497.8984 5.212335l-1.652103-1.127188z" fill="#000000"/></g><g><path d="M523.189367 17.460648l1.033224-1.71244L508.810633 6.4492l-1.033224 1.71244 15.411958 9.299008zM515.807207 11.01876l.385586 1.96248-.385586-1.96248z" fill="#000000"/><path d="M520.571823 4.228527l-10.747966 14.43888 1.60432 1.194218 10.747966-14.43888-1.60432-1.194218z" fill="#000000"/></g><g><path d="M546.859597 17.892178l1.130341-1.649949-14.849535-10.173067-1.130341 1.649949 14.849535 10.173067zM539.85273 11.010904l.29454 1.978192-.29454-1.978192z" fill="#000000"/><path d="M544.839873 4.365858l-11.24173 14.057863 1.561984 1.249081 11.24173-14.057863-1.561984-1.24908z" fill="#000000"/></g><g><path d="M570.567303 18.229953l1.208398-1.593668-14.343004-10.875579-1.208398 1.593667 14.343004 10.87558zM563.890907 11.005968l.218186 1.988064-.218186-1.988064z" fill="#000000"/><path d="M569.058797 4.494107l-11.64287 13.727475 1.525276 1.293653 11.64287-13.727476-1.525276-1.293652z" fill="#000000"/></g><g><path d="M594.315887 18.489189l1.27041-1.544687-13.902184-11.43369-1.27041 1.544686 13.902184 11.43369zM587.922379 11.003017l.155242 1.993966-.155242-1.993966z" fill="#000000"/><path d="M593.235422 4.611471l-11.965023 13.44761 1.49418 1.329448L594.7296 5.940919l-1.49418-1.329448z" fill="#000000"/></g><g><path d="M618.106548 18.686559l1.318841-1.503549-13.531937-11.869569-1.318841 1.503549 13.531937 11.869569zM611.947743 11.001366l.104514 1.997268-.104514-1.997268z" fill="#000000"/><path d="M617.375319 4.712617l-12.219202 13.217077 1.468564 1.357689 12.219202-13.217077-1.468564-1.357689z" fill="#000000"/></g><g><path d="M641.93905 18.835766l1.355678-1.47042-13.233777-12.201112-1.35568 1.47042 13.233778 12.201112zM635.967543 11.000527l.064914 1.998946-.064914-1.998946z" fill="#000000"/><path d="M641.483037 4.793315L629.06874 17.827319l1.448222 1.379366L642.93126 6.172681l-1.448222-1.379366z" fill="#000000"/></g><g><path d="M665.812231 18.943916l1.382513-1.44522-13.006975-12.442612-1.382513 1.44522 13.006975 12.442612zM659.982263 11.000157l.035474 1.999686-.035474-1.999686z" fill="#000000"/><path d="M665.562288 4.854306L653.00481 17.750419l1.432902 1.395275L666.99519 6.249581l-1.432902-1.395275z" fill="#000000"/></g><g><path d="M689.724356 19.016534l1.400596-1.4277-12.849308-12.605368-1.400596 1.4277 12.849308 12.605368zM683.992334 11.00003l.015332 1.99994-.015332-1.99994z" fill="#000000"/><path d="M689.616104 4.896523l-12.65453 12.800895 1.422322 1.406059 12.65453-12.800895-1.422322-1.406059z" fill="#000000"/></g><g><path d="M713.67333 19.057855l1.410912-1.417508L702.32667 4.942145l-1.410912 1.417508 12.757572 12.698202zM707.998134 11.000002l.003732 1.999996-.003732-1.999996z" fill="#000000"/><path d="M713.646954 4.921023l-12.710099 12.74572 1.416191 1.412234 12.710099-12.74572-1.416191-1.412234z" fill="#000000"/></g><g><path d="M737.656854 19.071068l1.414214-1.414214-12.727922-12.727922-1.414214 1.414214 12.727922 12.727922zM732 11v2-2z" fill="#000000"/><path d="M737.656854 4.928932l-12.727922 12.727922 1.414214 1.414214 12.727922-12.727922-1.414214-1.414214z" fill="#000000"/></g></svg>