<svg xmlns="http://www.w3.org/2000/svg" viewBox="0 0 456 24" width="456" height="24"><path d="M18.1 4.8c-.1-.5-.5-.8-1-.8H13l.2 3h-2.4l.2-3H6.8c-.5 0-.9.4-1 .8l-2.7 14c-.1.6.4 1.2 1 1.2H10l.3-5h3.4l.3 5h5.8c.6 0 1.1-.6 1-1.2l-2.7-14M10.4 13l.2-4h2.6l.2 4h-3zM42.137144 4.870049c-.093377-.49709-.486976-.799567-.983944-.805196l-4.06974-.046094.164091 2.99505-2.381847-.026977.231884-2.990566-4.169732-.047227c-.495969-.005617-.89744.386861-1.00093.782714l-2.889143 13.947174c-.106732.59383.383486 1.19542.978448 1.202159l5.907621.06691.35428-4.967306 3.375783.038235.241682 4.974056 5.807628.065778c.595962.00675 1.09868-.583594 1.006425-1.179677L42.137144 4.87005m-7.736368 8.111902l.24329-3.997501 2.580834.029231.153685 4.001997-2.977809-.033727zM66.262613 5.120398c-.071945-.488353-.443496-.797899-.925855-.822774l-3.960737-.20425.04094 2.973053-2.318918-.119584.346544-2.953072-4.05661-.209194c-.483357-.024927-.889774.34163-1.006576.72312l-3.553138 13.73624c-.125743.574286.326695 1.17939.906924 1.209312l5.928122.305707.540371-4.847604 3.283637.169334.03886 4.877474 5.83225.300762c.57923.02987 1.09251-.525432 1.025508-1.109658L66.262613 5.120398m-7.86006 7.798552l.399745-3.9847 2.511663.129523-.013258 4.004632-2.89815-.149455zM90.488595 5.624956c-.030268-.465185-.356349-.786514-.809271-.847425l-3.717533-.499955-.20716 2.913383-2.176407-.292695.569895-2.8646-3.80772-.512083c-.453914-.061045-.86543.252907-1.004401.603512l-4.870655 13.21371c-.164352.531839.216387 1.136985.760489 1.21016l5.939529.79878.893657-4.581769 3.082251.414518-.348564 4.655076 5.84934.78665c.544102.073175 1.070198-.410015 1.053184-.966246L90.488595 5.624956m-8.072818 7.170992l.71451-3.93992 2.357773.317087-.351775 3.988701-2.720508-.365868zM114.788445 6.47142c.033023-.418781-.217183-.747112-.613685-.85905l-3.254781-.918872-.608745 2.763563-1.90552-.537956.926332-2.673904-3.333696-.94115c-.397465-.11221-.803748.115988-.973285.411024L98.040866 15.74503c-.214095.452866.04888 1.041456.52526 1.175945l5.86284 1.655165 1.406688-4.069906 2.698523.761833-.929345 4.204666 5.783924 1.632887c.47638.134488 1.007371-.229953 1.062673-.72765l.337016-13.90655m-8.330486 6.132326l1.245573-3.804704 2.064312.582786-.927986 3.894363-2.381899-.672445zM139.055815 7.63653c.099404-.33852-.049476-.651295-.355983-.811823l-2.516725-1.318097-1.127183 2.449643-1.472297-.771093 1.37168-2.321592-2.577849-1.35011c-.306507-.160528-.680405-.04366-.87093.169245l-9.629223 9.721046c-.255015.33604-.140163.864664.227468 1.057206l5.525986 2.894152 1.933834-3.24407 2.087083 1.093078-1.565316 3.437076 5.463976 2.861676c.368517.193005.867566-.014098.999447-.414628l2.506032-13.45171m-8.502187 4.734803l1.978955-3.478945 1.595431.835584-1.732686 3.607924-1.8417-.964563zM163.171249 8.826077c.136924-.240246.080796-.505779-.123255-.684115l-1.675334-1.4642-1.592146 1.985845-.980353-.856804 1.754786-1.843703-1.715994-1.499736c-.204805-.178994-.510997-.158403-.694458-.030546l-11.82404 6.438575c-.254533.209176-.26501.632977-.019546.847507l4.821196 4.213606 2.208711-2.281026 1.389963 1.214793-1.964753 2.49424 4.780536 4.17807c.245465.21453.664047.147402.837259-.132845l4.797428-12.579661m-8.482885 3.35568l2.71359-2.940765 1.062425.928533-2.550198 3.083565-1.225817-1.071334zM187.165194 9.750618c.139414-.155788.139431-.360788.016445-.524798l-1.007284-1.343287-1.87893 1.511438-.590332-.787251 1.977319-1.38023-1.031881-1.376089c-.122986-.16401-.352583-.19683-.50839-.131244l-12.92627 3.145885c-.22141.114781-.294437.425775-.147454.621787l3.929548 5.24034 2.184328-1.484212.835104 1.113672-2.036745 1.681024 3.90495 5.207537c.146983.196013.465982.21304.638198.032655l6.641394-11.527227m-8.3582 2.32528l3.2494-2.33412.638927.852055-3.151612 2.464528-.736716-.982464zM211.12357 10.39739c.121093-.096647.146551-.247311.076072-.383112l-.575348-1.108591-2.01778 1.115934-.337194-.649711 2.07398-1.00765-.589628-1.136106c-.070019-.134913-.234503-.186999-.357068-.158315l-13.19529.438686c-.176708.056783-.268657.276882-.184358.43931l3.069751 5.914856 2.011928-.940518.47723.919536-1.927168 1.103834 3.055932 5.888228c.084298.162428.316744.213042.465353.102116l7.953587-10.538498m-8.235948 1.630117l3.578433-1.788445.365293.703854-3.522234 1.89673-.421492-.812139zM235.084407 10.852235c.097515-.05932.129318-.166918.090646-.27203l-.318012-.864355-2.071677.810157-.185766-.504911 2.102753-.725692-.325608-.885002c-.038672-.105111-.153275-.158845-.24568-.149355l-13.038545-1.632319c-.134638.02503-.222663.176755-.176049.303452l2.331742 6.337664 1.8044-.59248.263801.71701-1.758131.71824 2.324145 6.317017c.046269.125759.211638.184256.330739.116995l8.871242-9.69439m-8.146862 1.156134l3.769522-1.338927.201304.547143-3.738446 1.423392-.23238-.631608zM259.055376 11.18097c.074315-.035976.105272-.11126.084774-.189624l-.169038-.646258-2.084503.578308-.09869-.377306 2.100698-.516392-.173087-.661738c-.020497-.078363-.09983-.1248-.167016-.124798l-12.709036-3.186678c-.099113.008353-.172205.11223-.14766.206073l1.726064 6.598995 1.609664-.370382.14019.535969-1.584864.465193 1.721761 6.582549c.0248.09481.13914.148628.229901.10835l9.520842-9.00226m-8.088875.819575l3.878162-.98028.10704.409233-3.86146 1.044132-.123742-.473085zM283.034908 11.425868c.054881-.02227.081004-.073832.070536-.13088l-.08537-.465232-2.077099.40453-.050175-.273434 2.085401-.359286-.087535-.477035c-.010469-.057048-.065-.09381-.112229-.096326l-12.333552-4.349393c-.070836.001814-.128235.071315-.115781.139182l1.24048 6.760129 1.444308-.229446.07075.385562-1.431673.298296 1.238315 6.748326c.012634.06885.09097.113444.157654.089007l9.98597-8.444m-8.051875.572656l3.93846-.699322.054327.296057-3.930159.744567-.062628-.341302zM307.021695 11.60841c.037706-.01278.057672-.046518.052707-.08621l-.04034-.322486-2.060937.27393-.023583-.18853 2.064908-.242178-.041333-.330425c-.004965-.03969-.039573-.066603-.072319-.070569l-11.97776-5.213589c-.047505-.001112-.090293.043544-.084335.091173l.85807 6.85954 1.30967-.14065.033514.267912-1.30396.186294.857077 6.851602c.005958.047628.058551.081361.104195.06759l10.324426-8.003404m-8.029725.389696l3.971052-.48062.02557.204407-3.96708.512373-.029542-.23616zM331.012465 11.745704c.025509-.007091.039754-.029319.037646-.055233l-.017105-.210306-2.044436.17631-.010052-.123591 2.046058-.156377-.017591-.216286c-.002027-.024917-.02466-.044146-.045996-.047427l-11.66774-5.851423c-.031303-.00247-.060094.025957-.05758.056855l.562827 6.92015 1.204244-.082894.014267.17542-1.201812.112796.562423 6.915166c.002513.030898.035518.0543.066011.046803l10.568836-7.659963m-8.015902.252633l3.987727-.313292.010863.133559-3.986025.334223-.012565-.15449zM355.006894 11.846458c.015834-.00378.024235-.016207.02345-.032188l-.006272-.127846-2.028266.105517-.003626-.07391 2.028854-.093533-.00642-.130842c-.000783-.015981-.013357-.027379-.026488-.029738l-11.416127-6.314163c-.019124-.002065-.037367.013848-.036435.032825l.341353 6.957631 1.12409-.046139.005194.105873-1.123207.064117.341207 6.954635c.00093.018977.020643.033028.039473.0291l10.74322-7.40134m-8.008143.152606l3.995489-.190019.003969.080903-3.994852.203003-.004606-.093887zM379.003274 11.918926c.008944-.002234.01376-.009363.01355-.01736l-.001777-.067977-2.016232.055718-.001046-.039986 2.01639-.04972-.00183-.069976c-.00021-.007997-.00739-.014812-.014414-.015629l-11.22733-6.637816c-.010022-.000739-.01981.00752-.019548.017517l.18249 6.979614 1.066766-.02289.001464.055981-1.066505.032887.182438 6.977615c.000261.009997.010493.018732.020437.016472l10.865147-7.21445m-8.003638.08022l3.998738-.10055.001124.042986-3.998555.107547-.001307-.049983zM403.001048 11.965608c.003988-.001044.005955-.004066.005922-.007065l-.00032-.028999-2.006867.023186-.000177-.016 2.006889-.021185-.000332-.029998c-.000033-.003-.003066-.005966-.006077-.006933l-11.097362-6.846749c-.00401-.000955-.007977.002089-.007922.007088l.07729 6.991573 1.027959-.009363.000265.023998-1.027915.013364.07729 6.991572c.000044.004.004076.006956.008076.006912l10.94328-7.0914m-8.001107.034446l3.999766-.043216.0002.017999-3.999734.046215-.000232-.020998zM427.000002 11.991535c.001-.000003.001997-.001006.001997-.001006l-.000018-.007-2.001993.005281-.00001-.004 2.001992-.00528-.000018-.007c-.000003-.001-.001003-.000998-.002003-.000995l-11.023408-6.963946c-.001.000003-.002.000006-.001998.001006l.018463 6.998975 1.006997-.002656.000015.006-1.006996.002656.01846 6.997976c.000003.001.001005.001997.002005.001995l10.986515-7.022006m-8.000006.008103l3.999988-.009552.00001.004-3.999985.010552-.000013-.005zM451 12h-2 2l-11-7v7h1-1v7l11-7m-8 0h4-4z" fill="#000000"/></svg>