<svg xmlns="http://www.w3.org/2000/svg" viewBox="0 0 456 24" width="456" height="24"><path d="M12 21.35l-1.45-1.31C5.4 15.36 2 12.28 2 8.5 2 5.42 4.42 3 7.5 3c1.74 0 3.41.81 4.5 2.09C13.09 3.81 14.76 3 16.5 3 19.58 3 22 5.42 22 8.5c0 3.78-3.4 6.86-8.55 11.53l-.725.66-.725.66m-.93-13.99C10.54 5.99 9.04 5 7.5 5 5.5 5 4 6.5 4 8.5c0 2.89 3.14 5.74 7.9 10.05l.1.1.1-.1C16.86 14.24 20 11.39 20 8.5c0-2-1.5-3.5-3.5-3.5-1.54 0-3.04.99-3.56 2.36h-1.87M36 21.35l-1.45-1.31C29.4 15.36 26 12.28 26 8.5 26 5.42 28.42 3 31.5 3c1.74 0 3.41.81 4.5 2.09 1.086-1.275 2.749-2.083 4.482-2.086.006-.003.012-.004.018-.004C43.58 3 46 5.42 46 8.5c0 3.78-3.4 6.86-8.55 11.53l-.73.665-.72.655m-.923-13.958c-.526-1.36-2.016-2.343-3.545-2.343-1.985 0-3.474 1.489-3.474 3.475 0 2.869 3.117 5.699 7.843 9.978l.099.099.099-.099c4.726-4.279 7.843-7.109 7.843-9.978 0-1.986-1.489-3.475-3.474-3.475-1.529 0-3.019.983-3.535 2.343h-1.856M60 21.35l-1.45-1.31C53.4 15.36 50 12.28 50 8.5 50 5.42 52.42 3 55.5 3c1.74 0 3.41.81 4.5 2.09 1.072-1.259 2.71-2.06 4.418-2.071.025-.012.053-.019.082-.019C67.58 3 70 5.42 70 8.5c0 3.78-3.4 6.86-8.55 11.53l-.749.682-.701.638m-.899-13.844c-.513-1.325-1.964-2.282-3.453-2.282-1.935 0-3.386 1.451-3.386 3.385 0 2.795 3.037 5.552 7.641 9.72l.097.097.097-.097c4.604-4.168 7.641-6.925 7.641-9.72 0-1.934-1.451-3.385-3.386-3.385-1.489 0-2.94.957-3.443 2.282h-1.808M84 21.35l-1.45-1.311C77.4 15.36 74 12.28 74 8.5 74 5.42 76.42 3 79.5 3c1.74 0 3.41.81 4.5 2.09 1.044-1.226 2.63-2.011 4.288-2.042.065-.031.138-.048.212-.048C91.58 3 94 5.42 94 8.5c0 3.78-3.4 6.86-8.55 11.531l-.787.715-.663.604m-.851-13.61c-.485-1.253-1.857-2.159-3.266-2.159-1.83 0-3.202 1.372-3.202 3.202 0 2.644 2.873 5.251 7.228 9.195l.091.091.091-.091c4.355-3.944 7.228-6.551 7.228-9.195 0-1.83-1.372-3.202-3.202-3.202-1.409 0-2.781.906-3.257 2.159h-1.711M108 21.35l-1.45-1.312C101.4 15.36 98 12.28 98 8.5c0-3.08 2.42-5.5 5.5-5.5 1.74 0 3.41.81 4.5 2.09.995-1.168 2.493-1.927 4.063-1.991.135-.063.285-.099.437-.099 3.08 0 5.5 2.42 5.5 5.5 0 3.78-3.4 6.86-8.55 11.532l-.852.774-.598.544m-.767-13.208c-.437-1.13-1.675-1.946-2.945-1.946-1.649 0-2.887 1.237-2.887 2.886 0 2.384 2.59 4.735 6.517 8.29l.082.082.082-.082c3.927-3.555 6.517-5.906 6.517-8.29 0-1.649-1.238-2.886-2.887-2.886-1.27 0-2.508.816-2.937 1.946h-1.542M132 21.35l-1.45-1.313C125.4 15.36 122 12.28 122 8.5c0-3.08 2.42-5.5 5.5-5.5 1.74 0 3.41.81 4.5 2.09.923-1.083 2.292-1.805 3.734-1.916.237-.112.499-.174.766-.174 3.08 0 5.5 2.42 5.5 5.5 0 3.78-3.4 6.86-8.55 11.533l-.948.86-.502.457m-.644-12.619c-.368-.949-1.407-1.635-2.474-1.635-1.386 0-2.425 1.04-2.425 2.425 0 2.003 2.176 3.977 5.474 6.963l.069.07.069-.07c3.298-2.986 5.474-4.96 5.474-6.963 0-1.385-1.039-2.425-2.425-2.425-1.067 0-2.106.686-2.467 1.635h-1.295M156 21.35l-1.45-1.315C149.4 15.36 146 12.28 146 8.5c0-3.08 2.42-5.5 5.5-5.5 1.74 0 3.41.81 4.5 2.09.841-.987 2.063-1.666 3.36-1.832.352-.165.742-.258 1.14-.258 3.08 0 5.5 2.42 5.5 5.5 0 3.78-3.4 6.86-8.55 11.535l-1.057.957-.393.358m-.505-11.948c-.287-.744-1.102-1.281-1.937-1.281-1.086 0-1.9.814-1.9 1.899 0 1.569 1.704 3.116 4.288 5.455l.054.054.054-.054c2.584-2.339 4.288-3.886 4.288-5.455 0-1.085-.814-1.899-1.9-1.899-.835 0-1.65.537-1.932 1.281h-1.015M180 21.35l-1.45-1.316C173.4 15.36 170 12.28 170 8.5c0-3.08 2.42-5.5 5.5-5.5 1.74 0 3.41.81 4.5 2.09.768-.902 1.86-1.542 3.028-1.756.455-.214.958-.334 1.472-.334 3.08 0 5.5 2.42 5.5 5.5 0 3.78-3.4 6.86-8.55 11.536l-1.153 1.044-.297.27m-.381-11.354c-.217-.561-.831-.967-1.462-.967-.819 0-1.434.615-1.434 1.434 0 1.184 1.286 2.351 3.236 4.117l.041.041.041-.041c1.95-1.766 3.236-2.933 3.236-4.117 0-.819-.615-1.434-1.434-1.434-.631 0-1.245.406-1.458.967h-.766M204 21.35l-1.45-1.317C197.4 15.36 194 12.28 194 8.5c0-3.08 2.42-5.5 5.5-5.5 1.74 0 3.41.81 4.5 2.09.711-.835 1.7-1.445 2.766-1.697.536-.252 1.129-.393 1.734-.393 3.08 0 5.5 2.42 5.5 5.5 0 3.78-3.4 6.86-8.55 11.537l-1.229 1.112-.221.201m-.283-10.886c-.162-.417-.619-.719-1.088-.719-.61 0-1.067.457-1.067 1.067 0 .88.957 1.749 2.408 3.063l.03.03.03-.03c1.451-1.314 2.408-2.183 2.408-3.063 0-.61-.457-1.067-1.067-1.067-.469 0-.926.302-1.085.719h-.569M228 21.35l-1.45-1.318C221.4 15.36 218 12.28 218 8.5c0-3.08 2.42-5.5 5.5-5.5 1.74 0 3.41.81 4.5 2.09.667-.784 1.577-1.37 2.566-1.652.598-.281 1.259-.438 1.934-.438 3.08 0 5.5 2.42 5.5 5.5 0 3.78-3.4 6.86-8.55 11.538l-1.287 1.164-.163.148m-.209-10.527c-.119-.308-.455-.53-.801-.53-.449 0-.786.337-.786.786 0 .648.705 1.288 1.774 2.255l.022.023.022-.023c1.069-.967 1.774-1.607 1.774-2.255 0-.449-.337-.786-.786-.786-.346 0-.682.222-.799.53h-.42M252 21.35l-1.45-1.318C245.4 15.36 242 12.28 242 8.5c0-3.08 2.42-5.5 5.5-5.5 1.74 0 3.41.81 4.5 2.09.634-.744 1.483-1.313 2.412-1.617.646-.303 1.36-.473 2.088-.473 3.08 0 5.5 2.42 5.5 5.5 0 3.78-3.4 6.86-8.55 11.538l-1.332 1.205-.118.107m-.151-10.252c-.087-.223-.331-.385-.582-.385-.326 0-.57.245-.57.57 0 .471.511.935 1.287 1.637l.016.017.016-.017c.776-.702 1.287-1.166 1.287-1.637 0-.325-.244-.57-.57-.57-.251 0-.495.162-.58.385h-.304M276 21.35l-1.45-1.319C269.4 15.36 266 12.28 266 8.5c0-3.08 2.42-5.5 5.5-5.5 1.74 0 3.41.81 4.5 2.09.608-.714 1.411-1.269 2.294-1.59.682-.32 1.437-.5 2.206-.5 3.08 0 5.5 2.42 5.5 5.5 0 3.78-3.4 6.86-8.55 11.539l-1.366 1.235-.084.076m-.107-10.041c-.062-.158-.235-.273-.413-.273-.231 0-.404.174-.404.405 0 .334.363.663.912 1.161l.012.012.012-.012c.549-.498.912-.827.912-1.161 0-.231-.173-.405-.404-.405-.178 0-.351.115-.411.273h-.216M300 21.35l-1.45-1.319C293.4 15.36 290 12.28 290 8.5c0-3.08 2.42-5.5 5.5-5.5 1.74 0 3.41.81 4.5 2.09.588-.691 1.356-1.236 2.204-1.57.71-.333 1.495-.52 2.296-.52 3.08 0 5.5 2.42 5.5 5.5 0 3.78-3.4 6.86-8.55 11.539l-1.393 1.259-.057.052m-.074-9.879c-.042-.108-.161-.187-.283-.187-.158 0-.277.119-.277.278 0 .229.249.454.626.796l.008.008.008-.008c.377-.342.626-.567.626-.796 0-.159-.119-.278-.277-.278-.122 0-.241.079-.283.187h-.148M324 21.35l-1.45-1.319C317.4 15.36 314 12.28 314 8.5c0-3.08 2.42-5.5 5.5-5.5 1.74 0 3.41.81 4.5 2.09.573-.673 1.314-1.21 2.135-1.554.731-.343 1.54-.536 2.365-.536 3.08 0 5.5 2.42 5.5 5.5 0 3.78-3.4 6.86-8.55 11.539l-1.413 1.277-.037.034m-.048-9.756c-.027-.07-.105-.122-.184-.122-.104 0-.181.078-.181.181 0 .15.162.297.408.519l.005.006.005-.006c.246-.222.408-.369.408-.519 0-.103-.077-.181-.181-.181-.079 0-.157.052-.183.122h-.097M348 21.35l-1.45-1.32C341.4 15.36 338 12.28 338 8.5c0-3.08 2.42-5.5 5.5-5.5 1.74 0 3.41.81 4.5 2.09.562-.66 1.283-1.191 2.084-1.543.747-.35 1.573-.547 2.416-.547 3.08 0 5.5 2.42 5.5 5.5 0 3.78-3.4 6.86-8.55 11.54l-1.427 1.289-.023.021m-.029-9.664c-.017-.043-.063-.074-.111-.074-.063 0-.11.047-.11.109 0 .09.098.179.247.314l.003.003.003-.003c.149-.135.247-.224.247-.314 0-.062-.047-.109-.11-.109-.048 0-.094.031-.111.074h-.058M372 21.35l-1.45-1.32C365.4 15.36 362 12.28 362 8.5c0-3.08 2.42-5.5 5.5-5.5 1.74 0 3.41.81 4.5 2.09.554-.651 1.26-1.177 2.048-1.534C374.806 3.2 375.644 3 376.5 3c3.08 0 5.5 2.42 5.5 5.5 0 3.78-3.4 6.86-8.55 11.54l-1.438 1.299-.012.011m-.015-9.599c-.009-.023-.034-.04-.06-.04-.033 0-.058.025-.058.059 0 .048.052.095.131.167l.002.002.002-.002c.079-.072.131-.119.131-.167 0-.034-.025-.059-.058-.059-.026 0-.051.017-.059.04h-.031M396 21.35l-1.45-1.32C389.4 15.36 386 12.28 386 8.5c0-3.08 2.42-5.5 5.5-5.5 1.74 0 3.41.81 4.5 2.09.549-.645 1.246-1.169 2.024-1.529.765-.359 1.612-.561 2.476-.561 3.08 0 5.5 2.42 5.5 5.5 0 3.78-3.4 6.86-8.55 11.54l-1.445 1.305-.005.005m-.007-9.556c-.003-.01-.014-.017-.025-.017-.014 0-.024.011-.024.025 0 .02.022.04.055.07l.001.001.001-.001c.033-.03.055-.05.055-.07 0-.014-.01-.025-.024-.025-.011 0-.022.007-.025.017h-.014M420 21.35l-1.45-1.32C413.4 15.36 410 12.28 410 8.5c0-3.08 2.42-5.5 5.5-5.5 1.74 0 3.41.81 4.5 2.09.546-.641 1.238-1.164 2.01-1.526.77-.361 1.621-.564 2.49-.564 3.08 0 5.5 2.42 5.5 5.5 0 3.78-3.4 6.86-8.55 11.54l-1.449 1.309-.001.001m-.002-9.532c0-.003-.003-.004-.006-.004s-.005.002-.005.005c0 .005.005.01.013.017.008-.007.013-.012.013-.017 0-.003-.002-.005-.005-.005s-.006.001-.006.004h-.004M444 21.35l-1.45-1.32C437.4 15.36 434 12.28 434 8.5c0-3.08 2.42-5.5 5.5-5.5 1.74 0 3.41.81 4.5 2.09.545-.64 1.235-1.162 2.006-1.525.771-.362 1.624-.565 2.494-.565 3.08 0 5.5 2.42 5.5 5.5 0 3.78-3.4 6.86-8.55 11.54L444 21.35m0-9.525" fill="#000000"/></svg>