<svg xmlns="http://www.w3.org/2000/svg" viewBox="0 0 456 24" width="456" height="24"><path d="M19 12h-2 2L8 5v7h1-1v7l11-7m-8 0h4-4zM42.995465 12.281803c.004031-.000864.006132-.003794.006234-.006792l.001019-.029983-2.00591-.06618.000612-.01799 2.005774.070178.001019-.029983c.000136-.003997-.00276-.007098-.005725-.008199L32.22059 4.853486c-.004997-.00017-.009097.002693-.009267.00769l-.237522 6.987965 1.028338.036954-.000815.023986-1.028474-.032957-.237523 6.987965c-.000135.003998.003726.008131.008757.007302l11.25138-6.590588m-7.99448-.327767l3.997624.137882-.000645.018989-3.997726-.134883.000748-.021988zM66.89267 13.276378c.016272-.0005.028154-.011806.030771-.028603l.02063-.132403-2.009686-.307062.012009-.07707 2.007838.318919.021246-.136355c.002463-.015809-.00838-.030655-.020764-.035621L57.044016 4.39221c-.019146-.007031-.040537.006841-.043462.025615l-1.072143 6.880974 1.115977.184004-.017243.110664-1.119056-.164242-1.071527 6.877022c-.003079.019761.013232.038496.033455.03861l12.022654-5.068479m-7.872743-1.481713l3.951388.621748-.013087.083987-3.953389-.608903.015088-.096832zM90.257602 15.217152c.042711.009422.079-.01212.095787-.051709l.136244-.321307-1.926195-.798303.079639-.187813 1.912922.829605.139758-.329593c.016396-.038668-.001633-.083243-.029422-.104802L82.89422 3.75184c-.04383-.027274-.10718-.008517-.12709.038437l-2.696391 6.35894 1.223913.546132-.113212.26699-1.243432-.5001-2.692878 6.350654c-.01991.046953.010257.10645.060723.118074l12.95175-1.713815m-7.125161-3.732746l3.67597 1.577193-.086276.203464-3.689242-1.54589.099548-.234767zM111.985699 17.89476c.07291.05246.159618.043197.224286-.016486l.52763-.48696-1.500845-1.574585.308641-.284852 1.449405 1.62206.540857-.499169c.063933-.059005.068633-.158598.03365-.221568l-3.22579-12.706098c-.059398-.089425-.194544-.10758-.271704-.036367l-5.002931 4.617309 1.115436 1.285265-.437977.404218-1.191862-1.21473-4.989703 4.6051c-.07716.071214-.070616.208057.014503.273745l12.406404 4.233118m-4.458156-6.819522l2.687152 2.96318-.334361.30859-2.738593-2.915705.385802-.356065zM131.009599 19.238004c.049724.149012.183115.225168.335944.206208l1.249421-.155007-.345563-2.281814.732385-.090862.222507 2.297082 1.280185-.158824c.152829-.01896.25975-.156168.274378-.281925l4.169088-12.52962c.007117-.186293-.167495-.351048-.351088-.328271l-6.611315.820217.183131 2.223368-1.036057.128536-.365731-2.200715-6.581544.816524c-.1826.022654-.312651.225206-.259233.40399l7.103492 11.131113m1.354547-8.290847l.431939 3.977078-.792921.098372-.553011-3.962058.913993-.113392zM149.763717 16.378308c-.08871.215862-.011566.431052.179486.557306l1.564295 1.033735 1.27785-2.100574.916052.605355-1.43136 1.99913 1.602671 1.059095c.190219.125702.443786.07392.583056-.053394l11.020261-7.545637c.189992-.20407.150003-.558918-.078593-.709981l-5.420385-3.58196-1.67483 2.284125-1.296488-.85676 1.444566-2.43629-5.382008-3.556598c-.228595-.151063-.57071-.048721-.683948.20607l-2.620625 13.096378m7.398309-4.809028l-2.282055 3.28644-.991972-.655526 2.12938-3.387333 1.144647.756419zM172.070224 11.132948c-.255393.158997-.338066.442176-.234298.718323l.851606 2.266276 2.382968-1.02151.49809 1.325504-2.465984.800594.872359 2.321506c.103768.276147.4077.41405.649372.386264l13.524362-.31546c.35213-.069293.580674-.470313.4558-.802626l-2.233662-5.944178-3.209399 1.016921-.70633-1.87967 3.084878-1.348298-2.212908-5.88895c-.124874-.332311-.560955-.483584-.871578-.303833l-10.385276 8.669137m9.198278 1.3999l-3.785872 1.296572-.539948-1.4369 3.702505-1.518425.623315 1.658753zM197.494814 6.83919c-.354247.02266-.597677.270227-.644251.614087l-.382656 2.825203 2.689272.223976-.223876 1.652908-2.651959-.49946-.391917 2.893579c-.046707.344851.191465.657648.457688.763337l12.429247 5.731085c.403966.124345.863766-.163547.919735-.576774l.836984-6.179575-3.718871-.713597.317291-2.34261 3.774706.30136.827589-6.110208c.055969-.413227-.31055-.814047-.733172-.80065l-13.50581 2.21734m7.346887 6.396965l-3.94515-.674614.242531-1.79065 3.982464.39913-.279845 2.066134zM224.089138 4.365765c-.376318-.122526-.731495.03316-.921975.371186l-1.560658 2.769546 2.494546 1.227778-.914107 1.622176-2.342359-1.49785-1.59895 2.8375c-.19048.338025-.071724.760776.160547.980046l9.810749 9.73641c.367307.295363.962895.185619 1.191176-.21949l3.01773-5.355269-3.459278-2.216774 1.294085-2.296484 3.68805 1.810794 2.979439-5.287316c.228772-.405979.014143-.972286-.429257-1.132614l-13.409738-3.349639m4.172822 9.206322l-3.408709-2.098745.9902-1.757212 3.560897 1.828674-1.142388 2.027283zM250.698932 3.29629c-.351378-.243208-.76674-.191237-1.068272.09969l-2.469837 2.382967 2.090737 1.924997-1.446496 1.395618-1.848934-2.158294-2.530288 2.44129c-.301533.290928-.310012.764614-.13714 1.063327l6.933667 12.084625c.288827.418894.938892.490645 1.300876.141393l4.374749-4.220878-2.839042-3.304034 2.048122-1.976085 3.200306 2.955477 4.315018-4.163249c.361264-.348557.313545-1.001468-.095463-1.304408L250.698932 3.29629m1.031795 10.353077l-2.657169-2.994552 1.566677-1.511573 2.897532 2.762644-1.80704 1.743481zM276.897711 3.066385c-.304206-.332515-.744278-.37585-1.122372-.14692l-3.102596 1.878572 1.64515 2.375345-1.815194 1.09907-1.342332-2.558696-3.177872 1.92415c-.378095.22893-.498079.714243-.39086 1.063157l4.338052 13.335195c.198377.499468.851497.724764 1.305724.449738l5.155595-3.12163-2.12373-4.019134 2.573093-1.557965 2.5771 3.744625 5.080319-3.07605c.45337-.274509.556438-.957665.206653-1.365457l-9.80673-10.024m-1.590185 10.521918l-1.920354-3.513342 1.966603-1.190746 2.223171 3.32999-2.26942 1.374098zM302.609909 3.262213c-.2538-.39569-.698046-.518095-1.12636-.350323l-3.514962 1.37683 1.236681 2.65268-2.057766.806039-.894031-2.7869-3.600626 1.410385c-.428313.167772-.637312.645937-.588757 1.022142l2.188726 13.922777c.115098.548827.74567.894665 1.259645.693338l5.574592-2.183597-1.450079-4.461444 2.914394-1.141583 1.965917 4.259388 5.488929-2.150042c.513976-.201328.740962-.883076.453608-1.364429l-7.849911-11.705261m-3.61672 10.20614l-1.287567-3.791573 2.229092-.873147 1.630218 3.657355-2.571743 1.007365zM327.881168 3.627494c-.206462-.437121-.642746-.621384-1.102768-.50712l-3.774313.937487.895046 2.815262-2.20888.548656-.526253-2.906865-3.86554.960147c-.460992.114505-.737453.57369-.73829.964414l.501666 14.14109c.044965.575122.642151 1.013079 1.194371.875915l5.781327-1.436003-.878812-4.720356 3.128924-.777182 1.432003 4.58295 5.689129-1.413101c.55222-.137164.875077-.803647.645715-1.332967l-6.173325-12.732327m-5.11237 9.708706l-.78082-3.9276 2.393278-.594457 1.148643 3.836237-2.761101.68582zM352.792008 4.01762c-.166877-.464561-.593331-.695563-1.072106-.624639l-3.929123.582049.626977 2.908521-2.300891.340847-.243165-2.965378-4.025076.596263c-.478775.070924-.80573.511593-.844972.908629l-.765505 14.172163c-.010814.588942.554089 1.0926 1.128817 1.007461l5.869943-.869556-.426514-4.865017 3.258441-.482696 1.002231 4.779732 5.77399-.855341c.574728-.085139.969354-.730938.788263-1.291452l-4.84131-13.341586m-6.178738 9.198719l-.394246-3.985249 2.491808-.369129.777068 3.928539-2.87463.425839zM377.415752 4.355234c-.136164-.481814-.551067-.74512-1.041555-.706576l-4.019608.315868.430083 2.9584-2.352747.184882-.037294-2.989265-4.117307.323545c-.490488.038543-.851493.461123-.9194.860671l-1.669638 14.124208c-.052475.595942.484233 1.145586 1.07242 1.099365l5.899812-.463617-.092359-4.94095 3.333723-.26197.680546 4.89473 5.802113-.455941c.588187-.04622 1.031457-.672873.887538-1.253382l-3.856327-13.689968m-6.905577 8.764922l-.117964-4.003062 2.549142-.200316.509755 3.972274-2.940933.231104zM401.814976 4.604129c-.115391-.492445-.522054-.777118-1.01878-.760639l-4.068762.13498.298128 2.984757-2.38269.079045.099654-2.997953-4.167707.138263c-.496727.016479-.880346.426424-.966128.826488l-2.266003 14.061864c-.079185.598955.437303 1.178149 1.031976 1.15842l5.904752-.195888.132982-4.979147 3.374144-.111937.46269 4.959386 5.804807-.192573c.595672-.019762 1.072637-.631913.952931-1.22427L401.814976 4.60413m-7.369946 8.448007l.066265-4.004399 2.58058-.08561.330517 3.991236-2.977362.098773zM426.03283 4.752031c-.103945-.498193-.505299-.794026-1.005283-.79007l-4.092872.032392.223719 2.996323-2.395925.018961.176269-2.999489-4.19287.033182c-.498984.00395-.895813.406102-.992653.805881l-2.596163 14.015984c-.095256.599773.409468 1.194797 1.00845 1.190057l5.900815-.046699.260477-4.995217 3.393894-.02686.339504 4.99047 5.801818-.045915c.598981-.00474 1.093225-.60767.988488-1.20586l-2.817667-13.97314m-7.621867 8.260576l.167339-4.00145 2.595918-.020544.231649 3.998292-2.994906.023702zM450.1 4.8c-.1-.5-.5-.8-1-.8H445l.2 3h-2.4l.2-3h-4.2c-.5 0-.9.4-1 .8l-2.7 14c-.1.6.4 1.2 1 1.2h5.9l.3-5h3.4l.3 5h5.8c.6 0 1.1-.6 1-1.2l-2.7-14m-7.7 8.2l.2-4h2.6l.2 4h-3z" fill="#000000"/></svg>