<svg xmlns="http://www.w3.org/2000/svg" viewBox="0 0 456 24" width="456" height="24"><path d="M19 13H5v-2h14v2zm-6 6h-2V5h2v14zM42.960212 12.862228l-13.938653.197874-.032594-1.994759 13.937642-.198863.033605 1.995748zm-5.841955 6.129556l-1.995759.032605-.24438-13.98313 1.994758-.032593.24538 13.983118zM66.798663 12.381372l-13.696312.890548-.147961-1.976002 13.696363-.88955.14791 1.975004zm-5.261692 6.568696l-1.975003.14791-1.111136-13.896217 1.976002-.147961 1.110137 13.896268zM90.387114 11.445745l-13.10289 2.243442-.377712-1.915749 13.10289-2.243443.377712 1.91575zm-4.000344 7.347747l-1.91575.377712L81.6148 5.600817l1.91575-.377712 2.85622 13.570387zM113.438343 10.011635l-11.79117 4.348163-.750645-1.757152 11.79117-4.348163.750645 1.757152zm-1.635153 8.297381l-1.757151.750646-5.731293-12.56447 1.75688-.751607 5.731564 12.565431zM135.591667 8.404198l-9.318503 6.822045-1.222998-1.408333 9.318503-6.822045 1.222998 1.408333zm2.096885 8.726154l-1.409218 1.223462-9.475316-10.14708 1.409219-1.223462 9.475315 10.14708zM157.051463 7.430117L151.086806 16.043l-1.617718-.878444 5.964657-8.612882 1.617718.878443zm6.347335 7.76407l-.877033 1.617813-12.74371-6.241746.878444-1.617718 12.742299 6.241651zM178.647003 7.401917l-2.778405 9.21584-1.813028-.325844 2.779005-9.21664 1.812428.326644zm9.749089 5.659359l-.325844 1.813028-14.505775-2.022949.325244-1.812228 14.506375 2.022149zM200.81003 7.941283l-.303517 9.03598-1.852366.134875.30263-9.03644 1.853253-.134415zm11.963092 3.255764l.134415 1.853254-15.034257 1.595923-.134875-1.852366 15.034717-1.59681zM223.51211 8.67487l1.492335 8.524582-1.815577.489187-1.491395-8.524237 1.814638-.489532zm13.285127 1.0338l.489187 1.815576-14.896605 4.435133-.489532-1.814637 14.89695-4.436072zM246.615335 9.41321l2.77119 7.927264-1.744854.755036-2.772156-7.927516 1.74582-.754784zm14.039593-.856126l.754784 1.745821-14.46601 6.600173-.754785-1.74582 14.46601-6.600174zM269.995703 10.075706l3.685685 7.357036-1.668317.952535-3.685866-7.356052 1.668498-.953519zm14.454107-2.39761l.952535 1.668318-13.945816 8.232167-.952355-1.669301 13.945636-8.231183zM293.569542 10.636279l4.338365 6.857527-1.596798 1.0993-4.33849-6.856535 1.596923-1.100292zm14.665326-3.62471l1.100416 1.59593-13.436543 9.455321-1.0993-1.596798 13.435427-9.454453zM317.275646 11.089901l4.803383 6.444592-1.533943 1.207627-4.803384-6.444592 1.533944-1.207627zm14.764637-4.577182l1.207627 1.533943-12.986674 10.361348-1.20663-1.533862 12.985677-10.36143zM341.075025 11.441986l5.131228 6.120798-1.483743 1.284836-5.131228-6.120798 1.483743-1.284836zm14.802204-5.29401l1.285884 1.482794-12.618215 11.020911-1.284836-1.483743 12.617167-11.019962zM364.941445 11.699406l5.355117 5.880977-1.445509 1.339676-5.35509-5.881976 1.445482-1.338677zm14.810888-5.808869l1.339676 1.44551L368.7537 18.81748l-1.338676-1.445483 12.337308-11.48146zM388.858978 11.872055l5.497106 5.720115-1.41928 1.374395-5.498105-5.720125 1.420279-1.374385zm14.806883-6.1497l1.374396 1.419279-12.144986 11.78247-1.374395-1.41928 12.144985-11.78247zM412.814057 11.969044l5.57517 5.628726-1.404682 1.3943-5.575171-5.628727 1.404683-1.3943zm14.801776-6.339976l1.394299 1.404683-12.03556 11.948292-1.3933-1.40468 12.03456-11.948295zM436.8 12l5.6 5.6L441 19l-5.6-5.6 1.4-1.4zm14.8-6.4L453 7l-12 12-1.4-1.4 12-12z" fill="#000000"/></svg>