<svg xmlns="http://www.w3.org/2000/svg" viewBox="0 0 456 24" width="456" height="24"><path d="M6 19h4V5H6v14m8 0h4V5h-4v14M29.914356 18.90952l4.021742.045551.157308-13.977114-3.970746-.044974-.208304 13.976537m7.992488.090525l4.020742.04554.10831-13.97767-3.970745-.044974-.158307 13.977104M53.61955 18.582139l4.09356.2111.71596-13.883552-3.863866-.199255-.945654 13.871707m7.957426.410355l4.092562.21105.486264-13.895398-3.863865-.199255-.714961 13.883603M77.070281 17.873776l4.219018.567397 1.830028-13.62263-3.626354-.487691-2.422692 13.542924m7.846362 1.055222l4.215054.566864L90.373024 5.79406l-3.626353-.487692-1.830028 13.62263M100.29833 16.552755l4.358634 1.230506 3.656967-12.968242-3.174903-.896321-4.840698 12.634057m7.5345 2.127099l4.350935 1.228332L114.6647 6.607934l-3.174903-.896322-3.656967 12.968242M123.592506 14.45897l4.365511 2.28637 6.06187-11.589393-2.454715-1.28562-7.972666 10.588643m6.820226 3.57199l4.353995 2.28034 4.163474-12.583649-2.454715-1.28562-6.062754 11.58893M147.43454 11.98851l4.052425 3.54172 8.302547-9.514946-1.634674-1.428664-10.720298 7.40189m5.687099 4.970385l4.036613 3.5279 5.899855-11.61484-1.634674-1.428664-8.301794 9.515604M171.862984 9.864698l3.470001 4.6275 9.776034-7.346957-.983287-1.311285-12.262748 4.030742m4.452688 5.937984l3.454402 4.606698 7.304919-10.64237-.983287-1.311284-9.776034 7.346956M196.554383 8.321248l2.810408 5.415147 10.567298-5.50235-.561528-1.081964-12.816178 1.169167m3.371936 6.497111l2.796128 5.387631 8.33316-9.807129-.561528-1.081964-10.56776 5.501462M221.274724 7.254289l2.190518 5.95382 10.949196-4.046522-.31007-.84277-12.829644-1.064528m2.500589 6.796589l2.178778 5.92191 9.080487-9.125662-.31007-.84277-10.949195 4.046522M245.926992 6.521473l1.652425 6.317467 11.110258-2.92569-.164736-.629811-12.597947-2.761966m1.817162 6.947278l1.643063 6.281672 9.632184-8.576581-.164736-.629812-11.110511 2.924721M270.481922 6.013625l1.204203 6.56243 11.157225-2.066664-.083384-.454413-12.278044-4.041353m1.287768 7.017826l1.197165 6.52407 10.043265-8.137304-.083385-.454413-11.157045 2.067647M294.93571 5.65856l.841935 6.730545 11.14861-1.414752-.039347-.314549L294.93571 5.65856m.881282 7.045094l.836845 6.689862 10.350989-7.791058-.039348-.314549-11.148486 1.415745M319.295441 5.411688l.556586 6.843403 11.116586-.9252-.01678-.20632-11.656392-5.711883m.573285 7.048725l.553182 6.801542 10.580184-7.520424-.01678-.206319-11.116586.925201M343.569417 5.23999l.339492 6.919677 11.079643-.564613-.006125-.12485-11.41301-6.230214m.345618 7.044527l.337384 6.876728 10.748335-7.31749-.006125-.12485-11.079594.565612M367.768867 5.125241l.182203 6.968619 11.045676-.30981-.001751-.066976-11.226128-6.591833m.183954 7.035596l.181079 6.925633 10.866322-7.169465-.00175-.066977-11.04565.310809M391.901945 5.051875l.07739 7.000573 11.020083-.143825-.00031-.027998-11.097163-6.82875m.077699 7.02857l.076902 6.956576 10.94349-7.072401-.000309-.027999-11.020083.143825M415.976554 5.01259l.01851 7.016975 11.004904-.05103-.000019-.007-11.023395-6.958946m.018526 7.022976l.018394 6.972976 10.986528-7.017006-.000018-.007-11.004904.05103M440 5v7.022L451 12l-11-7m0 7.022V19l11-7-11 .022" fill="#000000"/></svg>