<svg xmlns="http://www.w3.org/2000/svg" viewBox="0 0 456 24" width="456" height="24"><path d="M16.5 3c-1.74 0-3.41.81-4.5 2.09C10.91 3.81 9.24 3 7.5 3 4.42 3 2 5.42 2 8.5c0 3.78 3.4 6.86 8.55 11.54L12 21.35l1.45-1.32C18.6 15.36 22 12.28 22 8.5 22 5.42 19.58 3 16.5 3zm-4.4 15.55l-.1.1-.1-.1C7.14 14.24 4 11.39 4 8.5 4 6.5 5.5 5 7.5 5c1.54 0 3.04.99 3.57 2.36h1.87C13.46 5.99 14.96 5 16.5 5c2 0 3.5 1.5 3.5 3.5 0 2.89-3.14 5.74-7.9 10.05zm-.1-6.725M40.5 3c-1.74 0-3.41.81-4.5 2.09C34.91 3.81 33.24 3 31.5 3 28.42 3 26 5.42 26 8.5c0 3.78 3.4 6.86 8.55 11.54L36 21.35l1.45-1.32C42.6 15.36 46 12.28 46 8.5 46 5.42 43.58 3 40.5 3zm-4.4 15.55l-.1.1-.1-.1C31.14 14.24 28 11.39 28 8.5c0-2 1.5-3.5 3.5-3.5 1.54 0 3.04.99 3.57 2.36h1.87C37.46 5.99 38.96 5 40.5 5c2 0 3.5 1.5 3.5 3.5 0 2.89-3.14 5.74-7.9 10.05zm-.099-6.677l-.001.001-.001-.001c-.034-.031-.057-.051-.057-.072 0-.014.011-.025.026-.025.011 0 .021.007.025.017h.014c.004-.01.014-.017.025-.017.015 0 .026.011.026.025 0 .021-.023.041-.057.072M64.5 3c-1.74 0-3.41.81-4.5 2.09C58.91 3.81 57.24 3 55.5 3 52.42 3 50 5.42 50 8.5c0 3.78 3.4 6.86 8.55 11.54L60 21.35l1.45-1.32C66.6 15.36 70 12.28 70 8.5 70 5.42 67.58 3 64.5 3zm-4.4 15.55l-.1.1-.1-.1C55.14 14.24 52 11.39 52 8.5c0-2 1.5-3.5 3.5-3.5 1.54 0 3.04.99 3.57 2.36h1.87C61.46 5.99 62.96 5 64.5 5c2 0 3.5 1.5 3.5 3.5 0 2.89-3.14 5.74-7.9 10.05zm-.097-6.504l-.003.003-.003-.003c-.156-.142-.259-.235-.259-.33 0-.066.049-.115.114-.115.051 0 .1.033.117.078h.062c.017-.045.066-.078.117-.078.065 0 .114.049.114.115 0 .095-.103.188-.259.33M88.5 3c-1.74 0-3.41.81-4.5 2.09C82.91 3.81 81.24 3 79.5 3 76.42 3 74 5.42 74 8.5c0 3.78 3.4 6.86 8.55 11.54L84 21.35l1.45-1.32C90.6 15.36 94 12.28 94 8.5 94 5.42 91.58 3 88.5 3zm-4.4 15.55l-.1.1-.1-.1C79.14 14.24 76 11.39 76 8.5c0-2 1.5-3.5 3.5-3.5 1.54 0 3.04.99 3.57 2.36h1.87C85.46 5.99 86.96 5 88.5 5c2 0 3.5 1.5 3.5 3.5 0 2.89-3.14 5.74-7.9 10.05zm-.091-6.153l-.009.009-.009-.009c-.405-.366-.672-.609-.672-.855 0-.17.128-.298.298-.298.131 0 .259.084.304.201h.159c.044-.117.172-.201.303-.201.17 0 .298.128.298.298 0 .246-.267.489-.672.855M112.5 3c-1.74 0-3.41.81-4.5 2.09-1.09-1.28-2.76-2.09-4.5-2.09-3.08 0-5.5 2.42-5.5 5.5 0 3.78 3.4 6.86 8.55 11.54l1.45 1.31 1.45-1.32C114.6 15.36 118 12.28 118 8.5c0-3.08-2.42-5.5-5.5-5.5zm-4.4 15.55l-.1.1-.1-.1c-4.76-4.31-7.9-7.16-7.9-10.05 0-2 1.5-3.5 3.5-3.5 1.54 0 3.04.99 3.57 2.36h1.87c.52-1.37 2.02-2.36 3.56-2.36 2 0 3.5 1.5 3.5 3.5 0 2.89-3.14 5.74-7.9 10.05zm-.082-5.547l-.018.018-.018-.018c-.833-.755-1.383-1.254-1.383-1.76 0-.351.262-.614.613-.614.27 0 .532.174.625.414h.328c.091-.24.353-.414.623-.414.351 0 .613.263.613.614 0 .506-.55 1.005-1.383 1.76M136.5 3c-1.74 0-3.41.81-4.5 2.09-1.09-1.28-2.76-2.09-4.5-2.09-3.08 0-5.5 2.42-5.5 5.5 0 3.78 3.4 6.86 8.55 11.54l1.45 1.31 1.45-1.32C138.6 15.36 142 12.28 142 8.5c0-3.08-2.42-5.5-5.5-5.5zm-4.4 15.55l-.1.1-.1-.1c-4.76-4.31-7.9-7.16-7.9-10.05 0-2 1.5-3.5 3.5-3.5 1.54 0 3.04.99 3.57 2.36h1.87c.52-1.37 2.02-2.36 3.56-2.36 2 0 3.5 1.5 3.5 3.5 0 2.89-3.14 5.74-7.9 10.05zm-.069-4.659l-.031.03-.031-.03c-1.462-1.324-2.426-2.2-2.426-3.087 0-.615.461-1.075 1.075-1.075.473 0 .934.304 1.096.725h.575c.159-.421.62-.725 1.093-.725.614 0 1.075.46 1.075 1.075 0 .887-.964 1.763-2.426 3.087M160.5 3c-1.74 0-3.41.81-4.5 2.09-1.09-1.28-2.76-2.09-4.5-2.09-3.08 0-5.5 2.42-5.5 5.5 0 3.78 3.4 6.86 8.55 11.54l1.45 1.31 1.45-1.32C162.6 15.36 166 12.28 166 8.5c0-3.08-2.42-5.5-5.5-5.5zm-4.4 15.55l-.1.1-.1-.1c-4.76-4.31-7.9-7.16-7.9-10.05 0-2 1.5-3.5 3.5-3.5 1.54 0 3.04.99 3.57 2.36h1.87c.52-1.37 2.02-2.36 3.56-2.36 2 0 3.5 1.5 3.5 3.5 0 2.89-3.14 5.74-7.9 10.05zm-.054-3.65l-.046.046-.046-.046c-2.176-1.971-3.612-3.274-3.612-4.595 0-.915.686-1.601 1.6-1.601.705 0 1.39.453 1.633 1.079h.855c.238-.626.923-1.079 1.628-1.079.914 0 1.6.686 1.6 1.601 0 1.321-1.436 2.624-3.612 4.595M184.5 3c-1.74 0-3.41.81-4.5 2.09-1.09-1.28-2.76-2.09-4.5-2.09-3.08 0-5.5 2.42-5.5 5.5 0 3.78 3.4 6.86 8.55 11.54l1.45 1.31 1.45-1.32C186.6 15.36 190 12.28 190 8.5c0-3.08-2.42-5.5-5.5-5.5zm-4.4 15.55l-.1.1-.1-.1c-4.76-4.31-7.9-7.16-7.9-10.05 0-2 1.5-3.5 3.5-3.5 1.54 0 3.04.99 3.57 2.36h1.87c.52-1.37 2.02-2.36 3.56-2.36 2 0 3.5 1.5 3.5 3.5 0 2.89-3.14 5.74-7.9 10.05zm-.041-2.755l-.059.059-.059-.059c-2.81-2.544-4.664-4.227-4.664-5.933 0-1.181.885-2.066 2.066-2.066.909 0 1.795.584 2.108 1.393h1.104c.307-.809 1.193-1.393 2.102-1.393 1.181 0 2.066.885 2.066 2.066 0 1.706-1.854 3.389-4.664 5.933M208.5 3c-1.74 0-3.41.81-4.5 2.09-1.09-1.28-2.76-2.09-4.5-2.09-3.08 0-5.5 2.42-5.5 5.5 0 3.78 3.4 6.86 8.55 11.54l1.45 1.31 1.45-1.32C210.6 15.36 214 12.28 214 8.5c0-3.08-2.42-5.5-5.5-5.5zm-4.4 15.55l-.1.1-.1-.1c-4.76-4.31-7.9-7.16-7.9-10.05 0-2 1.5-3.5 3.5-3.5 1.54 0 3.04.99 3.57 2.36h1.87c.52-1.37 2.02-2.36 3.56-2.36 2 0 3.5 1.5 3.5 3.5 0 2.89-3.14 5.74-7.9 10.05zm-.03-2.05l-.07.07-.07-.07c-3.309-2.996-5.492-4.977-5.492-6.987 0-1.39 1.043-2.433 2.433-2.433 1.071 0 2.114.688 2.482 1.641h1.301c.361-.953 1.404-1.641 2.475-1.641 1.39 0 2.433 1.043 2.433 2.433 0 2.01-2.183 3.991-5.492 6.987M232.5 3c-1.74 0-3.41.81-4.5 2.09-1.09-1.28-2.76-2.09-4.5-2.09-3.08 0-5.5 2.42-5.5 5.5 0 3.78 3.4 6.86 8.55 11.54l1.45 1.31 1.45-1.32C234.6 15.36 238 12.28 238 8.5c0-3.08-2.42-5.5-5.5-5.5zm-4.4 15.55l-.1.1-.1-.1c-4.76-4.31-7.9-7.16-7.9-10.05 0-2 1.5-3.5 3.5-3.5 1.54 0 3.04.99 3.57 2.36h1.87c.52-1.37 2.02-2.36 3.56-2.36 2 0 3.5 1.5 3.5 3.5 0 2.89-3.14 5.74-7.9 10.05zm-.022-1.509l-.078.077-.078-.077c-3.691-3.343-6.126-5.553-6.126-7.795 0-1.551 1.163-2.714 2.714-2.714 1.194 0 2.358.768 2.769 1.83h1.45c.403-1.062 1.567-1.83 2.761-1.83 1.551 0 2.714 1.163 2.714 2.714 0 2.242-2.435 4.452-6.126 7.795M256.5 3c-1.74 0-3.41.81-4.5 2.09-1.09-1.28-2.76-2.09-4.5-2.09-3.08 0-5.5 2.42-5.5 5.5 0 3.78 3.4 6.86 8.55 11.54l1.45 1.31 1.45-1.32C258.6 15.36 262 12.28 262 8.5c0-3.08-2.42-5.5-5.5-5.5zm-4.4 15.55l-.1.1-.1-.1c-4.76-4.31-7.9-7.16-7.9-10.05 0-2 1.5-3.5 3.5-3.5 1.54 0 3.04.99 3.57 2.36h1.87c.52-1.37 2.02-2.36 3.56-2.36 2 0 3.5 1.5 3.5 3.5 0 2.89-3.14 5.74-7.9 10.05zm-.016-1.095l-.084.083-.084-.083c-3.984-3.608-6.613-5.994-6.613-8.413 0-1.675 1.256-2.93 2.93-2.93 1.289 0 2.545.828 2.988 1.975h1.566c.435-1.147 1.691-1.975 2.98-1.975 1.674 0 2.93 1.255 2.93 2.93 0 2.419-2.629 4.805-6.613 8.413M280.5 3c-1.74 0-3.41.81-4.5 2.09-1.09-1.28-2.76-2.09-4.5-2.09-3.08 0-5.5 2.42-5.5 5.5 0 3.78 3.4 6.86 8.55 11.54l1.45 1.31 1.45-1.32C282.6 15.36 286 12.28 286 8.5c0-3.08-2.42-5.5-5.5-5.5zm-4.4 15.55l-.1.1-.1-.1c-4.76-4.31-7.9-7.16-7.9-10.05 0-2 1.5-3.5 3.5-3.5 1.54 0 3.04.99 3.57 2.36h1.87c.52-1.37 2.02-2.36 3.56-2.36 2 0 3.5 1.5 3.5 3.5 0 2.89-3.14 5.74-7.9 10.05zm-.012-.777l-.088.088-.088-.088c-4.211-3.812-6.988-6.333-6.988-8.889 0-1.769 1.327-3.095 3.096-3.095 1.362 0 2.689.875 3.157 2.087h1.654c.46-1.212 1.787-2.087 3.149-2.087 1.769 0 3.096 1.326 3.096 3.095 0 2.556-2.777 5.077-6.988 8.889M304.5 3c-1.74 0-3.41.81-4.5 2.09-1.09-1.28-2.76-2.09-4.5-2.09-3.08 0-5.5 2.42-5.5 5.5 0 3.78 3.4 6.86 8.55 11.54l1.45 1.31 1.45-1.32C306.6 15.36 310 12.28 310 8.5c0-3.08-2.42-5.5-5.5-5.5zm-4.4 15.55l-.1.1-.1-.1c-4.76-4.31-7.9-7.16-7.9-10.05 0-2 1.5-3.5 3.5-3.5 1.54 0 3.04.99 3.57 2.36h1.87c.52-1.37 2.02-2.36 3.56-2.36 2 0 3.5 1.5 3.5 3.5 0 2.89-3.14 5.74-7.9 10.05zm-.008-.533l-.092.092-.092-.092c-4.383-3.968-7.274-6.593-7.274-9.254 0-1.841 1.381-3.222 3.223-3.222 1.418 0 2.799.911 3.287 2.173h1.722c.478-1.262 1.859-2.173 3.277-2.173 1.842 0 3.223 1.381 3.223 3.222 0 2.661-2.891 5.286-7.274 9.254M328.5 3c-1.74 0-3.41.81-4.5 2.09-1.09-1.28-2.76-2.09-4.5-2.09-3.08 0-5.5 2.42-5.5 5.5 0 3.78 3.4 6.86 8.55 11.54l1.45 1.31 1.45-1.32C330.6 15.36 334 12.28 334 8.5c0-3.08-2.42-5.5-5.5-5.5zm-4.4 15.55l-.1.1-.1-.1c-4.76-4.31-7.9-7.16-7.9-10.05 0-2 1.5-3.5 3.5-3.5 1.54 0 3.04.99 3.57 2.36h1.87c.52-1.37 2.02-2.36 3.56-2.36 2 0 3.5 1.5 3.5 3.5 0 2.89-3.14 5.74-7.9 10.05zm-.005-.347l-.095.094-.095-.094c-4.514-4.088-7.492-6.791-7.492-9.531 0-1.897 1.423-3.319 3.319-3.319 1.461 0 2.883.938 3.386 2.238h1.773c.494-1.3 1.916-2.238 3.377-2.238 1.896 0 3.319 1.422 3.319 3.319 0 2.74-2.978 5.443-7.492 9.531M352.5 3c-1.74 0-3.41.81-4.5 2.09-1.09-1.28-2.76-2.09-4.5-2.09-3.08 0-5.5 2.42-5.5 5.5 0 3.78 3.4 6.86 8.55 11.54l1.45 1.31 1.45-1.32C354.6 15.36 358 12.28 358 8.5c0-3.08-2.42-5.5-5.5-5.5zm-4.4 15.55l-.1.1-.1-.1c-4.76-4.31-7.9-7.16-7.9-10.05 0-2 1.5-3.5 3.5-3.5 1.54 0 3.04.99 3.57 2.36h1.87c.52-1.37 2.02-2.36 3.56-2.36 2 0 3.5 1.5 3.5 3.5 0 2.89-3.14 5.74-7.9 10.05zm-.003-.21l-.097.097-.097-.097c-4.611-4.175-7.653-6.936-7.653-9.736 0-1.938 1.453-3.391 3.39-3.391 1.492 0 2.946.959 3.459 2.286h1.812c.503-1.327 1.957-2.286 3.449-2.286 1.937 0 3.39 1.453 3.39 3.391 0 2.8-3.042 5.561-7.653 9.736M376.5 3c-1.74 0-3.41.81-4.5 2.09-1.09-1.28-2.76-2.09-4.5-2.09-3.08 0-5.5 2.42-5.5 5.5 0 3.78 3.4 6.86 8.55 11.54l1.45 1.31 1.45-1.32C378.6 15.36 382 12.28 382 8.5c0-3.08-2.42-5.5-5.5-5.5zm-4.4 15.55l-.1.1-.1-.1c-4.76-4.31-7.9-7.16-7.9-10.05 0-2 1.5-3.5 3.5-3.5 1.54 0 3.04.99 3.57 2.36h1.87c.52-1.37 2.02-2.36 3.56-2.36 2 0 3.5 1.5 3.5 3.5 0 2.89-3.14 5.74-7.9 10.05zm-.002-.112l-.098.098-.098-.098c-4.681-4.238-7.769-7.041-7.769-9.883 0-1.966 1.475-3.441 3.442-3.441 1.514 0 2.989.973 3.51 2.32h1.839c.512-1.347 1.987-2.32 3.501-2.32 1.967 0 3.442 1.475 3.442 3.441 0 2.842-3.088 5.645-7.769 9.883M400.5 3c-1.74 0-3.41.81-4.5 2.09-1.09-1.28-2.76-2.09-4.5-2.09-3.08 0-5.5 2.42-5.5 5.5 0 3.78 3.4 6.86 8.55 11.54l1.45 1.31 1.45-1.32C402.6 15.36 406 12.28 406 8.5c0-3.08-2.42-5.5-5.5-5.5zm-4.4 15.55l-.1.1-.1-.1c-4.76-4.31-7.9-7.16-7.9-10.05 0-2 1.5-3.5 3.5-3.5 1.54 0 3.04.99 3.57 2.36h1.87c.52-1.37 2.02-2.36 3.56-2.36 2 0 3.5 1.5 3.5 3.5 0 2.89-3.14 5.74-7.9 10.05zm-.001-.047l-.099.099-.099-.099c-4.727-4.28-7.845-7.11-7.845-9.98 0-1.986 1.49-3.475 3.476-3.475 1.529 0 3.018.983 3.545 2.343h1.856c.517-1.36 2.006-2.343 3.535-2.343 1.986 0 3.476 1.489 3.476 3.475 0 2.87-3.118 5.7-7.845 9.98M424.5 3c-1.74 0-3.41.81-4.5 2.09-1.09-1.28-2.76-2.09-4.5-2.09-3.08 0-5.5 2.42-5.5 5.5 0 3.78 3.4 6.86 8.55 11.54l1.45 1.31 1.45-1.32C426.6 15.36 430 12.28 430 8.5c0-3.08-2.42-5.5-5.5-5.5zm-4.4 15.55l-.1.1-.1-.1c-4.76-4.31-7.9-7.16-7.9-10.05 0-2 1.5-3.5 3.5-3.5 1.54 0 3.04.99 3.57 2.36h1.87c.52-1.37 2.02-2.36 3.56-2.36 2 0 3.5 1.5 3.5 3.5 0 2.89-3.14 5.74-7.9 10.05zm0-.011l-.1.1-.1-.1c-4.752-4.303-7.887-7.148-7.887-10.033 0-1.997 1.498-3.495 3.495-3.495 1.537 0 3.034.989 3.564 2.356h1.866c.52-1.367 2.017-2.356 3.554-2.356 1.997 0 3.495 1.498 3.495 3.495 0 2.885-3.135 5.73-7.887 10.033M448.5 3c-1.74 0-3.41.81-4.5 2.09-1.09-1.28-2.76-2.09-4.5-2.09-3.08 0-5.5 2.42-5.5 5.5 0 3.78 3.4 6.86 8.55 11.54l1.45 1.31 1.45-1.32C450.6 15.36 454 12.28 454 8.5c0-3.08-2.42-5.5-5.5-5.5zm-4.4 15.55l-.1.1-.1-.1c-4.76-4.31-7.9-7.16-7.9-10.05 0-2 1.5-3.5 3.5-3.5 1.54 0 3.04.99 3.57 2.36h1.87c.52-1.37 2.02-2.36 3.56-2.36 2 0 3.5 1.5 3.5 3.5 0 2.89-3.14 5.74-7.9 10.05zm0 0l-.1.1-.1-.1c-4.76-4.31-7.9-7.16-7.9-10.05 0-2 1.5-3.5 3.5-3.5 1.54 0 3.04.99 3.57 2.36h1.87c.52-1.37 2.02-2.36 3.56-2.36 2 0 3.5 1.5 3.5 3.5 0 2.89-3.14 5.74-7.9 10.05" fill="#000000"/></svg>