<svg xmlns="http://www.w3.org/2000/svg" viewBox="0 0 456 24" width="456" height="24"><path d="M12 16l1.41-1.41-6-6L6 10z" fill="#000000"/><path d="M12 16l6-6-1.41-1.41-6 6zM36.041814 15.969516l1.39394-1.425878-6.067568-5.931662-1.39394 1.425878z" fill="#000000"/><path d="M35.958186 15.969516l6.067568-5.931662-1.39394-1.425878-6.067568 5.931662zM60.187764 15.857537l1.335513-1.480744-6.30104-5.683035-1.335514 1.480744z" fill="#000000"/><path d="M59.812236 15.857537l6.30104-5.683035-1.335512-1.480744-6.30104 5.683035zM84.473346 15.61084l1.209487-1.585352-6.74618-5.146753-1.209486 1.585352z" fill="#000000"/><path d="M83.526654 15.61084l6.74618-5.146753-1.209488-1.585352-6.74618 5.146753zM108.9203 15.133742l.97387-1.74005-7.40447-4.144132-.97387 1.74005z" fill="#000000"/><path d="M107.0797 15.133742l7.40447-4.144132-.97387-1.74005-7.40447 4.144131zM133.457 14.331116l.594884-1.903237L125.953 9.896458l-.594884 1.903238z" fill="#000000"/><path d="M130.543 14.331116l8.098884-2.53142-.594884-1.903238-8.098884 2.53142zM157.87118 13.30467l.133798-1.989548-8.466159-.569348-.133797 1.989547z" fill="#000000"/><path d="M154.12882 13.30467l8.466158-.56935-.133797-1.989546-8.466159.569348zM182.046033 12.333296l-.28217-1.973976-8.399896 1.200725.28217 1.973975z" fill="#000000"/><path d="M177.953967 12.333296l8.399896 1.200724.28217-1.973975-8.399896-1.200725zM206.050681 11.554505l-.60198-1.901005-8.089382 2.561618.60198 1.901005z" fill="#000000"/><path d="M201.949319 11.554505l8.089382 2.561618.60198-1.901005L202.5513 9.6535zM229.974568 10.962869l-.836421-1.810138-7.702715 3.559238.836421 1.810138z" fill="#000000"/><path d="M226.025432 10.962869l7.702715 3.559238.836421-1.810138-7.702715-3.559238z" fill="#000000"/><g><path d="M253.870166 10.518343l-1.007306-1.72091-7.323026 4.286408 1.007306 1.720911z" fill="#000000"/><path d="M250.129834 10.518343l7.323026 4.28641 1.007306-1.720912-7.323026-4.286408z" fill="#000000"/></g><g><path d="M277.76337 10.184556l-1.132359-1.64133-6.984381 4.818549 1.132359 1.64133z" fill="#000000"/><path d="M274.23663 10.184556l6.984381 4.818548 1.13236-1.64133-6.984382-4.818548z" fill="#000000"/></g><g><path d="M301.666213 9.93437l-1.224081-1.57411-6.698345 5.208854 1.224081 1.574111z" fill="#000000"/><path d="M298.333787 9.93437l6.698345 5.208855 1.224081-1.57411-6.698345-5.208856z" fill="#000000"/></g><g><path d="M325.583849 9.748377l-1.29106-1.51966-6.466638 5.49387 1.29106 1.519659z" fill="#000000"/><path d="M322.416151 9.748377l6.466638 5.493869 1.29106-1.51966-6.466638-5.493869z" fill="#000000"/></g><g><path d="M349.51801 9.612726l-1.339212-1.4774-6.286809 5.698774 1.339213 1.4774z" fill="#000000"/><path d="M346.48199 9.612726l6.286808 5.698775 1.339213-1.4774-6.28681-5.698775z" fill="#000000"/></g><g><path d="M373.46872 9.51744l-1.372666-1.44637-6.154773 5.841126 1.372665 1.446372z" fill="#000000"/><path d="M370.53128 9.51744l6.154774 5.841128 1.372665-1.446372-6.154773-5.841127z" fill="#000000"/></g><g><path d="M397.435143 9.455247l-1.394328-1.4255-6.065958 5.93331 1.394328 1.4255z" fill="#000000"/><path d="M394.564857 9.455247l6.065958 5.93331 1.394328-1.4255-6.065958-5.93331z" fill="#000000"/></g><g><path d="M421.416041 9.420772l-1.406275-1.413714-6.015807 5.984151 1.406275 1.413715z" fill="#000000"/><path d="M418.583959 9.420772l6.015807 5.984152 1.406275-1.413715-6.015807-5.984151z" fill="#000000"/></g><g><path d="M445.41 9.41L444 8l-6 6 1.41 1.41z" fill="#000000"/><path d="M442.59 9.41l6 6L450 14l-6-6z" fill="#000000"/></g></svg>