<svg xmlns="http://www.w3.org/2000/svg" viewBox="0 0 456 24" width="456" height="24"><path d="M8 5v7.022L19 12 8 5m0 7.022V19l11-7-11 .022M32.057457 4.961897l-.079278 6.999552 11.02153.10383.000329-.028998-10.942581-7.074384m-.079607 7.02855L31.89906 18.947l11.100005-6.824724.000328-.028999-11.021542-.10283M56.266242 4.831197l-.356538 6.913812 11.084406.549582.006746-.130826-10.734614-7.332568m-.363284 7.044639l-.354324 6.87087 11.431931-6.189464.006747-.130826-11.084354-.55058M80.704634 4.579568l-.901677 6.70464 11.157245 1.480308.04545-.337958-10.301018-7.84699m-.946994 7.041607l-.896345 6.664997 12.00814-4.846732.04545-.337958-11.157245-1.480307M105.49857 4.202042l-1.764115 6.248756 11.097322 3.114232.190458-.67463-9.523665-8.688358m-1.954301 6.922424l-1.754334 6.21411 12.661198-2.425247.190458-.67463-11.097322-3.114233M130.745942 3.787824l-2.827343 5.398423 10.56728 5.517522.570201-1.08872-8.310138-9.827225m-3.397544 6.487144l-2.81296 5.37096 12.810503 1.234396.570201-1.08872-10.567744-5.516636M156.26084 3.538251l-3.7115 4.246688 9.323504 8.132576 1.203606-1.377162-6.81561-11.002102m-4.915106 5.62385l-3.696365 4.22937 11.815606 5.28112 1.203606-1.377161-9.322847-8.133329M181.66613 3.537344l-4.190671 3.142438 7.668919 10.212062 1.888922-1.416437-5.36717-11.938063m-6.080393 4.559475l-4.17627 3.13164 9.956266 8.496859 1.888923-1.416437-7.66892-10.212062M206.792716 3.693788l-4.367798 2.266844 6.033352 11.612153 2.46837-1.28106-4.133924-12.597937m-6.836168 3.547903l-4.35626 2.260855 7.92213 10.631897 2.46837-1.28106-6.03424-11.611692M231.656552 3.913052l-4.390285 1.615265 4.606369 12.505612 2.911215-1.071089-3.127299-13.049788m-7.3015 2.686354l-4.3809 1.611812 6.076053 11.964888 2.911215-1.071089-4.606368-12.505611M256.314794 4.141359l-4.345798 1.136707 3.42188 13.070496 3.24-.84747-2.316082-13.359733m-7.585797 1.984176L244.38997 7.26047l4.521873 12.782777 3.24-.84747-3.422847-13.070242M280.814786 4.352406l-4.278562.785114 2.467127 13.428243 3.479898-.63856-1.668463-13.574797M273.05731 5.7759l-4.273644.784212 3.25989 13.28277 3.479898-.63856L273.05731 5.7759M305.192662 4.535742l-4.206219.526162 1.710181 13.655326 3.654519-.45715-1.158481-13.724338m-7.860737.983311l-4.203242.52579 2.257913 13.58681 3.654518-.45715-1.709189-13.65545M329.477199 4.686928l-4.142323.336902 1.12333 13.799354 3.780516-.307476-.761523-13.82878m-7.923836.64446l-4.140329.33674 1.48314 13.770089 3.780518-.307476-1.12333-13.799354M353.68534 4.80676l-4.08908.200618.682432 13.889245 3.870345-.189886-.463696-13.899977m-7.959427.390504l-4.088082.200569.899172 13.878611 3.870344-.189886-.681434-13.889294M377.83329 4.895107l-4.049615.105882.365614 13.945208 3.931656-.102798-.247654-13.948292m-7.981273.20868l-4.048616.105855.481574 13.942176 3.931657-.102798-.364615-13.945234M401.929487 4.955025l-4.020754.044448.154524 13.978146 3.971757-.043906-.105527-13.978688m-7.992511.088355l-4.020755.044448.20352 13.977604 3.971758-.043906-.154523-13.978146M425.983527 4.989192l-4.004986.010564.036917 13.994952 3.992987-.010533-.024918-13.994983m-7.998972.0211l-4.004986.010565.048917 13.99492 3.992986-.010533-.036917-13.994952M450 5h-4v14h4V5m-8 0h-4v14h4V5" fill="#000000"/></svg>